<?xml version="1.0" encoding="utf-8"?>
<!-- Generator: Adobe Illustrator 22.1.0, SVG Export Plug-In . SVG Version: 6.00 Build 0)  -->
<svg version="1.1" id="Calque_1" xmlns="http://www.w3.org/2000/svg" xmlns:xlink="http://www.w3.org/1999/xlink" x="0px" y="0px"
	 viewBox="0 0 37.8 35.4" style="enable-background:new 0 0 37.8 35.4;" xml:space="preserve">
<style type="text/css">
	.st0{clip-path:url(#SVGID_2_);}
	.st1{fill:#6B702E;}
	.st2{fill:#F4C55C;}
	.st3{fill:#A0A0A0;}
	.st4{fill:#BEBEBE;}
</style>
<g id="connexion" transform="translate(-1114.119 -33.799)">
	<g>
		<defs>
			<rect id="SVGID_1_" x="1114.1" y="31.8" width="37.8" height="35.4"/>
		</defs>
		<clipPath id="SVGID_2_">
			<use xlink:href="#SVGID_1_"  style="overflow:visible;"/>
		</clipPath>
		<g id="picto-perso" transform="translate(3.119 3.799)" class="st0">
			<g id="picto-perso-2" transform="translate(1117.689 37.243)">
				<g id="Groupe_37">
					<circle id="Ellipse_4" class="st1" cx="11.2" cy="4.2" r="6.2"/>
					<path id="Tracé_131" class="st1" d="M11.2,13.4C5,13.4,0,18.4,0,24.6c0,0,0,0,0,0h22.4C22.4,18.4,17.4,13.4,11.2,13.4
						C11.2,13.4,11.2,13.4,11.2,13.4z"/>
				</g>
				<g id="Groupe_39" transform="translate(15.535 14.239)">
					<g id="Groupe_38">
						<rect id="Rectangle_66" x="0" y="3" class="st2" width="11.1" height="8.9"/>
						<path id="Tracé_132" class="st3" d="M7.2,6.9c0-0.9-0.7-1.7-1.7-1.7C4.7,5.2,3.9,6,3.9,6.9c0,0.7,0.5,1.4,1.1,1.6
							c0,0,0,0.1,0,0.1v1.1c0,0.3,0.2,0.6,0.5,0.6c0.3,0,0.6-0.2,0.6-0.5c0,0,0,0,0,0V8.6c0,0,0-0.1,0-0.1C6.8,8.3,7.2,7.6,7.2,6.9z
							"/>
						<path id="Tracé_133" class="st4" d="M2.8,1.9c0-1.5,1.2-2.8,2.8-2.8c1.5,0,2.8,1.2,2.8,2.8V3h1.1V1.9C9.5-0.3,7.7-2,5.6-2
							C3.4-2,1.7-0.3,1.7,1.9c0,0,0,0,0,0V3h1.1V1.9z"/>
					</g>
				</g>
			</g>
		</g>
	</g>
</g>
</svg>
