<svg xmlns="http://www.w3.org/2000/svg" viewBox="0 0 46.961 46.961">
  <defs>
    <style>
      .cls-1 {
        fill: #6c27b3;
      }

      .cls-2 {
        fill: #501a96;
      }

      .cls-3 {
        fill: #fff;
      }

      .cls-4 {
        fill: #d1d1d1;
      }
    </style>
  </defs>
  <g id="instagram" transform="translate(0)">
    <ellipse id="Ellipse_29" data-name="Ellipse 29" class="cls-1" cx="23.481" cy="23.481" rx="23.481" ry="23.481"/>
    <path id="Tracé_547" data-name="Tracé 547" class="cls-2" d="M145.45,126.081a39.528,39.528,0,0,1-8.674.062c-4.111-.316-10.12-2.214-12.333,1.581-3.556,6.075-1.8,13.853-.974,20.736l12.358,12.356a23.482,23.482,0,0,0,22.181-22.177Z" transform="translate(-111.081 -113.889)"/>
    <g id="Groupe_51" data-name="Groupe 51" transform="translate(10.041 10.041)">
      <path id="Tracé_548" data-name="Tracé 548" class="cls-3" d="M128.34,109.468H117.476a8.017,8.017,0,0,0-8.008,8.008V128.34a8.017,8.017,0,0,0,8.008,8.008h10.865a8.017,8.017,0,0,0,8.008-8.008V117.476a8.017,8.017,0,0,0-8.008-8.008Zm5.3,18.873a5.3,5.3,0,0,1-5.3,5.3H117.476a5.3,5.3,0,0,1-5.3-5.3V117.476a5.3,5.3,0,0,1,5.3-5.3h10.865a5.3,5.3,0,0,1,5.3,5.3Z" transform="translate(-109.468 -109.468)"/>
      <path id="Tracé_549" data-name="Tracé 549" class="cls-3" d="M187.154,180.2a6.952,6.952,0,1,0,6.952,6.952,6.96,6.96,0,0,0-6.952-6.952Zm0,11.2a4.248,4.248,0,1,1,4.248-4.248,4.248,4.248,0,0,1-4.248,4.248Z" transform="translate(-173.714 -173.714)"/>
    </g>
    <g id="Groupe_52" data-name="Groupe 52" transform="translate(23.428 10.041)">
      <path id="Tracé_550" data-name="Tracé 550" class="cls-4" d="M317.109,164.277a1.666,1.666,0,1,1-1.666-1.666,1.666,1.666,0,0,1,1.666,1.666Z" transform="translate(-308.425 -157.737)"/>
      <path id="Tracé_551" data-name="Tracé 551" class="cls-4" d="M260.911,109.468h-5.485v2.7h5.485a5.3,5.3,0,0,1,5.3,5.3v10.865a5.3,5.3,0,0,1-5.3,5.3h-5.485v2.7h5.485a8.017,8.017,0,0,0,8.008-8.008V117.476A8.017,8.017,0,0,0,260.911,109.468Z" transform="translate(-255.426 -109.468)"/>
      <path id="Tracé_552" data-name="Tracé 552" class="cls-4" d="M255.479,180.2h-.053v2.7h.053a4.248,4.248,0,0,1,0,8.5h-.053v2.7h.053a6.952,6.952,0,0,0,0-13.9Z" transform="translate(-255.426 -173.714)"/>
    </g>
  </g>
</svg>
