<?xml version="1.0" encoding="utf-8"?>
<!-- Generator: Adobe Illustrator 22.1.0, SVG Export Plug-In . SVG Version: 6.00 Build 0)  -->
<svg version="1.1" id="Calque_1" xmlns="http://www.w3.org/2000/svg" xmlns:xlink="http://www.w3.org/1999/xlink" x="0px" y="0px"
	 viewBox="0 0 12 11.4" style="enable-background:new 0 0 12 11.4;" xml:space="preserve">
<style type="text/css">
	.st0{fill:#F4C55C;}
</style>
<g id="note" transform="translate(-247 -1210)">
	<g id="star" transform="translate(247 1210)">
		<path id="Tracé_135" class="st0" d="M6.3,0.2l1.5,3.6l3.9,0.3c0.2,0,0.3,0.2,0.3,0.3c0,0.1,0,0.2-0.1,0.2l-3,2.6l0.9,3.8
			c0,0.2-0.1,0.3-0.2,0.4c-0.1,0-0.2,0-0.2,0L6,9.4l-3.4,2c-0.1,0.1-0.3,0-0.4-0.1c0-0.1-0.1-0.2,0-0.2l0.9-3.8l-3-2.6
			C0,4.6,0,4.4,0.1,4.2c0.1-0.1,0.1-0.1,0.2-0.1l3.9-0.3l1.5-3.6C5.8,0,6,0,6.1,0C6.2,0.1,6.3,0.1,6.3,0.2z"/>
	</g>
</g>
</svg>
