<?xml version="1.0" encoding="utf-8"?>
<!-- Generator: Adobe Illustrator 22.1.0, SVG Export Plug-In . SVG Version: 6.00 Build 0)  -->
<svg version="1.1" id="Calque_1" xmlns="http://www.w3.org/2000/svg" xmlns:xlink="http://www.w3.org/1999/xlink" x="0px" y="0px"
	 viewBox="0 0 68.7 11.4" style="enable-background:new 0 0 68.7 11.4;" xml:space="preserve">
<style type="text/css">
	.st0{fill:#F4C55C;}
</style>
<g id="note" transform="translate(-247 -1210)">
	<g id="star" transform="translate(247 1210)">
		<g id="Tracé_135">
			<path class="st0" d="M6,0.8L7.4,4l0.1,0.3l0.3,0l3.5,0.3L8.6,6.9L8.4,7.1l0.1,0.3l0.8,3.4l-3-1.8L6,8.8L5.7,8.9l-3,1.8l0.8-3.4
				l0.1-0.3L3.4,6.9L0.8,4.6l3.5-0.3l0.3,0L4.7,4L6,0.8 M6,0C5.9,0,5.8,0.1,5.7,0.2L4.2,3.8L0.3,4.1c-0.1,0-0.2,0-0.2,0.1
				C0,4.4,0,4.6,0.1,4.7l3,2.6l-0.9,3.8c0,0.1,0,0.2,0,0.2c0.1,0.1,0.2,0.1,0.3,0.1c0.1,0,0.1,0,0.2,0l3.4-2l3.4,2c0,0,0.1,0,0.2,0
				c0,0,0,0,0.1,0c0.2,0,0.3-0.2,0.2-0.4L8.9,7.2l3-2.6C12,4.6,12,4.6,12,4.5c0-0.2-0.1-0.3-0.3-0.3L7.8,3.8L6.3,0.2
				c0-0.1-0.1-0.1-0.2-0.2C6.1,0,6,0,6,0L6,0z"/>
		</g>
	</g>
</g>
</svg>
