<svg id="twitter" xmlns="http://www.w3.org/2000/svg" viewBox="0 0 46.961 46.961">
  <defs>
    <style>
      .cls-1 {
        fill: #65a2d9;
      }

      .cls-2 {
        fill: #3a7ca5;
      }

      .cls-3 {
        fill: #fff;
      }

      .cls-4 {
        fill: #d1d1d1;
      }
    </style>
  </defs>
  <ellipse id="Ellipse_30" data-name="Ellipse 30" class="cls-1" cx="23.481" cy="23.481" rx="23.481" ry="23.481"/>
  <path id="Tracé_553" data-name="Tracé 553" class="cls-2" d="M136.571,139.326c-2.449,2.125-4.884,3.988-6.875,6.59-4.9,5.9-10.879,14.281-19.022,13.032l14.548,14.528a23.48,23.48,0,0,0,22.259-23.24Z" transform="translate(-100.523 -126.547)"/>
  <path id="Tracé_554" data-name="Tracé 554" class="cls-3" d="M135.918,136.715a10.625,10.625,0,0,1-1.854.625,5.776,5.776,0,0,0,1.525-2.429.3.3,0,0,0-.443-.353,10.692,10.692,0,0,1-2.834,1.171.716.716,0,0,1-.177.022.752.752,0,0,1-.5-.189,5.8,5.8,0,0,0-3.834-1.447,6.194,6.194,0,0,0-1.836.284,5.615,5.615,0,0,0-3.784,4.045,6.182,6.182,0,0,0-.137,2.134.208.208,0,0,1-.052.163.216.216,0,0,1-.16.073h-.021a15.2,15.2,0,0,1-10.444-5.58.3.3,0,0,0-.5.039,5.8,5.8,0,0,0,.943,7.045,5.2,5.2,0,0,1-1.322-.512.3.3,0,0,0-.45.261,5.8,5.8,0,0,0,3.385,5.346h-.124a5.19,5.19,0,0,1-.976-.093.3.3,0,0,0-.346.39,5.808,5.808,0,0,0,4.588,3.95,10.694,10.694,0,0,1-5.99,1.819h-.67a.443.443,0,0,0-.434.335.459.459,0,0,0,.22.507,15.9,15.9,0,0,0,7.992,2.155,16.119,16.119,0,0,0,6.83-1.449,15.083,15.083,0,0,0,5-3.745,16.416,16.416,0,0,0,3.06-5.125,16.191,16.191,0,0,0,1.04-5.609v-.088a.987.987,0,0,1,.369-.768,11.458,11.458,0,0,0,2.3-2.529.3.3,0,0,0-.375-.445Z" transform="translate(-99.425 -121.813)"/>
  <path id="Tracé_555" data-name="Tracé 555" class="cls-4" d="M268.489,136.715a10.63,10.63,0,0,1-1.853.625,5.777,5.777,0,0,0,1.525-2.429.3.3,0,0,0-.443-.353,10.692,10.692,0,0,1-2.834,1.171.716.716,0,0,1-.177.022.752.752,0,0,1-.5-.189,5.8,5.8,0,0,0-3.834-1.447,6.194,6.194,0,0,0-1.836.284,5.615,5.615,0,0,0-3.117,2.435v18.847a15.015,15.015,0,0,0,6.667-4.4,16.417,16.417,0,0,0,3.06-5.125,16.191,16.191,0,0,0,1.04-5.609v-.088a.987.987,0,0,1,.369-.768,11.459,11.459,0,0,0,2.3-2.529A.3.3,0,0,0,268.489,136.715Z" transform="translate(-231.996 -121.813)"/>
</svg>
