<svg id="Calque_1" data-name="Calque 1" xmlns="http://www.w3.org/2000/svg" viewBox="0 0 871 499.67"><defs><style>.cls-1{fill:#f4c55c;}.cls-2,.cls-3{fill:none;stroke-miterlimit:10;stroke-width:5px;}.cls-2{stroke:#f1e4b2;}.cls-3{stroke:#f4c55c;}.cls-4{fill:#f1e4b2;}.cls-5{fill:#6b702e;}</style></defs><title>Plan de travail 1 copie 2</title><path class="cls-1" d="M165.25,228.68A63.7,63.7,0,1,0,101.54,165,63.77,63.77,0,0,0,165.25,228.68Z"/><circle class="cls-2" cx="165.24" cy="164.98" r="92.02"/><path class="cls-3" d="M165.24,51.86a112.14,112.14,0,0,0-15.09,1l15.09-22.66,15.09,22.66A112.26,112.26,0,0,0,165.24,51.86Z"/><path class="cls-3" d="M233.9,74.94l26.74-5.35-5.35,26.73A114.57,114.57,0,0,0,233.9,74.94Z"/><path class="cls-3" d="M277.51,149.9,300.15,165l-22.64,15.09a112,112,0,0,0,1-15.09A110.42,110.42,0,0,0,277.51,149.9Z"/><path class="cls-3" d="M255.29,233.65l5.35,26.74L233.9,255A114.62,114.62,0,0,0,255.29,233.65Z"/><path class="cls-3" d="M165.23,278.3a115.53,115.53,0,0,0,15.09-1l-15.09,22.65-15.09-22.65A115.53,115.53,0,0,0,165.23,278.3Z"/><path class="cls-3" d="M96.57,255l-26.75,5.35,5.36-26.74A114,114,0,0,0,96.57,255Z"/><path class="cls-3" d="M52.94,180.07,30.31,165,52.94,149.9a111,111,0,0,0,0,30.17Z"/><path class="cls-3" d="M75.18,96.31,69.82,69.59l26.74,5.35A114.46,114.46,0,0,0,75.18,96.31Z"/><polygon class="cls-4" points="80.89 52.66 86.49 48.66 119.77 55.35 138.71 27.04 145.42 25.91 122.08 60.88 80.89 52.66"/><polygon class="cls-4" points="184.97 25.95 191.75 27.07 210.61 55.29 244.01 48.6 249.56 52.55 208.35 60.84 184.97 25.95"/><polygon class="cls-4" points="277.59 80.65 281.59 86.24 274.91 119.52 303.22 138.46 304.35 145.18 269.38 121.84 277.59 80.65"/><polygon class="cls-4" points="304.29 184.74 303.17 191.52 274.93 210.35 281.59 243.76 277.63 249.31 269.38 208.08 304.29 184.74"/><polygon class="cls-4" points="249.53 277.36 243.93 281.35 210.66 274.64 191.7 302.94 184.98 304.06 208.35 269.11 249.53 277.36"/><polygon class="cls-4" points="145.52 303.99 138.74 302.88 119.89 274.64 86.49 281.33 80.94 277.38 122.16 269.09 145.52 303.99"/><polygon class="cls-4" points="52.76 249.29 48.78 243.68 55.57 210.42 27.32 191.4 26.22 184.67 61.11 208.13 52.76 249.29"/><polygon class="cls-4" points="26.21 145.26 27.33 138.47 55.56 119.63 48.89 86.23 52.83 80.67 61.11 121.9 26.21 145.26"/><path class="cls-1" d="M327,165C327,75.82,254.39,3.29,165.26,3.29S3.53,75.82,3.53,165,76.07,326.69,165.26,326.69,327,254.15,327,165ZM165.26,314.85C82.59,314.85,15.39,247.62,15.37,165S82.59,15.12,165.26,15.12,315.11,82.35,315.11,165,247.87,314.85,165.26,314.85Z"/><path class="cls-5" d="M866,391.88a37.16,37.16,0,0,1-.82-4.08l-5.61-4.24a37.59,37.59,0,0,1-4.83-6.23c-1.66-2.61-3.3-3.94-4.9-4a2,2,0,0,0-1.46.4,7.23,7.23,0,0,1-2.87-.56l-4.28-1.49a2.9,2.9,0,0,0-1.94.38l-1,.86h-.48a16.75,16.75,0,0,0-3.14.34,19.49,19.49,0,0,1-3.63.32,3,3,0,0,1-1.9-.52L822,371.47,808.05,371c0-.31-.3-.46-.94-.49a6.91,6.91,0,0,0-3.41,1,6.72,6.72,0,0,1-2.93,1,34.76,34.76,0,0,1-5-.4,50.79,50.79,0,0,0-6.48-.45l-3.85-.14c-3.41-.42-12.1,1.08-21.86-1.51l-20.11.24-4.48.42-.12,0a4.11,4.11,0,0,0-1.44-.48H736a28.25,28.25,0,0,0-2.89.45,21.73,21.73,0,0,1-3.37.45l-43.29.9a7.1,7.1,0,0,0-2.89.45h-6.74l1,2.24c-.42,0-.88.06-1.31.09a5.14,5.14,0,0,0-3.47-2,2,2,0,0,0-1.45.43,7.11,7.11,0,0,1-2.87-.5l-4.31-1.42a2.88,2.88,0,0,0-1.93.42l-1,.88h-.48a17.35,17.35,0,0,0-3.14.4,19.08,19.08,0,0,1-3.61.38,3,3,0,0,1-1.92-.48l-7.19-1.47-14-.24c0-.3-.31-.45-1-.46a6.87,6.87,0,0,0-3.39,1.06,6.7,6.7,0,0,1-2.91,1.07,33.38,33.38,0,0,1-5-.31,53.25,53.25,0,0,0-6.49-.33l-3.85-.07c-3.42-.36-12.08,1.3-21.89-1.12l-20.1.59-4.48.5-3.6,1.42-.12.15-42.39.88a7.1,7.1,0,0,0-2.89.45h-6.74l1,2.24A23.85,23.85,0,0,0,502,378a8.87,8.87,0,0,0-3.85,1.58,2.84,2.84,0,0,1-1.93-.9l-1.44-1.35c0,.6-.48.9-1.45.9a7.88,7.88,0,0,1-1.92-.23,9.12,9.12,0,0,0-1.92-.22,12.76,12.76,0,0,0-2.17.22,11,11,0,0,1-2.16.23,2.93,2.93,0,0,1-1.93-.45l-.72.67a3.26,3.26,0,0,1-1.68.23,16.77,16.77,0,0,0-2.89-1.12c-.5-.12-1.59-.28-3.24-.49-2.91-2.25-4.85-3.43-5.77-3.45l-1.44,0a26.41,26.41,0,0,0-2.9.37,21.38,21.38,0,0,1-3.38.37l-43.31-.17a7.24,7.24,0,0,0-2.9.38l-4.8-.12-1.93,0,.9,2.26a24.05,24.05,0,0,0-5.3.55,9,9,0,0,0-3.89,1.47,2.76,2.76,0,0,1-1.9-.94l-1.41-1.38c0,.6-.51.88-1.47.86a8.3,8.3,0,0,1-1.91-.27,8.54,8.54,0,0,0-1.92-.27,11.45,11.45,0,0,0-2.17.17A12.48,12.48,0,0,1,387,377a2.84,2.84,0,0,1-1.91-.5l-.75.66a3.36,3.36,0,0,1-1.68.18,17.3,17.3,0,0,0-2.86-1.19c-.64-.17-2.24-.43-4.79-.79L351,374.74a4.8,4.8,0,0,1-3.4,1.26c-1.29,0-1.94.7-2,2.2l.91,1.82a37.81,37.81,0,0,1,.86,4.06l5.66,4.18a38.6,38.6,0,0,1,4.89,6.19q2.55,3.89,5,3.94a2.06,2.06,0,0,0,1.46-.41,7.19,7.19,0,0,1,2.87.52l4.3,1.45a3,3,0,0,0,1.93-.4l1-.87h.48a17.77,17.77,0,0,0,3.14-.38,19.77,19.77,0,0,1,3.62-.36,3,3,0,0,1,1.91.5l7.18,1.52,13.94.35c0,.3.31.45.95.47a7,7,0,0,0,3.4-1,6.68,6.68,0,0,1,2.91-1.05,34.35,34.35,0,0,1,5.05.35,52.76,52.76,0,0,0,6.49.38l3.84.09c3.42.39,12.09-1.2,21.88,1.29l17.4-.38,3.62,1.12a2.91,2.91,0,0,0,1.93-.45l1-.89h.48a17.65,17.65,0,0,0,3.13-.45,18.26,18.26,0,0,1,3.61-.45,2.92,2.92,0,0,1,1.92.45l7.22,1.34h14c0,.31.31.45,1,.45a6.94,6.94,0,0,0,3.37-1.12,6.74,6.74,0,0,1,2.88-1.12,36.91,36.91,0,0,1,5.06.22,49.32,49.32,0,0,0,6.49.23H526c3.42.3,12.05-1.5,21.9.74l20.09-.93,4.47-.58,3.2-1.32,42.46-.16a7.15,7.15,0,0,0,2.9-.4l4.81.09,1.92,0-.92-2.26c.31,0,.66,0,1-.05,1.45,1.78,2.85,2.72,4.19,2.72a2,2,0,0,0,1.44-.45,7.17,7.17,0,0,1,2.89.45l4.33,1.35a2.92,2.92,0,0,0,1.92-.45l1-.9h.48a17.45,17.45,0,0,0,3.12-.45,19.24,19.24,0,0,1,3.61-.45,3,3,0,0,1,1.93.45l7.21,1.35h14c0,.3.31.45,1,.45a7,7,0,0,0,3.37-1.13,6.7,6.7,0,0,1,2.88-1.12,36.91,36.91,0,0,1,5.06.22,49.32,49.32,0,0,0,6.49.23h3.85c3.42.3,12-1.5,21.9.74l20.09-.93,3.66-.47a4,4,0,0,0,1.38.51l1.45,0a27,27,0,0,0,2.9-.35,20,20,0,0,1,3.38-.33l43.3.61a7,7,0,0,0,2.91-.35l4.8.17,1.93.07-.88-2.28a23.26,23.26,0,0,0,5.31-.49,9.08,9.08,0,0,0,3.91-1.43,2.79,2.79,0,0,1,1.89,1l1.39,1.4c0-.6.51-.88,1.48-.85a8.33,8.33,0,0,1,1.91.29,9.14,9.14,0,0,0,1.91.3,13.31,13.31,0,0,0,2.18-.15,10.65,10.65,0,0,1,2.17-.15,2.93,2.93,0,0,1,1.91.51l.74-.65a3.54,3.54,0,0,1,1.69-.16,17.35,17.35,0,0,0,2.85,1.22c.64.17,2.23.45,4.78.84l24,.84a4.83,4.83,0,0,1,3.41-1.23c1.29.05,2-.68,2-2.17Z"/><path class="cls-5" d="M471.26,219.78v21.51h-42V356.53H404.16V241.29h-42V219.78Z"/><path class="cls-5" d="M527.89,218.4q29.6,0,45.29,10.85t15.69,33.15q0,27.83-27.43,37.7c2.49,3,5.33,6.71,8.48,11s6.38,9,9.67,14.11,6.45,10.26,9.47,15.59,5.73,10.55,8.1,15.68H569.33q-3.75-7.09-8.09-14.3t-8.78-14q-4.44-6.81-8.78-12.83t-8.09-10.76c-1.85.14-3.43.2-4.74.2H515.06v51.7H490.2V221.75a133.85,133.85,0,0,1,19.34-2.66Q519.8,218.4,527.89,218.4Zm1.78,21.51q-7.9,0-14.61.59v44.2h10.86a113.94,113.94,0,0,0,16-1,33.73,33.73,0,0,0,11.55-3.55,17.32,17.32,0,0,0,7-6.91,22.9,22.9,0,0,0,2.37-11.05,22,22,0,0,0-2.37-10.66,17.64,17.64,0,0,0-6.81-6.9A32.16,32.16,0,0,0,543.09,241,76.45,76.45,0,0,0,529.67,239.91Z"/><path class="cls-5" d="M616.5,356.53V219.78h87.81V240.9H641.36v33.74h56v20.72h-56v40.06h67.69v21.11Z"/><path class="cls-5" d="M813.83,356.53Q808.7,348.66,802,340t-14.11-16.77q-7.39-8.1-15.29-15.4A145.54,145.54,0,0,0,757,295.16v61.37H732.13V219.78H757v56.44q6.51-6.51,13.61-13.91t14.11-15q7-7.59,13.32-14.7t11.45-12.83h29.8q-6.51,7.5-13.82,15.59t-15,16.28q-7.69,8.19-15.49,16.28t-15.3,15.39A182.4,182.4,0,0,1,796.56,298q8.6,8.39,16.88,18t15.88,19.93q7.59,10.36,13.91,20.62Z"/><path class="cls-5" d="M364.33,384.38l-4.19,3.26q-2.34-5.59-9.09-9.79t-11.88-4.19H327.51a3.13,3.13,0,0,1-1.86-.7,2.84,2.84,0,0,0-1.4-.7l-2.79,1.4.46-1.4L293,370.4a19.08,19.08,0,0,1-6.53,1.39,24.21,24.21,0,0,1-3.5-.23,29.55,29.55,0,0,0-4-.23H261.33a12.42,12.42,0,0,1,1.4-4.43,57.85,57.85,0,0,1,3.26-6.06l3.73-6.06q1.86-3,2.8-4.43l1.4-3.26a5,5,0,0,0,3.72-1.4V342.9l3.27-1.87-2.33-.46a11.23,11.23,0,0,0,2.33-3.73,6,6,0,0,1,2.79-3.27l-.46-1.39-1.87,1.39v-1.39c-.31-.62.77-2.25,3.27-4.9a40.63,40.63,0,0,1,5.12-4.89L301,297.22c0-2.17,1.08-5.05,3.26-8.62s3.26-6.13,3.26-7.69v-.47a33.84,33.84,0,0,0,4.43-6.05c1.7-2.8,3.5-5.67,5.36-8.63a63.94,63.94,0,0,1,5.83-7.92,14.18,14.18,0,0,1,5.82-4.43l-.93-.47c.93-1.55,1.7-2.33,2.33-2.33l1.4-10.25-.93-.93,5.12-7-3.26-8.39c0-1.87-1.56-4-4.66-6.53l-1-2.36c-.31,0-.55-.83-2.1-.52a35.57,35.57,0,0,1-5.65.09l-30.87.93a6.47,6.47,0,0,0-2.79.47H279l.94,2.33a21.49,21.49,0,0,0-5.13.69,8.43,8.43,0,0,0-3.73,1.64,2.62,2.62,0,0,1-1.86-.94l-1.4-1.39c0,.62-.47.93-1.4.93a6.88,6.88,0,0,1-1.86-.24,8,8,0,0,0-1.87-.23,11.19,11.19,0,0,0-2.1.23,9.78,9.78,0,0,1-2.09.24,2.65,2.65,0,0,1-1.87-.47c-.31.32-.54.55-.7.7s-.7.23-1.63.23a16.61,16.61,0,0,0-2.8-1.16c-.62-.16-2.17-.39-4.66-.7H234.22c-.05-.23-.11-.47-.15-.7a31.82,31.82,0,0,1-.47-5.82,21.57,21.57,0,0,1,.47-5.13l-1.87-1.87a4.2,4.2,0,0,1,.47-1.86,4.27,4.27,0,0,0,.47-1.86h-.94V188.63l-.93-.93.93-1.87a3.15,3.15,0,0,1,.94-2.33c0-.93-.94-1.4-2.8-1.4v-7L222,143.89l.47-2.8c0-4.66-1.8-10.25-5.36-16.78A55.36,55.36,0,0,0,203.77,108v-.47a23.72,23.72,0,0,0-1.63-6.52,28.33,28.33,0,0,1-1.63-5.59,9.62,9.62,0,0,0-3.73-5.13A23.93,23.93,0,0,0,191.42,88a61.71,61.71,0,0,1-6.76-2.57,32.66,32.66,0,0,1-8.38-5.82,11.32,11.32,0,0,1-3.73,1.16c-.86.11-1.33.18-1.44.21l-2.29-1.37a6.85,6.85,0,0,0-3,3.49,46.11,46.11,0,0,0-2.1,5.6q-.93,3-1.63,5.59a22.32,22.32,0,0,1-1.17,3.5,36.78,36.78,0,0,0-3,5.59,9.05,9.05,0,0,0-.69,2.79l.46.47-2.33,5.13c-.93,3.42-2.26,7.54-4,12.35s-3.42,9.4-5.13,13.75S143,145.91,141.79,149s-2,4.66-2.33,4.66L134.8,163l4.19,3.27-9.79,12.12-.93,8.38-2.33-.46-.93,8.39-4.66,6.52-4.66,12.59v.93c0,1.24-.86,2.18-2.57,2.79a21,21,0,0,1-5.82,1.17c-2.18.16-4.13.23-5.83.23H91.92c-.32,0-1.17.08-2.57.23a36.67,36.67,0,0,1-4.43.24c-1.55,0-3.1.08-4.66.23s-2.49.23-2.79.23h-2.8q0,5.6,4.66,7.46a10.41,10.41,0,0,1-3.49.93c-.78,0-1.17.78-1.17,2.33,0,.94.77,2,2.33,3.27a24.12,24.12,0,0,0,5.59,3.26c2.18.93,4.35,1.79,6.53,2.56s3.73,1.33,4.66,1.63h7a2,2,0,0,1,.93.24,2,2,0,0,0,.94.23l.46.47-7,25.16-.46,2.8a6.87,6.87,0,0,1-2.1,4.2,4.64,4.64,0,0,0-1.63,3.72h.93c0,.94-.39,1.4-1.17,1.4s-1.16.78-1.16,2.33l1.4-.93v.93a2.74,2.74,0,0,1-1.17,2.56,2.29,2.29,0,0,0-1.16,2.1,2.62,2.62,0,0,0,1.86.94,1.91,1.91,0,0,1-1.4.46c-1.24,0-3.19,3.34-5.82,10s-5.36,13.9-8.16,21.67l1.4,9.32h7.45l2.8-2.79h2.33a4.16,4.16,0,0,1,2.1.7,2.29,2.29,0,0,1,1.17,2.09v7.46q0,1.86-2.57,4.9c-1.71,2-2.56,3.8-2.56,5.35l-3.27-2.79V338.7l2.8-5.13v-2.33l-7.46,2.33H75.14l-1.4,1.87a33.24,33.24,0,0,1-1.86,5.13c-.63,1.23-1.56,3.1-2.8,5.59l-1.4,5.59v5.13A43.07,43.07,0,0,1,65.58,369a98.52,98.52,0,0,0-3,13.06l-2.33-4.66H58.83c0,2.48-.08,4.66-.24,6.52s-1.32,3.42-3.49,4.66A18.32,18.32,0,0,1,57.66,393a20.09,20.09,0,0,0,4,5.82,8.38,8.38,0,0,1,5.13-1.39v2.33a14.9,14.9,0,0,1,4.19.69,13.48,13.48,0,0,0,3.27.71,1.39,1.39,0,0,0,.93-.47V404c.93,0,1.4-.16,1.4-.46s.3-.78.93-1.4c.93,0,2.87.07,5.82.23s4.74.39,5.36.7h.75l.23-.09c.61-.41,1.09-.75,1.09-1.07a5.64,5.64,0,0,1,1.4-3l1.95-13.16-1.49-.82,5.13-12.58v-.47a2.07,2.07,0,0,1,.7-1.86c.47-.32.7-1.09.7-2.33l-2.8.93a3.8,3.8,0,0,1,.93-2.8,11.26,11.26,0,0,0,1.87-2.79,4.08,4.08,0,0,0-1.87-.47c-.62,0-.93-.47-.93-1.4,1.87-.31,2.8-.93,2.8-1.86a39,39,0,0,1,3.73-6.53c1.86-2.79,5.14-.93,5.14-1.86l-1.39-.93a11.16,11.16,0,0,1,1.63-6.53,28.6,28.6,0,0,1,3.26-4c1.08-1.09-.18-5.9.91-7A6,6,0,0,0,114,328q0-1.86-.93-1.86h-.47c0-1.25.47-1.87,1.4-1.87a2.73,2.73,0,0,0,2.33-1.39h-2.79q0-4.2,2.79-10A118,118,0,0,0,121,301.88v-4.19a41.35,41.35,0,0,1,2.8-7.69,21.93,21.93,0,0,1,4.2-6.29,4,4,0,0,1-1.4-2.8V280a2,2,0,0,1,.23-.93,2.14,2.14,0,0,0,.23-.94l.94-1.39a75.53,75.53,0,0,0,4.19-7.46,18.52,18.52,0,0,0,2.33-7.93h4.66l.93-1.39-2.79-.94,1.86-3.73a9.61,9.61,0,0,0,.47-3.72,38.49,38.49,0,0,1,.46-5.83,18,18,0,0,1,1.63-5.36c.78-1.55,17.75-2.33,19.61-2.33H166a26.36,26.36,0,0,1,4.66.7,28.78,28.78,0,0,0,6.06.7,11.85,11.85,0,0,0,3.73-.47,12.46,12.46,0,0,1,3.73-.46h4.19c1.87,0,3.8.08,5.83.23a30.89,30.89,0,0,1,5.59.93c1.7.47,2.72,1,3,1.63v7.46c0,1.86.07,3.66.23,5.36s.24,3,.24,4l1.86-6.06.93,2.33.47-4.19.93,1.4.93,5.59a22.73,22.73,0,0,1,.47,4.43,10.87,10.87,0,0,0,.47,3.49.93.93,0,0,1-.24.7,1,1,0,0,0-.23.7c0,.32.07.47.23.47s.24.31.24.93q-3.27-.93-3.27-2.8c0-1.55.31-2.33.93-2.33a10.36,10.36,0,0,1-1.39-1.63,2.14,2.14,0,0,0-1.87-.7,33.28,33.28,0,0,0,1.4,10,35.15,35.15,0,0,1,1.4,10.49,1.87,1.87,0,0,1-.7,1.16,2.25,2.25,0,0,0-.7,1.64q0,8.85,8.39,10.72a4,4,0,0,0,3.26-1.17,3.38,3.38,0,0,1,2.8-1.16q.93,0,.93.69c0,.47.62.7,1.87.7h7.92c.62,0,1.16.63,1.63,1.87s1,1.86,1.63,1.86h2.33A4.86,4.86,0,0,0,238,297a6.83,6.83,0,0,0,.23-2.56c1.24,0,1.94.46,2.1,1.39s.39,1.4.7,1.4a4.16,4.16,0,0,1,2.1-4q2.09-1.15,2.09-4.43a11,11,0,0,0-.7-3,14.06,14.06,0,0,1-.7-4.42l-.93-1.4a1.35,1.35,0,0,0,.47-.93,1.08,1.08,0,0,0-.7-1.17,4.47,4.47,0,0,1-1.63-1.16V263.2c-1.56-2.49-2.49-4-2.8-4.66s-.46-2.64-.46-6.06l.93-1.87c0-.62-.16-1-.47-1.16s-.46-.7-.46-1.63v-.47a.82.82,0,0,1,.93-.93,4.69,4.69,0,0,0-1.63-3.73,6.35,6.35,0,0,1-.58-.58,1.61,1.61,0,0,0,.58-.35,6.5,6.5,0,0,1,2.79.47l4.2,1.39a2.7,2.7,0,0,0,1.86-.46l.93-.93h.47a16.14,16.14,0,0,0,3-.47,17.46,17.46,0,0,1,3.5-.47,2.74,2.74,0,0,1,1.86.47l7,1.4h13.52c0,.31.3.46.93.46a6.36,6.36,0,0,0,3.26-1.16,6.26,6.26,0,0,1,2.8-1.17,30.71,30.71,0,0,1,4.89.24,46.4,46.4,0,0,0,6.29.23h3.73q-8.38,14.44-15.38,24.7a164.15,164.15,0,0,0-13,23.31v.93q-.93,1.86-2.33,4.19a19.11,19.11,0,0,1-2.79,3.73l-5.6,3.73-2.33,5.13.93,2.33-2.33.93-.93-.47-2.8.93-.46,5.13-2.8,4.19-3.73,6.53h1.87l-.47,2.33-2.33.93-1.4-.46L238,338.7l-2.8,2.8-2.79,4.19a65.37,65.37,0,0,1-7.23,13.52,47.08,47.08,0,0,1-6.75,7.45,53.67,53.67,0,0,0-5.13,4.9q-1.87,2.1-1.87,6.29V383l-1.4,7a21.18,21.18,0,0,0,7.69,9.32c3.57,2.49,5.37,4,5.37,4.66l6.52,1.87,7-.47,22.84.93a4.86,4.86,0,0,0,2.56-.7,9.51,9.51,0,0,0,1.63-1.16l1.87-.47a31.15,31.15,0,0,1,10.72-1.86,71.85,71.85,0,0,1,10,.69,70.14,70.14,0,0,0,10,.71l1.86-.94a36.63,36.63,0,0,1,10.72-2.33c4-.3,7.15-.46,9.32-.46a22.26,22.26,0,0,1,3,.23,20.87,20.87,0,0,0,3,.23h1.4c.62,0,.93-.15.93-.46h4.2c1.55,0,3.33.08,5.36.23s3.8.23,5.36.23a21.06,21.06,0,0,0,6.29-.93,18.53,18.53,0,0,1,5.36-.93v1.4l1.86.46-.93,1.4h2.33a14.34,14.34,0,0,0,4.89-.93,17,17,0,0,1,5.83-.93v-7Zm-295.72-2.8c-.62,0-.93-.63-.93-1.86,0-1.56.31-2.33.93-2.33.93,0,1.4.77,1.4,2.33C70,381,69.54,381.58,68.61,381.58Zm4.2-14.45-2.8,7v-7a12.45,12.45,0,0,1,.93-4.66q.93-2.34,1.87-4.66Zm12.11-20.51c1.56,0,2.34.94,2.34,2.8a2.07,2.07,0,0,1-2.34,2.33c-1.24,0-1.86-.78-1.86-2.33C83.06,347.56,83.68,346.62,84.92,346.62Zm-7.45,17.71.93-2.79a28.19,28.19,0,0,0,.93-4.66l2.33-2.8v13.05a10.52,10.52,0,0,1-.7,3.73,12,12,0,0,0-.7,4.2l-2.79,2.33ZM87,400.69H80.26l-.46-.93c0-.32.15-.47.46-.47h4.43c2.64,0,4,.15,4,.47C88.65,400.38,88.11,400.69,87,400.69Zm2.77-1.87v-1.39l.93,1.39Zm.26-44.74c-1.24,0-1.86-.78-1.86-2.33,0-1.86.62-2.8,1.86-2.8,1.55,0,2.33.94,2.33,2.8A2.06,2.06,0,0,1,90.05,354.08ZM196.32,211a25.15,25.15,0,0,1-6.76,2.1,46.28,46.28,0,0,1-7.93.7H169.75l-18.44-.94.93-5.59q5.13-11.64,10.25-27.26c3.42-10.41,6-23.81,9.32-27.74.06-.06,1.54-.34,3.09-.86a14.17,14.17,0,0,0,2.57-1.71c1.33-1,.39-2.16,3.14-2.41,3.71-.34,3.84.37,5.75,2.12s1.89,4.91,2,5.19a7.22,7.22,0,0,1,.93,2.8v.93l5.13,12.59-.93,3.26a10.32,10.32,0,0,0,1.63,5.13,11,11,0,0,1,1.63,5.59c0,.93-.16,1.48-.46,1.63s-.47.55-.47,1.17v.93l.93,3.73a3.18,3.18,0,0,1-2.33.93l2.33.47v.93a2,2,0,0,1-.46,1.4,1.84,1.84,0,0,0-.47,1.39h.93v2.8a.41.41,0,0,0,.47.47v6.52h1.86Q199.11,209.61,196.32,211Zm13.05,66.65v-4.2a2.75,2.75,0,0,1,1.39,2.33,3.28,3.28,0,0,1-.23,1.4,3.19,3.19,0,0,0-.23,1.4h-.93Zm3,8.62a10.38,10.38,0,0,0-.23,1.63c-1.56,0-2.33-1.08-2.33-3.26v-1.4q0-1.86.93-1.86c1.24,0,1.87.93,1.87,2.79A10.4,10.4,0,0,1,212.39,286.27Zm57.33,5.83c.31,0,.47.07.47.23s.15.23.46.23.47.47.47,1.4c0,1.56-.47,2.33-1.4,2.33s-1.4-.62-1.4-1.86C268.32,292.87,268.79,292.1,269.72,292.1ZM235.7,355l-2.8,2.8a8,8,0,0,0-2.33,2.33c-.93,1.25-1.94,2.72-3,4.43s-2.09,3.34-3,4.89a20.07,20.07,0,0,0-1.86,3.73l.47-3.73,5.12-11.18c.31-1.24,1.55-2.49,3.73-3.73s3.57-1.87,4.2-1.87Zm3.26-4.19a1.09,1.09,0,0,1-1.16-.93,6.21,6.21,0,0,1-.24-1.4c0-1.24.31-1.87.94-1.87.3,0,.46.08.46.24s.15.23.47.23c.62,0,.93.47.93,1.4C240.36,350.05,239.89,350.82,239,350.82ZM260.4,315.4v.46c-.63,0-.93-.61-.93-1.86l.93-.93a.42.42,0,0,0,.47-.47.42.42,0,0,1,.46.47,2,2,0,0,1-.46,1.4A1.35,1.35,0,0,1,260.4,315.4Z"/><path class="cls-1" d="M55,483.08V438.46H80.71v3.79H59.33v15.52H78.39v3.74H59.33v17.77h23v3.8Z"/><path class="cls-1" d="M101.4,469c-.94,1.13-1.88,2.3-2.82,3.54s-1.86,2.45-2.73,3.65-1.68,2.41-2.41,3.64-1.33,2.31-1.83,3.26H87.27A84.15,84.15,0,0,1,93,474q3-4.16,6.18-8.17l-11.24-16h4.89l8.7,12.6,8.68-12.6h4.58l-11,15.84q1.4,1.75,3,3.82t3.2,4.28c1.07,1.48,2.1,3,3.1,4.6s1.92,3.17,2.75,4.75h-4.51c-.51-.95-1.13-2-1.86-3.13s-1.55-2.32-2.43-3.55-1.81-2.49-2.78-3.76S102.31,470.15,101.4,469Z"/><path class="cls-1" d="M127.32,495h-4.19V451a38.45,38.45,0,0,1,4.77-1.23,39,39,0,0,1,7.34-.58,17.91,17.91,0,0,1,6.66,1.19,14.55,14.55,0,0,1,5.16,3.45,15.72,15.72,0,0,1,3.34,5.47,20.74,20.74,0,0,1,1.19,7.28,23.41,23.41,0,0,1-1,7,15.82,15.82,0,0,1-2.93,5.48,13.56,13.56,0,0,1-4.74,3.57,15.11,15.11,0,0,1-6.4,1.29,15.61,15.61,0,0,1-5.7-.94,14.74,14.74,0,0,1-3.51-1.77Zm0-17.9a14,14,0,0,0,1.45,1,12.84,12.84,0,0,0,2,1,16.06,16.06,0,0,0,2.51.74,13.64,13.64,0,0,0,2.83.29,11.33,11.33,0,0,0,5.18-1.06,9,9,0,0,0,3.38-2.9,12.13,12.13,0,0,0,1.87-4.31,22.89,22.89,0,0,0,.58-5.25q0-6.57-3.28-10.08a11.35,11.35,0,0,0-8.69-3.51,34.83,34.83,0,0,0-5,.29,19.91,19.91,0,0,0-2.87.61Z"/><path class="cls-1" d="M169.11,483.66a14.66,14.66,0,0,1-3.71-.55,6.68,6.68,0,0,1-2.64-1.48,6.49,6.49,0,0,1-1.61-2.58,12.37,12.37,0,0,1-.54-4V433.88l4.18-.77V475a8.72,8.72,0,0,0,.29,2.48,3.41,3.41,0,0,0,.87,1.48,3.48,3.48,0,0,0,1.51.81,20.28,20.28,0,0,0,2.23.45Z"/><path class="cls-1" d="M205.49,466.46a21.58,21.58,0,0,1-1.13,7.15,15.73,15.73,0,0,1-3.16,5.47,14.18,14.18,0,0,1-4.79,3.51,15.49,15.49,0,0,1-12.24,0,14.18,14.18,0,0,1-4.79-3.51,15.73,15.73,0,0,1-3.16-5.47,23.15,23.15,0,0,1,0-14.29,16.2,16.2,0,0,1,3.16-5.51,14.27,14.27,0,0,1,4.79-3.54,15.61,15.61,0,0,1,12.24,0,14.27,14.27,0,0,1,4.79,3.54,16.2,16.2,0,0,1,3.16,5.51A21.52,21.52,0,0,1,205.49,466.46Zm-4.45,0q0-6.24-2.9-9.94a10.17,10.17,0,0,0-15.71,0q-2.9,3.71-2.89,9.94t2.89,9.92a10.24,10.24,0,0,0,15.71,0Q201.05,472.71,201,466.46Z"/><path class="cls-1" d="M225.89,449.14a22,22,0,0,1,3.9.33,12,12,0,0,1,2.54.64l-.83,3.61a8.74,8.74,0,0,0-2.1-.55,23.15,23.15,0,0,0-4.15-.29,20.12,20.12,0,0,0-4.34.38,12,12,0,0,0-2.16.65v29.17h-4.19V451.33a31.9,31.9,0,0,1,4.45-1.45A27.68,27.68,0,0,1,225.89,449.14Z"/><path class="cls-1" d="M236.65,466.4a21.3,21.3,0,0,1,1.25-7.63,16.71,16.71,0,0,1,3.29-5.44,12.88,12.88,0,0,1,4.63-3.25A14.1,14.1,0,0,1,251.2,449a12.53,12.53,0,0,1,9.75,4q3.65,4,3.64,12.3,0,.51,0,1a9.06,9.06,0,0,1-.1,1H241.09q.19,6.12,3,9.4t9,3.29a18.15,18.15,0,0,0,5.41-.65,23.59,23.59,0,0,0,2.9-1.09l.77,3.6a17.41,17.41,0,0,1-3.38,1.23,21.46,21.46,0,0,1-5.83.7,19.57,19.57,0,0,1-7.47-1.28,13.32,13.32,0,0,1-5.08-3.61,14.23,14.23,0,0,1-2.9-5.5A25.71,25.71,0,0,1,236.65,466.4Zm23.63-2.64c-.09-3.48-.9-6.18-2.45-8.11a7.92,7.92,0,0,0-6.57-2.9,8.74,8.74,0,0,0-4,.9,10.21,10.21,0,0,0-3.09,2.42,11.06,11.06,0,0,0-2.06,3.51,14,14,0,0,0-.87,4.18Z"/><path class="cls-1" d="M285.26,449.14a21.94,21.94,0,0,1,3.89.33,11.94,11.94,0,0,1,2.55.64l-.84,3.61a8.62,8.62,0,0,0-2.09-.55,23.23,23.23,0,0,0-4.15-.29,20.16,20.16,0,0,0-4.35.38,12.28,12.28,0,0,0-2.16.65v29.17h-4.18V451.33a31.7,31.7,0,0,1,4.44-1.45A27.77,27.77,0,0,1,285.26,449.14Z"/><path class="cls-1" d="M321.12,483.66a14.58,14.58,0,0,1-3.7-.55,6.68,6.68,0,0,1-2.64-1.48,6.38,6.38,0,0,1-1.61-2.58,12.35,12.35,0,0,1-.55-4V433.88l4.19-.77V475a8.72,8.72,0,0,0,.29,2.48,3.22,3.22,0,0,0,.87,1.48,3.42,3.42,0,0,0,1.51.81,19.59,19.59,0,0,0,2.22.45Z"/><path class="cls-1" d="M327.11,466.4a21.07,21.07,0,0,1,1.26-7.63,16.69,16.69,0,0,1,3.28-5.44,12.92,12.92,0,0,1,4.64-3.25,14,14,0,0,1,5.37-1.06,12.57,12.57,0,0,1,9.76,4q3.63,4,3.63,12.3,0,.51,0,1a9.06,9.06,0,0,1-.1,1H331.55q.19,6.12,3,9.4t9,3.29a18.15,18.15,0,0,0,5.41-.65,23,23,0,0,0,2.9-1.09l.77,3.6a17.41,17.41,0,0,1-3.38,1.23,21.41,21.41,0,0,1-5.83.7A19.51,19.51,0,0,1,336,482.5a13.28,13.28,0,0,1-5.09-3.61,14.23,14.23,0,0,1-2.9-5.5A25.71,25.71,0,0,1,327.11,466.4Zm23.63-2.64c-.09-3.48-.9-6.18-2.45-8.11a7.92,7.92,0,0,0-6.56-2.9,8.76,8.76,0,0,0-4,.9,10.21,10.21,0,0,0-3.09,2.42,11.06,11.06,0,0,0-2.06,3.51,14.61,14.61,0,0,0-.87,4.18Z"/><path class="cls-1" d="M379.07,451c1.24-.35,2.86-.73,4.86-1.16a38,38,0,0,1,7.76-.65q6.31,0,9.14,3.67.33-.26,1.26-.87a18.27,18.27,0,0,1,2.35-1.25,18.86,18.86,0,0,1,3.31-1.1,18.39,18.39,0,0,1,4.22-.45,14.34,14.34,0,0,1,6.15,1.13,8.53,8.53,0,0,1,3.64,3.16,12.63,12.63,0,0,1,1.74,4.86,39.52,39.52,0,0,1,.45,6.18v18.61h-4.19V465.82a47.15,47.15,0,0,0-.29-5.7,10.88,10.88,0,0,0-1.16-4,5.65,5.65,0,0,0-2.48-2.38,9.29,9.29,0,0,0-4.18-.81,15.78,15.78,0,0,0-3.51.36,14,14,0,0,0-2.74.87,11.28,11.28,0,0,0-1.9,1c-.49.34-.84.6-1.06.77a19.36,19.36,0,0,1,.87,3.77,32.56,32.56,0,0,1,.29,4.41v18.93h-4.18V465.82a49.29,49.29,0,0,0-.29-5.7,10.68,10.68,0,0,0-1.19-4,5.87,5.87,0,0,0-2.55-2.38,9.85,9.85,0,0,0-4.34-.81,35,35,0,0,0-5.12.32,14.11,14.11,0,0,0-2.68.58v29.24h-4.18Z"/><path class="cls-1" d="M463,466.46a21.58,21.58,0,0,1-1.13,7.15,15.87,15.87,0,0,1-3.15,5.47,14.12,14.12,0,0,1-4.8,3.51,15.47,15.47,0,0,1-12.23,0,14.12,14.12,0,0,1-4.8-3.51,15.87,15.87,0,0,1-3.15-5.47,23.15,23.15,0,0,1,0-14.29,16.35,16.35,0,0,1,3.15-5.51,14.21,14.21,0,0,1,4.8-3.54,15.58,15.58,0,0,1,12.23,0,14.21,14.21,0,0,1,4.8,3.54,16.35,16.35,0,0,1,3.15,5.51A21.52,21.52,0,0,1,463,466.46Zm-4.44,0q0-6.24-2.9-9.94a10.17,10.17,0,0,0-15.71,0q-2.89,3.71-2.9,9.94t2.9,9.92a10.24,10.24,0,0,0,15.71,0Q458.59,472.71,458.59,466.46Z"/><path class="cls-1" d="M472.11,451c1.24-.35,2.92-.73,5-1.16a39.27,39.27,0,0,1,7.73-.65,16.09,16.09,0,0,1,6.34,1.1,9.81,9.81,0,0,1,4.06,3.12,12.85,12.85,0,0,1,2.15,4.86,28.16,28.16,0,0,1,.65,6.25v18.61h-4.19V465.82a31.73,31.73,0,0,0-.48-6,10,10,0,0,0-1.61-4,6.26,6.26,0,0,0-3-2.22,13.51,13.51,0,0,0-4.61-.68,36,36,0,0,0-5.12.32,16.55,16.55,0,0,0-2.8.58v29.24h-4.18Z"/><path class="cls-1" d="M535.21,482.05a38.65,38.65,0,0,1-4.77,1.22,38.15,38.15,0,0,1-7.34.58,18,18,0,0,1-6.66-1.19,14.38,14.38,0,0,1-5.15-3.45,15.5,15.5,0,0,1-3.35-5.47,20.74,20.74,0,0,1-1.19-7.28,23.09,23.09,0,0,1,1-7,15.81,15.81,0,0,1,2.93-5.51,13.28,13.28,0,0,1,4.73-3.6,15.16,15.16,0,0,1,6.41-1.29,15.82,15.82,0,0,1,5.69.93,15.53,15.53,0,0,1,3.51,1.77v-17.9l4.19-.77ZM531,455.84a14.48,14.48,0,0,0-1.45-1,14.15,14.15,0,0,0-2-1,16.19,16.19,0,0,0-2.52-.74,13,13,0,0,0-2.83-.29A11.06,11.06,0,0,0,517,454a9.35,9.35,0,0,0-3.38,2.93,12.37,12.37,0,0,0-1.87,4.32,22.74,22.74,0,0,0-.58,5.24q0,6.57,3.28,10.08a11.35,11.35,0,0,0,8.7,3.51,34.93,34.93,0,0,0,5-.29,18.72,18.72,0,0,0,2.86-.61Z"/><path class="cls-1" d="M544.29,466.4a21.08,21.08,0,0,1,1.25-7.63,16.71,16.71,0,0,1,3.29-5.44,12.88,12.88,0,0,1,4.63-3.25,14.1,14.1,0,0,1,5.38-1.06,12.53,12.53,0,0,1,9.75,4q3.64,4,3.64,12.3,0,.51,0,1c0,.35-.06.67-.1,1H548.73q.19,6.12,3,9.4t9,3.29a18.19,18.19,0,0,0,5.41-.65,22.68,22.68,0,0,0,2.89-1.09l.78,3.6a17.41,17.41,0,0,1-3.38,1.23,21.51,21.51,0,0,1-5.83.7,19.57,19.57,0,0,1-7.47-1.28,13.35,13.35,0,0,1-5.09-3.61,14.21,14.21,0,0,1-2.89-5.5A25.33,25.33,0,0,1,544.29,466.4Zm23.63-2.64q-.13-5.22-2.45-8.11a8,8,0,0,0-6.57-2.9,8.74,8.74,0,0,0-4,.9,10.21,10.21,0,0,0-3.09,2.42,11.06,11.06,0,0,0-2.06,3.51,14,14,0,0,0-.87,4.18Z"/><path class="cls-1" d="M594.25,466.4a21.3,21.3,0,0,1,1.25-7.63,16.88,16.88,0,0,1,3.29-5.44,13,13,0,0,1,4.63-3.25A14.13,14.13,0,0,1,608.8,449a12.57,12.57,0,0,1,9.76,4q3.63,4,3.63,12.3,0,.51,0,1a9.06,9.06,0,0,1-.1,1H598.69q.19,6.12,3,9.4t9,3.29a18.15,18.15,0,0,0,5.41-.65,23,23,0,0,0,2.9-1.09l.77,3.6a17.41,17.41,0,0,1-3.38,1.23,21.46,21.46,0,0,1-5.83.7,19.6,19.6,0,0,1-7.47-1.28,13.32,13.32,0,0,1-5.08-3.61,14.23,14.23,0,0,1-2.9-5.5A25.71,25.71,0,0,1,594.25,466.4Zm23.63-2.64c-.09-3.48-.9-6.18-2.45-8.11a7.92,7.92,0,0,0-6.56-2.9,8.76,8.76,0,0,0-4,.9,10.21,10.21,0,0,0-3.09,2.42,11.06,11.06,0,0,0-2.06,3.51,14.61,14.61,0,0,0-.87,4.18Z"/><path class="cls-1" d="M631.53,451c1.24-.35,2.92-.73,5-1.16a39.27,39.27,0,0,1,7.73-.65,16.09,16.09,0,0,1,6.34,1.1,9.75,9.75,0,0,1,4.06,3.12,12.85,12.85,0,0,1,2.15,4.86,28.16,28.16,0,0,1,.65,6.25v18.61h-4.19V465.82a31.73,31.73,0,0,0-.48-6,10,10,0,0,0-1.61-4,6.26,6.26,0,0,0-3-2.22,13.51,13.51,0,0,0-4.61-.68,35.74,35.74,0,0,0-5.11.32,16.51,16.51,0,0,0-2.81.58v29.24h-4.18Z"/><path class="cls-1" d="M675,480.11a13.1,13.1,0,0,0,6-1.19,4.15,4.15,0,0,0,2.34-4,5.8,5.8,0,0,0-.41-2.32,4.6,4.6,0,0,0-1.39-1.74,11.91,11.91,0,0,0-2.54-1.48c-1.05-.47-2.35-1-3.9-1.67-1.24-.52-2.42-1-3.54-1.58a14.78,14.78,0,0,1-3-1.87,8,8,0,0,1-2.06-2.54,7.8,7.8,0,0,1-.77-3.61,8.07,8.07,0,0,1,3.06-6.56c2-1.68,4.84-2.51,8.4-2.51a23.18,23.18,0,0,1,5.63.57,19.71,19.71,0,0,1,3.13,1l-1,3.74a25.61,25.61,0,0,0-2.61-1,17.07,17.07,0,0,0-5.37-.64,11.53,11.53,0,0,0-2.68.29,7.09,7.09,0,0,0-2.22.9,4.75,4.75,0,0,0-1.54,1.55,4.21,4.21,0,0,0-.58,2.29,4.91,4.91,0,0,0,.51,2.32,5.11,5.11,0,0,0,1.52,1.71,12.05,12.05,0,0,0,2.44,1.38c1,.43,2.07.9,3.32,1.41s2.52,1,3.7,1.57a13.82,13.82,0,0,1,3.12,1.93,8.9,8.9,0,0,1,2.19,2.71,8.35,8.35,0,0,1,.84,4,7.74,7.74,0,0,1-3.38,6.82c-2.25,1.55-5.34,2.32-9.24,2.32a23.38,23.38,0,0,1-6.7-.74A25.39,25.39,0,0,1,665.2,482l1.1-3.8a5.85,5.85,0,0,0,.83.42c.43.19,1,.41,1.74.65a19.53,19.53,0,0,0,2.61.61A21.41,21.41,0,0,0,675,480.11Z"/><path class="cls-1" d="M693.73,466.4a21.08,21.08,0,0,1,1.25-7.63,16.71,16.71,0,0,1,3.29-5.44,12.88,12.88,0,0,1,4.63-3.25,14.1,14.1,0,0,1,5.38-1.06,12.53,12.53,0,0,1,9.75,4q3.65,4,3.64,12.3,0,.51,0,1c0,.35-.06.67-.1,1H698.17q.2,6.12,3,9.4t9,3.29a18.19,18.19,0,0,0,5.41-.65,22.68,22.68,0,0,0,2.89-1.09l.78,3.6a17.41,17.41,0,0,1-3.38,1.23,21.51,21.51,0,0,1-5.83.7,19.57,19.57,0,0,1-7.47-1.28,13.35,13.35,0,0,1-5.09-3.61,14.21,14.21,0,0,1-2.89-5.5A25.71,25.71,0,0,1,693.73,466.4Zm23.63-2.64c-.09-3.48-.9-6.18-2.45-8.11a8,8,0,0,0-6.57-2.9,8.74,8.74,0,0,0-4,.9,10.21,10.21,0,0,0-3.09,2.42,11.06,11.06,0,0,0-2.06,3.51,14,14,0,0,0-.87,4.18Z"/><path class="cls-1" d="M731,451c1.24-.35,2.86-.73,4.86-1.16a37.93,37.93,0,0,1,7.76-.65q6.3,0,9.14,3.67c.21-.17.63-.46,1.25-.87a19.72,19.72,0,0,1,2.35-1.25,19,19,0,0,1,3.32-1.1,18.33,18.33,0,0,1,4.22-.45,14.34,14.34,0,0,1,6.15,1.13,8.59,8.59,0,0,1,3.64,3.16,12.79,12.79,0,0,1,1.73,4.86,39.52,39.52,0,0,1,.45,6.18v18.61H771.7V465.82a49.29,49.29,0,0,0-.29-5.7,10.88,10.88,0,0,0-1.16-4,5.7,5.7,0,0,0-2.48-2.38,9.31,9.31,0,0,0-4.18-.81,15.78,15.78,0,0,0-3.51.36,13.61,13.61,0,0,0-2.74.87,10.9,10.9,0,0,0-1.9,1c-.49.34-.85.6-1.06.77a20.94,20.94,0,0,1,.87,3.77,32.56,32.56,0,0,1,.29,4.41v18.93h-4.19V465.82a47.15,47.15,0,0,0-.29-5.7,10.5,10.5,0,0,0-1.19-4,5.84,5.84,0,0,0-2.54-2.38,9.9,9.9,0,0,0-4.35-.81,35.1,35.1,0,0,0-5.12.32,14.14,14.14,0,0,0-2.67.58v29.24H731Z"/><path class="cls-1" d="M790.76,451.78a15.53,15.53,0,0,1,3.51-1.77,15.82,15.82,0,0,1,5.69-.93,15.16,15.16,0,0,1,6.41,1.29,13.28,13.28,0,0,1,4.73,3.6,15.81,15.81,0,0,1,2.93,5.51,23.09,23.09,0,0,1,1,7,21,21,0,0,1-1.19,7.28,15.65,15.65,0,0,1-3.35,5.47,14.38,14.38,0,0,1-5.15,3.45,18,18,0,0,1-6.66,1.19,35.86,35.86,0,0,1-12.11-1.8V433.88l4.19-.77Zm0,27.37a18.72,18.72,0,0,0,2.86.61,34.93,34.93,0,0,0,5,.29,11.32,11.32,0,0,0,8.69-3.51q3.29-3.51,3.29-10.08a23.31,23.31,0,0,0-.58-5.24,12.37,12.37,0,0,0-1.87-4.32,9.35,9.35,0,0,0-3.38-2.93,11.06,11.06,0,0,0-5.18-1.09,13,13,0,0,0-2.83.29,16.19,16.19,0,0,0-2.52.74,14.15,14.15,0,0,0-2,1,14.48,14.48,0,0,0-1.45,1Z"/><path class="cls-1" d="M832.54,483.66a14.58,14.58,0,0,1-3.7-.55,6.68,6.68,0,0,1-2.64-1.48,6.38,6.38,0,0,1-1.61-2.58,12.35,12.35,0,0,1-.55-4V433.88l4.19-.77V475a8.72,8.72,0,0,0,.29,2.48,3.22,3.22,0,0,0,.87,1.48,3.48,3.48,0,0,0,1.51.81,19.59,19.59,0,0,0,2.22.45Z"/><path class="cls-1" d="M838.53,466.4a21.07,21.07,0,0,1,1.26-7.63,16.69,16.69,0,0,1,3.28-5.44,12.92,12.92,0,0,1,4.64-3.25,14.08,14.08,0,0,1,5.37-1.06,12.57,12.57,0,0,1,9.76,4q3.63,4,3.64,12.3c0,.34,0,.68,0,1s-.05.67-.09,1H843q.19,6.12,3,9.4t9,3.29a18.15,18.15,0,0,0,5.41-.65,23,23,0,0,0,2.9-1.09l.77,3.6a17.15,17.15,0,0,1-3.38,1.23,21.38,21.38,0,0,1-5.82.7,19.57,19.57,0,0,1-7.47-1.28,13.35,13.35,0,0,1-5.09-3.61,14.23,14.23,0,0,1-2.9-5.5A25.71,25.71,0,0,1,838.53,466.4Zm23.63-2.64q-.12-5.22-2.45-8.11a7.92,7.92,0,0,0-6.56-2.9,8.76,8.76,0,0,0-4,.9,10.21,10.21,0,0,0-3.09,2.42,11.06,11.06,0,0,0-2.06,3.51,14.61,14.61,0,0,0-.87,4.18Z"/></svg>