<svg id="Calque_1" data-name="Calque 1" xmlns="http://www.w3.org/2000/svg" viewBox="0 0 875 499.85"><defs><style>.cls-1{fill:none;stroke:#fff;stroke-miterlimit:10;stroke-width:5px;}.cls-2{fill:#fff;}</style></defs><title>Plan de travail 4</title><circle class="cls-1" cx="167.78" cy="169.84" r="92.02"/><path class="cls-1" d="M167.78,56.72a113.8,113.8,0,0,0-15.09,1.05l15.09-22.65,15.09,22.65A113.92,113.92,0,0,0,167.78,56.72Z"/><path class="cls-1" d="M236.44,79.8l26.74-5.35-5.35,26.73A114.57,114.57,0,0,0,236.44,79.8Z"/><path class="cls-1" d="M280.05,154.76l22.64,15.09L280.05,185a112.3,112.3,0,0,0,1-15.1A110.53,110.53,0,0,0,280.05,154.76Z"/><path class="cls-1" d="M257.83,238.52l5.35,26.73-26.74-5.34A114.92,114.92,0,0,0,257.83,238.52Z"/><path class="cls-1" d="M167.77,283.16a115.8,115.8,0,0,0,15.1-1l-15.1,22.64-15.09-22.64A115.53,115.53,0,0,0,167.77,283.16Z"/><path class="cls-1" d="M99.11,259.91l-26.75,5.34,5.36-26.73A114.32,114.32,0,0,0,99.11,259.91Z"/><path class="cls-1" d="M55.48,184.93,32.85,169.85l22.63-15.08a110.91,110.91,0,0,0,0,30.16Z"/><path class="cls-1" d="M77.72,101.17,72.36,74.45,99.1,79.8A114.46,114.46,0,0,0,77.72,101.17Z"/><polygon class="cls-2" points="83.43 57.53 89.03 53.53 122.31 60.22 141.25 31.9 147.97 30.78 124.62 65.75 83.43 57.53"/><polygon class="cls-2" points="187.51 30.82 194.3 31.93 213.15 60.16 246.55 53.47 252.1 57.41 210.89 65.71 187.51 30.82"/><polygon class="cls-2" points="280.13 85.51 284.13 91.1 277.45 124.39 305.76 143.32 306.89 150.04 271.92 126.7 280.13 85.51"/><polygon class="cls-2" points="306.83 189.6 305.71 196.39 277.47 215.22 284.13 248.62 280.18 254.17 271.92 212.94 306.83 189.6"/><polygon class="cls-2" points="252.07 282.22 246.47 286.22 213.2 279.5 194.24 307.8 187.52 308.92 210.89 273.97 252.07 282.22"/><polygon class="cls-2" points="148.06 308.86 141.28 307.74 122.43 279.51 89.03 286.19 83.48 282.24 124.7 273.96 148.06 308.86"/><polygon class="cls-2" points="55.3 254.15 51.32 248.55 58.11 215.29 29.86 196.26 28.76 189.54 63.65 212.99 55.3 254.15"/><polygon class="cls-2" points="28.75 150.12 29.87 143.34 58.1 124.49 51.43 91.09 55.37 85.54 63.65 126.76 28.75 150.12"/><path class="cls-2" d="M329.49,169.86c0-89.17-72.56-161.71-161.69-161.71S6.07,80.69,6.07,169.86,78.61,331.55,167.8,331.55,329.49,259,329.49,169.86ZM167.8,319.71c-82.66,0-149.87-67.22-149.89-149.85S85.14,20,167.8,20,317.65,87.21,317.65,169.86,250.41,319.71,167.8,319.71Z"/><path class="cls-2" d="M868.55,396.74a33.76,33.76,0,0,1-.81-4.07l-5.62-4.24a38.7,38.7,0,0,1-4.83-6.24c-1.66-2.61-3.3-3.94-4.9-4a2.06,2.06,0,0,0-1.46.4,7.29,7.29,0,0,1-2.87-.55l-4.28-1.5a3,3,0,0,0-1.94.38l-1,.87-.48,0a17.66,17.66,0,0,0-3.14.34,18.66,18.66,0,0,1-3.63.32,3,3,0,0,1-1.9-.51l-7.17-1.6-13.94-.49c0-.3-.3-.46-.94-.48a6.88,6.88,0,0,0-3.41,1,6.59,6.59,0,0,1-2.93,1,34.76,34.76,0,0,1-5-.4,52.9,52.9,0,0,0-6.48-.45l-3.85-.13c-3.41-.43-12.1,1.08-21.86-1.51l-20.11.23-4.48.42-.12,0a4.11,4.11,0,0,0-1.44-.48h-1.44a28.25,28.25,0,0,0-2.89.45,21.5,21.5,0,0,1-3.36.45l-43.3.9a7.1,7.1,0,0,0-2.89.45h-6.74l1,2.25c-.42,0-.87,0-1.31.08a5.13,5.13,0,0,0-3.46-2,2.06,2.06,0,0,0-1.45.42,7.12,7.12,0,0,1-2.88-.5l-4.31-1.42a2.94,2.94,0,0,0-1.93.42l-1,.88h-.48a17.16,17.16,0,0,0-3.13.4,19.38,19.38,0,0,1-3.62.39,3,3,0,0,1-1.92-.49l-7.19-1.47-14-.23c0-.31-.3-.46-.95-.47a6.9,6.9,0,0,0-3.39,1.07,6.7,6.7,0,0,1-2.91,1.07,36.43,36.43,0,0,1-5-.31,50.28,50.28,0,0,0-6.49-.34l-3.85-.06c-3.42-.37-12.08,1.29-21.89-1.12l-20.1.59-4.47.5L561,378.45l-.12.14-42.39.88a7.1,7.1,0,0,0-2.89.45h-6.74l1,2.24a23.32,23.32,0,0,0-5.29.68,8.89,8.89,0,0,0-3.85,1.57,2.8,2.8,0,0,1-1.93-.9l-1.44-1.35c0,.61-.48.9-1.45.9a8.38,8.38,0,0,1-1.92-.22,8.4,8.4,0,0,0-1.92-.23,11.89,11.89,0,0,0-2.17.23,11.8,11.8,0,0,1-2.16.22,2.87,2.87,0,0,1-1.93-.45l-.72.68a3.4,3.4,0,0,1-1.68.22,17.67,17.67,0,0,0-2.89-1.12c-.5-.12-1.59-.28-3.24-.48-2.91-2.26-4.85-3.43-5.77-3.46l-1.44,0a25,25,0,0,0-2.9.38,21,21,0,0,1-3.38.36L420.41,379a7.15,7.15,0,0,0-2.89.38l-4.81-.12-1.93-.05.91,2.27a23.44,23.44,0,0,0-5.31.54,9,9,0,0,0-3.89,1.48,2.82,2.82,0,0,1-1.9-.95l-1.41-1.38c0,.6-.5.89-1.47.86a7.79,7.79,0,0,1-1.91-.27,8.54,8.54,0,0,0-1.92-.27,11.45,11.45,0,0,0-2.17.17,10.78,10.78,0,0,1-2.17.17,2.8,2.8,0,0,1-1.91-.5l-.74.66a3.31,3.31,0,0,1-1.69.18,17.86,17.86,0,0,0-2.86-1.19c-.64-.16-2.24-.43-4.79-.79l-24.05-.59a4.8,4.8,0,0,1-3.4,1.26c-1.29,0-1.94.7-2,2.2l.91,1.82a35,35,0,0,1,.86,4.07l5.66,4.18a38.47,38.47,0,0,1,4.89,6.18c1.7,2.59,3.35,3.91,5,3.94a2,2,0,0,0,1.45-.41,7.19,7.19,0,0,1,2.87.52l4.3,1.45a2.84,2.84,0,0,0,1.93-.4l1-.87h.48a17.5,17.5,0,0,0,3.14-.37,18.15,18.15,0,0,1,3.62-.36,3,3,0,0,1,1.91.49l7.18,1.53,13.94.34c0,.3.31.46,1,.47a6.82,6.82,0,0,0,3.4-1,6.81,6.81,0,0,1,2.92-1.05,35.84,35.84,0,0,1,5,.35,50.82,50.82,0,0,0,6.49.38l3.84.1c3.42.39,12.09-1.2,21.88,1.28l17.4-.38,3.62,1.13a3,3,0,0,0,1.93-.45l1-.9h.48a17.65,17.65,0,0,0,3.13-.45,19,19,0,0,1,3.61-.45,3,3,0,0,1,1.92.45L492,406H506c0,.3.31.45,1,.45a6.87,6.87,0,0,0,3.37-1.13,6.72,6.72,0,0,1,2.89-1.12,34.69,34.69,0,0,1,5.05.23,52.19,52.19,0,0,0,6.49.22h3.85c3.43.3,12.05-1.5,21.91.75l20.08-.94,4.47-.57,3.2-1.33,42.46-.16a7.18,7.18,0,0,0,2.9-.39l4.81.08,1.92,0-.92-2.26c.31,0,.66,0,1-.05,1.45,1.78,2.85,2.72,4.19,2.72a2,2,0,0,0,1.44-.45,7.35,7.35,0,0,1,2.89.45l4.33,1.35a2.92,2.92,0,0,0,1.92-.45l1-.9h.48a17.65,17.65,0,0,0,3.13-.45,19.05,19.05,0,0,1,3.6-.45,3,3,0,0,1,1.93.45l7.22,1.35h13.95c0,.3.31.45,1,.45a6.94,6.94,0,0,0,3.37-1.12,6.66,6.66,0,0,1,2.88-1.13,34.77,34.77,0,0,1,5.06.23,52.19,52.19,0,0,0,6.49.22H699c3.42.31,12.05-1.5,21.9.75l20.09-.94,3.66-.47a4,4,0,0,0,1.38.51l1.45.05a27,27,0,0,0,2.9-.35,22.39,22.39,0,0,1,3.38-.33l43.31.61a7.18,7.18,0,0,0,2.9-.34l4.8.17,1.93.06-.88-2.28a23.21,23.21,0,0,0,5.31-.48,9.19,9.19,0,0,0,3.91-1.44,2.79,2.79,0,0,1,1.89,1l1.39,1.39c0-.6.52-.88,1.48-.85a8.35,8.35,0,0,1,1.91.3,8.5,8.5,0,0,0,1.92.29,12.24,12.24,0,0,0,2.17-.15,11.42,11.42,0,0,1,2.17-.15,2.86,2.86,0,0,1,1.91.52c.33-.3.58-.51.74-.65a3.36,3.36,0,0,1,1.69-.17,16.84,16.84,0,0,0,2.85,1.22c.64.18,2.23.45,4.78.85l24,.84a4.74,4.74,0,0,1,3.41-1.23c1.29,0,2-.68,2-2.18Z"/><path class="cls-2" d="M473.8,224.64v21.51h-42V361.4H406.7V246.15h-42V224.64Z"/><path class="cls-2" d="M530.43,223.26q29.6,0,45.29,10.86t15.69,33.15q0,27.83-27.43,37.69,3.75,4.55,8.48,11.05t9.67,14.11q4.93,7.61,9.48,15.59t8.09,15.69H571.87q-3.75-7.11-8.09-14.31t-8.78-14q-4.44-6.81-8.78-12.83t-8.09-10.75c-1.85.13-3.43.2-4.74.2H517.6v51.7H492.74V226.62A133.83,133.83,0,0,1,512.08,224Q522.34,223.26,530.43,223.26Zm1.78,21.51c-5.27,0-10.13.2-14.61.59v44.21h10.86a113.82,113.82,0,0,0,16-1A33.73,33.73,0,0,0,556,285a17.26,17.26,0,0,0,7-6.91,22.87,22.87,0,0,0,2.37-11.05A22,22,0,0,0,563,256.42a17.6,17.6,0,0,0-6.81-6.91,32.16,32.16,0,0,0-10.55-3.65A77.42,77.42,0,0,0,532.21,244.77Z"/><path class="cls-2" d="M619,361.4V224.64h87.81v21.12h-63V279.5h56v20.72h-56v40.06h67.69V361.4Z"/><path class="cls-2" d="M816.37,361.4q-5.13-7.89-11.84-16.58t-14.11-16.77Q783,320,775.13,312.66A143.13,143.13,0,0,0,759.54,300V361.4H734.67V224.64h24.87v56.44q6.51-6.51,13.61-13.91t14.11-15q7-7.59,13.33-14.7T812,224.64h29.8q-6.51,7.52-13.81,15.59t-15,16.28q-7.69,8.19-15.49,16.28t-15.3,15.4a183.6,183.6,0,0,1,16.88,14.7q8.58,8.39,16.87,17.95t15.88,19.94q7.6,10.35,13.91,20.62Z"/><path class="cls-2" d="M366.87,389.24l-4.19,3.26q-2.34-5.6-9.09-9.79t-11.88-4.19H330.06a3.07,3.07,0,0,1-1.87-.7,2.84,2.84,0,0,0-1.4-.7l-2.79,1.4.46-1.4-28.89-1.86a19.07,19.07,0,0,1-6.53,1.4,24.16,24.16,0,0,1-3.5-.24,29.55,29.55,0,0,0-4-.23H263.87a12.47,12.47,0,0,1,1.4-4.43,58.87,58.87,0,0,1,3.26-6.06c1.24-2,2.49-4,3.73-6.06s2.17-3.49,2.8-4.42l1.4-3.26a5,5,0,0,0,3.72-1.4v-2.8l3.27-1.86-2.33-.47a11,11,0,0,0,2.33-3.73,5.93,5.93,0,0,1,2.79-3.26l-.46-1.4-1.87,1.4V337q-.46-.93,3.27-4.89a41,41,0,0,1,5.12-4.9l11.19-25.17c0-2.17,1.08-5,3.26-8.62s3.26-6.13,3.26-7.69v-.46a34.37,34.37,0,0,0,4.43-6.06q2.56-4.2,5.36-8.63a64.7,64.7,0,0,1,5.83-7.92,14.05,14.05,0,0,1,5.82-4.42l-.93-.47c.93-1.55,1.7-2.33,2.33-2.33l1.4-10.26-.93-.93,5.12-7-3.26-8.39c0-1.86-1.56-4-4.66-6.52l-1-2.36c-.31,0-.55-.83-2.1-.53a35.57,35.57,0,0,1-5.65.09l-30.86.93a6.49,6.49,0,0,0-2.8.47h-6.53l.94,2.33a21,21,0,0,0-5.13.7,8.44,8.44,0,0,0-3.73,1.63,2.62,2.62,0,0,1-1.86-.93l-1.4-1.4c0,.62-.47.93-1.4.93a7.35,7.35,0,0,1-1.86-.23,8.06,8.06,0,0,0-1.87-.24,11.36,11.36,0,0,0-2.1.24,10.32,10.32,0,0,1-2.09.23,2.65,2.65,0,0,1-1.87-.47l-.7.71a3.18,3.18,0,0,1-1.63.23,16,16,0,0,0-2.79-1.17c-.63-.15-2.18-.38-4.66-.7H236.76c0-.23-.11-.47-.15-.69a31.93,31.93,0,0,1-.47-5.83,21.68,21.68,0,0,1,.47-5.13l-1.87-1.86a4.21,4.21,0,0,1,.47-1.87,4.13,4.13,0,0,0,.47-1.86h-.94V193.49l-.93-.93.93-1.86a3.16,3.16,0,0,1,.94-2.34c0-.93-.94-1.39-2.8-1.39v-7l-8.39-31.23L225,146q0-7-5.36-16.78a55.49,55.49,0,0,0-13.29-16.31v-.46a23.76,23.76,0,0,0-1.63-6.53,28.33,28.33,0,0,1-1.63-5.59,9.62,9.62,0,0,0-3.73-5.13A24.88,24.88,0,0,0,194,92.82a63.58,63.58,0,0,1-6.76-2.56,32.73,32.73,0,0,1-8.38-5.83,11.51,11.51,0,0,1-3.73,1.17c-.86.11-1.32.17-1.44.21l-2.29-1.38a6.84,6.84,0,0,0-3,3.5,45.94,45.94,0,0,0-2.1,5.59q-.93,3-1.63,5.59a23.35,23.35,0,0,1-1.16,3.5,35,35,0,0,0-3,5.59,8.89,8.89,0,0,0-.7,2.8l.46.46-2.33,5.13c-.93,3.42-2.26,7.54-4,12.35s-3.42,9.4-5.13,13.75-3.19,8.08-4.42,11.18-2,4.66-2.33,4.66l-4.66,9.33,4.19,3.26-9.79,12.12-.93,8.39-2.33-.47-.93,8.39-4.66,6.52-4.66,12.59v.93c0,1.25-.86,2.18-2.57,2.8a21.37,21.37,0,0,1-5.82,1.16q-3.27.24-5.83.24H94.46c-.32,0-1.17.08-2.57.23a38.85,38.85,0,0,1-4.42.23,45.31,45.31,0,0,0-4.66.24c-1.56.15-2.5.23-2.8.23h-2.8q0,5.59,4.66,7.45a10.49,10.49,0,0,1-3.49.94c-.78,0-1.17.78-1.17,2.33,0,.93.77,2,2.33,3.26a23.65,23.65,0,0,0,5.6,3.26q3.26,1.39,6.52,2.57c2.17.77,3.73,1.32,4.66,1.63h7a2.2,2.2,0,0,1,.94.23,1.94,1.94,0,0,0,.93.23l.46.47-7,25.17-.46,2.79a6.85,6.85,0,0,1-2.1,4.2A4.66,4.66,0,0,0,94.46,283h.93c0,.93-.39,1.39-1.17,1.39s-1.16.78-1.16,2.33l1.4-.93v.93a2.76,2.76,0,0,1-1.17,2.57,2.27,2.27,0,0,0-1.16,2.1,2.68,2.68,0,0,0,1.86.93,1.91,1.91,0,0,1-1.4.46c-1.24,0-3.19,3.35-5.82,10s-5.36,13.9-8.16,21.67l1.4,9.32h7.46l2.79-2.8h2.33a4.16,4.16,0,0,1,2.1.7,2.31,2.31,0,0,1,1.17,2.1v7.46q0,1.85-2.57,4.89c-1.71,2-2.56,3.8-2.56,5.36l-3.26-2.8v-5.12l2.79-5.13v-2.33l-7.45,2.33H77.68l-1.4,1.86a32.22,32.22,0,0,1-1.86,5.13q-.94,1.86-2.8,5.59l-1.4,5.6v5.12a43.07,43.07,0,0,1-2.1,12.12,96.38,96.38,0,0,0-3,13.05l-2.33-4.66h-1.4c0,2.48-.08,4.66-.24,6.52s-1.32,3.42-3.49,4.66a18.32,18.32,0,0,1,2.56,4.43,20.28,20.28,0,0,0,4,5.83,8.38,8.38,0,0,1,5.13-1.4v2.33a14.59,14.59,0,0,1,4.19.7,13.41,13.41,0,0,0,3.27.7,1.37,1.37,0,0,0,.93-.47v3.26c.93,0,1.4-.16,1.4-.46s.3-.78.93-1.4c.93,0,2.87.07,5.82.23s4.74.39,5.36.7h.75l.23-.1c.61-.4,1.09-.75,1.09-1.06a5.64,5.64,0,0,1,1.4-3l2-13.16-1.48-.82,5.12-12.59v-.46a2.09,2.09,0,0,1,.7-1.87c.47-.31.7-1.09.7-2.33l-2.8.93a3.75,3.75,0,0,1,.94-2.79,11.64,11.64,0,0,0,1.86-2.8,4.2,4.2,0,0,0-1.86-.47c-.63,0-.94-.46-.94-1.39,1.87-.32,2.8-.94,2.8-1.87a38.63,38.63,0,0,1,3.73-6.52c1.86-2.8,5.14-.94,5.14-1.87l-1.39-.93a11.11,11.11,0,0,1,1.63-6.52,28.73,28.73,0,0,1,3.26-4c1.09-1.09-.18-5.9.91-7a6,6,0,0,0,1.63-4.43q0-1.86-.93-1.86h-.46c0-1.24.46-1.86,1.39-1.86a2.73,2.73,0,0,0,2.33-1.4H116.1q0-4.2,2.79-10t4.66-10.95v-4.2a42.62,42.62,0,0,1,2.8-7.69,22.22,22.22,0,0,1,4.2-6.29,4,4,0,0,1-1.4-2.8v-.93a2,2,0,0,1,.23-.93,2.13,2.13,0,0,0,.23-.93l.94-1.4a75.53,75.53,0,0,0,4.19-7.46,18.48,18.48,0,0,0,2.33-7.92h4.66l.93-1.4-2.79-.93,1.86-3.73a9.67,9.67,0,0,0,.47-3.73,38.59,38.59,0,0,1,.46-5.83,17.82,17.82,0,0,1,1.64-5.36c.77-1.55,17.74-2.33,19.6-2.33h4.66a26.24,26.24,0,0,1,4.66.7,28.78,28.78,0,0,0,6.06.7,12.19,12.19,0,0,0,3.73-.46,12.1,12.1,0,0,1,3.73-.47h4.19c1.87,0,3.8.08,5.83.23a30,30,0,0,1,5.59.94c1.71.46,2.72,1,3,1.63v7.46c0,1.86.07,3.65.23,5.35s.24,3,.24,4l1.86-6.06.93,2.33.47-4.2.93,1.4L211,262a22.73,22.73,0,0,1,.47,4.43,11,11,0,0,0,.47,3.5.9.9,0,0,1-.24.69,1,1,0,0,0-.23.71c0,.31.07.46.23.46s.24.31.24.93q-3.27-.93-3.27-2.79c0-1.55.31-2.33.94-2.33a10,10,0,0,1-1.4-1.64,2.11,2.11,0,0,0-1.87-.69,33.32,33.32,0,0,0,1.4,10,35,35,0,0,1,1.4,10.48,1.89,1.89,0,0,1-.7,1.17,2.21,2.21,0,0,0-.7,1.63q0,8.85,8.39,10.72a4,4,0,0,0,3.26-1.17,3.38,3.38,0,0,1,2.8-1.16c.62,0,.93.23.93.7s.62.7,1.87.7h7.92c.62,0,1.16.62,1.63,1.86s1,1.86,1.63,1.86h2.33a4.86,4.86,0,0,0,2.1-.23,6.79,6.79,0,0,0,.23-2.56c1.24,0,1.94.46,2.1,1.4s.39,1.39.7,1.39a4.16,4.16,0,0,1,2.1-4c1.39-.77,2.09-2.25,2.09-4.42a10.9,10.9,0,0,0-.7-3,14.07,14.07,0,0,1-.69-4.43l-.94-1.4a1.35,1.35,0,0,0,.47-.93,1.08,1.08,0,0,0-.7-1.17,4.47,4.47,0,0,1-1.63-1.16V268.06q-2.34-3.72-2.8-4.66c-.31-.62-.46-2.63-.46-6.06l.93-1.86c0-.62-.16-1-.47-1.17s-.46-.69-.46-1.63v-.46a.83.83,0,0,1,.93-.94,4.71,4.71,0,0,0-1.63-3.73,5.29,5.29,0,0,1-.58-.58,1.48,1.48,0,0,0,.58-.35,6.47,6.47,0,0,1,2.79.47l4.2,1.4a2.64,2.64,0,0,0,1.86-.47l.94-.93h.46a15.34,15.34,0,0,0,3-.47,17.34,17.34,0,0,1,3.5-.46,2.75,2.75,0,0,1,1.86.46l7,1.4h13.52c0,.32.3.47.93.47a6.38,6.38,0,0,0,3.26-1.17,6.22,6.22,0,0,1,2.8-1.16,32.49,32.49,0,0,1,4.89.23,46.4,46.4,0,0,0,6.29.23h3.73q-8.38,14.46-15.38,24.71a163.47,163.47,0,0,0-13.05,23.3v.93q-.93,1.86-2.33,4.19a19.11,19.11,0,0,1-2.79,3.73l-5.6,3.73-2.33,5.13.93,2.33-2.33.93-.93-.47-2.79.94-.47,5.12-2.8,4.2-3.72,6.52H249l-.47,2.33-2.33.93-1.39-.46-4.2,8.86-2.8,2.79-2.79,4.2a65.52,65.52,0,0,1-7.23,13.51,46.71,46.71,0,0,1-6.75,7.46,52.52,52.52,0,0,0-5.13,4.89q-1.87,2.1-1.87,6.29v5.13l-1.39,7a21,21,0,0,0,7.69,9.32c3.56,2.5,5.36,4,5.36,4.66l6.52,1.87,7-.47,22.84.93a4.94,4.94,0,0,0,2.56-.69,9.44,9.44,0,0,0,1.63-1.17l1.87-.47A31.39,31.39,0,0,1,278.79,407a70.35,70.35,0,0,1,10,.7,70.15,70.15,0,0,0,10,.7l1.86-.93a36.31,36.31,0,0,1,10.72-2.33q6.06-.46,9.32-.47a22.26,22.26,0,0,1,3,.23,21,21,0,0,0,3,.24h1.4c.62,0,.93-.16.93-.47h4.2c1.55,0,3.33.08,5.36.23s3.8.24,5.36.24a21.06,21.06,0,0,0,6.29-.94,18.53,18.53,0,0,1,5.36-.93v1.4l1.86.47-.93,1.39H359a14.11,14.11,0,0,0,4.89-.93,17,17,0,0,1,5.83-.93v-7Zm-295.72-2.8q-.93,0-.93-1.86c0-1.56.31-2.33.93-2.33.94,0,1.4.77,1.4,2.33C72.55,385.82,72.09,386.44,71.15,386.44ZM75.35,372l-2.8,7v-7a12.54,12.54,0,0,1,.93-4.67c.62-1.56,1.24-3.1,1.87-4.66Zm12.12-20.51c1.55,0,2.33.93,2.33,2.8a2.07,2.07,0,0,1-2.33,2.33c-1.25,0-1.87-.79-1.87-2.33C85.6,352.42,86.22,351.49,87.47,351.49ZM80,369.2l.93-2.8a28.19,28.19,0,0,0,.93-4.66L84.2,359V372a10.46,10.46,0,0,1-.7,3.72,12,12,0,0,0-.69,4.2L80,382.25Zm9.55,36.35H82.81l-.47-.93a.41.41,0,0,1,.47-.47h4.42c2.64,0,4,.16,4,.47C91.19,405.24,90.65,405.55,89.56,405.55Zm2.77-1.86v-1.4l.93,1.4ZM92.59,359c-1.24,0-1.86-.79-1.86-2.33,0-1.87.62-2.8,1.86-2.8,1.55,0,2.33.93,2.33,2.8A2.07,2.07,0,0,1,92.59,359ZM198.86,215.86a25.15,25.15,0,0,1-6.76,2.1,45.29,45.29,0,0,1-7.93.7H172.29l-18.44-.93.93-5.6q5.13-11.64,10.25-27.26c3.42-10.41,6-23.8,9.33-27.73,0-.07,1.53-.35,3.08-.86a14.47,14.47,0,0,0,2.57-1.72c1.33-1,.39-2.16,3.14-2.41,3.71-.34,3.84.37,5.75,2.13s1.89,4.91,2,5.19a7.17,7.17,0,0,1,.93,2.8v.93L197,175.78l-.93,3.26a10.29,10.29,0,0,0,1.63,5.13,11,11,0,0,1,1.63,5.59c0,.94-.16,1.48-.46,1.63s-.47.55-.47,1.17v.93l.93,3.73a3.13,3.13,0,0,1-2.33.93l2.33.47v.93a1.93,1.93,0,0,1-.46,1.4,1.87,1.87,0,0,0-.47,1.4h.93v2.79a.41.41,0,0,0,.47.47v6.52h1.86Q201.65,214.47,198.86,215.86Zm13,66.65v-4.19a2.72,2.72,0,0,1,1.39,2.33,3.26,3.26,0,0,1-.23,1.39,3.22,3.22,0,0,0-.23,1.4h-.93Zm3,8.62a9.73,9.73,0,0,0-.24,1.63c-1.56,0-2.33-1.08-2.33-3.26v-1.4q0-1.86.93-1.86c1.24,0,1.87.93,1.87,2.8A11.09,11.09,0,0,1,214.94,291.13ZM272.26,297c.31,0,.47.08.47.23s.15.23.46.23.47.47.47,1.4c0,1.56-.47,2.33-1.4,2.33s-1.4-.62-1.4-1.86C270.86,297.74,271.33,297,272.26,297Zm-34,62.92-2.8,2.79a8.29,8.29,0,0,0-2.33,2.33q-1.4,1.88-3,4.43c-1.09,1.71-2.09,3.34-3,4.9a20.38,20.38,0,0,0-1.86,3.72l.47-3.72,5.12-11.19q.47-1.86,3.73-3.73t4.2-1.86Zm3.26-4.2a1.09,1.09,0,0,1-1.16-.93,6.12,6.12,0,0,1-.24-1.4c0-1.24.31-1.86.94-1.86.3,0,.46.08.46.23s.15.24.47.24c.62,0,.93.46.93,1.39C242.9,354.91,242.43,355.68,241.5,355.68Zm21.44-35.42v.47c-.62,0-.93-.62-.93-1.87l.93-.93a.41.41,0,0,0,.47-.47.42.42,0,0,1,.46.47,1.93,1.93,0,0,1-.46,1.4A1.33,1.33,0,0,1,262.94,320.26Z"/><path class="cls-2" d="M57.49,487.94V443.32H83.25v3.8H61.87v15.51H80.93v3.74H61.87v17.77H84.92v3.8Z"/><path class="cls-2" d="M104,473.86q-1.42,1.68-2.83,3.53T98.39,481q-1.32,1.8-2.41,3.64c-.72,1.23-1.33,2.32-1.83,3.26H89.81a84,84,0,0,1,5.71-9.09q3-4.17,6.18-8.18l-11.24-16h4.89l8.7,12.61,8.68-12.61h4.58l-11,15.84q1.39,1.75,3,3.82c1.07,1.37,2.13,2.8,3.2,4.28s2.1,3,3.1,4.6,1.92,3.17,2.75,4.75h-4.5c-.52-.95-1.14-2-1.87-3.13s-1.54-2.31-2.43-3.55-1.81-2.49-2.78-3.76S104.85,475,104,473.86Z"/><path class="cls-2" d="M129.86,499.85h-4.18v-44a36.3,36.3,0,0,1,4.76-1.22,38.15,38.15,0,0,1,7.34-.58,17.71,17.71,0,0,1,6.66,1.19,14.39,14.39,0,0,1,5.16,3.44,15.76,15.76,0,0,1,3.34,5.48,20.68,20.68,0,0,1,1.2,7.27,23.52,23.52,0,0,1-1,7,15.61,15.61,0,0,1-2.93,5.47,13.44,13.44,0,0,1-4.74,3.57,15.11,15.11,0,0,1-6.4,1.29,15.84,15.84,0,0,1-5.7-.93,14.74,14.74,0,0,1-3.51-1.77Zm0-17.9a15.74,15.74,0,0,0,1.45,1,14.3,14.3,0,0,0,2,1,16.06,16.06,0,0,0,2.51.74,13,13,0,0,0,2.83.29,11.4,11.4,0,0,0,5.19-1.06,9.07,9.07,0,0,0,3.38-2.9,12.3,12.3,0,0,0,1.86-4.31,22.77,22.77,0,0,0,.58-5.25q0-6.57-3.28-10.07a11.35,11.35,0,0,0-8.69-3.51,33.42,33.42,0,0,0-5,.29,17.5,17.5,0,0,0-2.87.61Z"/><path class="cls-2" d="M171.65,488.52A14.08,14.08,0,0,1,168,488a6.43,6.43,0,0,1-2.64-1.48,6.15,6.15,0,0,1-1.61-2.58,12.07,12.07,0,0,1-.55-4v-41.2l4.18-.78v41.86a8.77,8.77,0,0,0,.29,2.48,3.13,3.13,0,0,0,2.39,2.28,19.59,19.59,0,0,0,2.22.45Z"/><path class="cls-2" d="M208,471.33a21.48,21.48,0,0,1-1.13,7.14,15.78,15.78,0,0,1-3.16,5.48,14.45,14.45,0,0,1-4.79,3.51,15.61,15.61,0,0,1-12.24,0,14.45,14.45,0,0,1-4.79-3.51,15.94,15.94,0,0,1-3.16-5.48,23.35,23.35,0,0,1,0-14.29,16.22,16.22,0,0,1,3.16-5.5,14.16,14.16,0,0,1,4.79-3.55,15.61,15.61,0,0,1,12.24,0,14.16,14.16,0,0,1,4.79,3.55,16.06,16.06,0,0,1,3.16,5.5A21.58,21.58,0,0,1,208,471.33Zm-4.45,0q0-6.25-2.89-9.95a10.19,10.19,0,0,0-15.71,0q-2.91,3.71-2.9,9.95t2.9,9.91a10.24,10.24,0,0,0,15.71,0Q203.59,477.58,203.58,471.33Z"/><path class="cls-2" d="M228.44,454a22.94,22.94,0,0,1,3.89.32,12,12,0,0,1,2.54.64l-.83,3.61A9.29,9.29,0,0,0,232,458a24.33,24.33,0,0,0-4.16-.29,19.42,19.42,0,0,0-4.34.39,12.26,12.26,0,0,0-2.16.64v29.17H217.1V456.2a29.82,29.82,0,0,1,4.45-1.45A27.25,27.25,0,0,1,228.44,454Z"/><path class="cls-2" d="M239.19,471.26a21.3,21.3,0,0,1,1.25-7.63,17,17,0,0,1,3.29-5.44,13,13,0,0,1,4.63-3.25,14.1,14.1,0,0,1,5.38-1.06,12.53,12.53,0,0,1,9.75,4q3.64,4,3.64,12.3c0,.34,0,.69,0,1a9.14,9.14,0,0,1-.1,1H243.63q.19,6.12,3,9.41t9,3.28a18.15,18.15,0,0,0,5.41-.65,21.49,21.49,0,0,0,2.9-1.09l.77,3.61a17.57,17.57,0,0,1-3.38,1.22,21.43,21.43,0,0,1-5.83.71,19.37,19.37,0,0,1-7.47-1.29,13.32,13.32,0,0,1-5.08-3.61,14.23,14.23,0,0,1-2.9-5.5A25.66,25.66,0,0,1,239.19,471.26Zm23.63-2.64c-.09-3.47-.9-6.18-2.45-8.11a7.92,7.92,0,0,0-6.57-2.9,8.74,8.74,0,0,0-4,.9,10.37,10.37,0,0,0-3.09,2.42,11.17,11.17,0,0,0-2.06,3.51,14.61,14.61,0,0,0-.87,4.18Z"/><path class="cls-2" d="M287.8,454a23.15,23.15,0,0,1,3.9.32,12,12,0,0,1,2.54.64l-.84,3.61a9.13,9.13,0,0,0-2.09-.55,24.21,24.21,0,0,0-4.15-.29,19.45,19.45,0,0,0-4.35.39,12.86,12.86,0,0,0-2.16.64v29.17h-4.18V456.2a29.25,29.25,0,0,1,4.44-1.45A27.35,27.35,0,0,1,287.8,454Z"/><path class="cls-2" d="M323.66,488.52A14.14,14.14,0,0,1,320,488a6.56,6.56,0,0,1-2.64-1.48,6.25,6.25,0,0,1-1.61-2.58,12.35,12.35,0,0,1-.55-4v-41.2l4.19-.78v41.86a8.77,8.77,0,0,0,.29,2.48,3.33,3.33,0,0,0,.87,1.48,3.52,3.52,0,0,0,1.51.8,19.59,19.59,0,0,0,2.22.45Z"/><path class="cls-2" d="M329.65,471.26a21.07,21.07,0,0,1,1.26-7.63,16.8,16.8,0,0,1,3.28-5.44,12.92,12.92,0,0,1,4.64-3.25,14,14,0,0,1,5.37-1.06,12.57,12.57,0,0,1,9.76,4q3.63,4,3.63,12.3c0,.34,0,.69,0,1s-.05.66-.09,1H334.09q.2,6.12,3,9.41t9,3.28a18.15,18.15,0,0,0,5.41-.65,21.49,21.49,0,0,0,2.9-1.09l.77,3.61a17.57,17.57,0,0,1-3.38,1.22,21.38,21.38,0,0,1-5.83.71,19.35,19.35,0,0,1-7.46-1.29,13.35,13.35,0,0,1-5.09-3.61,14.23,14.23,0,0,1-2.9-5.5A25.66,25.66,0,0,1,329.65,471.26Zm23.63-2.64c-.09-3.47-.9-6.18-2.45-8.11a7.92,7.92,0,0,0-6.56-2.9,8.76,8.76,0,0,0-4,.9,10.37,10.37,0,0,0-3.09,2.42,11.17,11.17,0,0,0-2.06,3.51,14.61,14.61,0,0,0-.87,4.18Z"/><path class="cls-2" d="M381.61,455.81q1.88-.51,4.86-1.16a38.09,38.09,0,0,1,7.76-.64q6.31,0,9.14,3.67.33-.26,1.26-.87a17,17,0,0,1,2.35-1.26,18.09,18.09,0,0,1,3.31-1.09,18.39,18.39,0,0,1,4.22-.45,14.35,14.35,0,0,1,6.15,1.12,8.67,8.67,0,0,1,3.64,3.16,12.63,12.63,0,0,1,1.74,4.86,39.52,39.52,0,0,1,.45,6.18v18.61H422.3V470.68A46.86,46.86,0,0,0,422,465a11,11,0,0,0-1.16-4,5.63,5.63,0,0,0-2.47-2.38,9.37,9.37,0,0,0-4.19-.8,15.81,15.81,0,0,0-3.51.35A15.15,15.15,0,0,0,408,459a11.2,11.2,0,0,0-1.9,1c-.5.34-.85.6-1.07.77a19.36,19.36,0,0,1,.87,3.77,31,31,0,0,1,.29,4.41v18.93H402V470.68a49,49,0,0,0-.29-5.69,10.79,10.79,0,0,0-1.19-4,5.87,5.87,0,0,0-2.55-2.38,9.86,9.86,0,0,0-4.34-.8,33.66,33.66,0,0,0-5.12.32,13,13,0,0,0-2.67.58v29.23h-4.19Z"/><path class="cls-2" d="M465.57,471.33a21.48,21.48,0,0,1-1.12,7.14,16.1,16.1,0,0,1-3.16,5.48,14.39,14.39,0,0,1-4.8,3.51,15.58,15.58,0,0,1-12.23,0,14.39,14.39,0,0,1-4.8-3.51,15.92,15.92,0,0,1-3.15-5.48,23.15,23.15,0,0,1,0-14.29,16.2,16.2,0,0,1,3.15-5.5,14.1,14.1,0,0,1,4.8-3.55,15.58,15.58,0,0,1,12.23,0,14.1,14.1,0,0,1,4.8,3.55,16.39,16.39,0,0,1,3.16,5.5A21.58,21.58,0,0,1,465.57,471.33Zm-4.44,0q0-6.25-2.9-9.95a10.19,10.19,0,0,0-15.71,0q-2.89,3.71-2.9,9.95t2.9,9.91a10.24,10.24,0,0,0,15.71,0Q461.13,477.58,461.13,471.33Z"/><path class="cls-2" d="M474.65,455.81c1.24-.34,2.92-.73,5-1.16a39.35,39.35,0,0,1,7.73-.64,16.1,16.1,0,0,1,6.34,1.09,9.75,9.75,0,0,1,4.06,3.12,13,13,0,0,1,2.15,4.87,28.13,28.13,0,0,1,.65,6.24v18.61h-4.19V470.68a31.62,31.62,0,0,0-.48-6,10,10,0,0,0-1.61-4,6.26,6.26,0,0,0-3-2.22,13.53,13.53,0,0,0-4.61-.67,34.34,34.34,0,0,0-5.11.32,15.54,15.54,0,0,0-2.81.58v29.23h-4.18Z"/><path class="cls-2" d="M537.75,486.91a36.5,36.5,0,0,1-4.77,1.22,38.08,38.08,0,0,1-7.34.58,18,18,0,0,1-6.66-1.19,14.35,14.35,0,0,1-5.15-3.44,15.64,15.64,0,0,1-3.35-5.48,20.92,20.92,0,0,1-1.19-7.27,23.15,23.15,0,0,1,1-7,15.77,15.77,0,0,1,2.93-5.5,13.19,13.19,0,0,1,4.73-3.61,15.16,15.16,0,0,1,6.41-1.29,15.6,15.6,0,0,1,5.69.94,14.74,14.74,0,0,1,3.51,1.77v-17.9l4.19-.78Zm-4.19-26.21a14.52,14.52,0,0,0-3.47-1.93,16.19,16.19,0,0,0-2.52-.74,13.64,13.64,0,0,0-2.83-.29,11.06,11.06,0,0,0-5.18,1.1,9.25,9.25,0,0,0-3.38,2.93,12.32,12.32,0,0,0-1.87,4.31,22.77,22.77,0,0,0-.58,5.25q0,6.57,3.29,10.07a11.32,11.32,0,0,0,8.69,3.51,33.51,33.51,0,0,0,5-.29,17.57,17.57,0,0,0,2.86-.61Z"/><path class="cls-2" d="M546.83,471.26a21.08,21.08,0,0,1,1.25-7.63,16.82,16.82,0,0,1,3.29-5.44,12.88,12.88,0,0,1,4.63-3.25,14.1,14.1,0,0,1,5.38-1.06,12.53,12.53,0,0,1,9.75,4q3.64,4,3.64,12.3c0,.34,0,.69,0,1s-.06.66-.1,1H551.27q.19,6.12,3,9.41t9,3.28a18.19,18.19,0,0,0,5.41-.65,21.23,21.23,0,0,0,2.89-1.09l.78,3.61a17.57,17.57,0,0,1-3.38,1.22,21.43,21.43,0,0,1-5.83.71,19.37,19.37,0,0,1-7.47-1.29,13.35,13.35,0,0,1-5.09-3.61,14.21,14.21,0,0,1-2.89-5.5A25.66,25.66,0,0,1,546.83,471.26Zm23.63-2.64c-.09-3.47-.9-6.18-2.45-8.11a7.94,7.94,0,0,0-6.57-2.9,8.74,8.74,0,0,0-4,.9,10.37,10.37,0,0,0-3.09,2.42,11.17,11.17,0,0,0-2.06,3.51,14,14,0,0,0-.87,4.18Z"/><path class="cls-2" d="M596.79,471.26a21.07,21.07,0,0,1,1.26-7.63,16.8,16.8,0,0,1,3.28-5.44,12.92,12.92,0,0,1,4.64-3.25,14,14,0,0,1,5.37-1.06,12.57,12.57,0,0,1,9.76,4q3.63,4,3.63,12.3c0,.34,0,.69,0,1s-.05.66-.09,1H601.23q.19,6.12,3,9.41t9,3.28a18.15,18.15,0,0,0,5.41-.65,21.49,21.49,0,0,0,2.9-1.09l.77,3.61a17.57,17.57,0,0,1-3.38,1.22,21.38,21.38,0,0,1-5.83.71,19.35,19.35,0,0,1-7.46-1.29,13.28,13.28,0,0,1-5.09-3.61,14.23,14.23,0,0,1-2.9-5.5A25.66,25.66,0,0,1,596.79,471.26Zm23.63-2.64c-.09-3.47-.9-6.18-2.45-8.11a7.92,7.92,0,0,0-6.56-2.9,8.76,8.76,0,0,0-4,.9,10.37,10.37,0,0,0-3.09,2.42,11.17,11.17,0,0,0-2.06,3.51,14.61,14.61,0,0,0-.87,4.18Z"/><path class="cls-2" d="M634.07,455.81q1.88-.51,5-1.16a39.42,39.42,0,0,1,7.73-.64,16.1,16.1,0,0,1,6.34,1.09,9.75,9.75,0,0,1,4.06,3.12,12.66,12.66,0,0,1,2.15,4.87,28.13,28.13,0,0,1,.65,6.24v18.61h-4.19V470.68a31.62,31.62,0,0,0-.48-6,10,10,0,0,0-1.61-4,6.26,6.26,0,0,0-3-2.22,13.47,13.47,0,0,0-4.6-.67,34.39,34.39,0,0,0-5.12.32,15.15,15.15,0,0,0-2.8.58v29.23h-4.19Z"/><path class="cls-2" d="M677.53,485a13.23,13.23,0,0,0,6-1.19,4.18,4.18,0,0,0,2.35-4,5.83,5.83,0,0,0-.42-2.32,4.5,4.5,0,0,0-1.39-1.73,11.91,11.91,0,0,0-2.54-1.49c-1-.47-2.35-1-3.9-1.67-1.24-.51-2.42-1-3.54-1.58a14.75,14.75,0,0,1-3-1.86,8.22,8.22,0,0,1-2.06-2.55,7.75,7.75,0,0,1-.77-3.6,8.08,8.08,0,0,1,3.06-6.57q3.06-2.5,8.4-2.51a22.64,22.64,0,0,1,5.63.58,17.82,17.82,0,0,1,3.13,1l-1,3.73a24.67,24.67,0,0,0-2.61-1,17.07,17.07,0,0,0-5.37-.64,12.1,12.1,0,0,0-2.68.29,7.09,7.09,0,0,0-2.22.9,4.85,4.85,0,0,0-1.54,1.55,4.23,4.23,0,0,0-.58,2.29,4.91,4.91,0,0,0,.51,2.32,5.11,5.11,0,0,0,1.52,1.71A12.55,12.55,0,0,0,677,468c1,.42,2.07.89,3.32,1.41s2.52,1,3.7,1.57a13.14,13.14,0,0,1,3.12,1.93,8.83,8.83,0,0,1,2.19,2.7,8.35,8.35,0,0,1,.84,4,7.74,7.74,0,0,1-3.38,6.82q-3.37,2.33-9.24,2.32a23.38,23.38,0,0,1-6.7-.74,25.39,25.39,0,0,1-3.09-1.13l1.1-3.79a7.8,7.8,0,0,0,.83.41,16.81,16.81,0,0,0,1.74.65,19.53,19.53,0,0,0,2.61.61A21.32,21.32,0,0,0,677.53,485Z"/><path class="cls-2" d="M696.27,471.26a21.3,21.3,0,0,1,1.25-7.63,16.82,16.82,0,0,1,3.29-5.44,12.88,12.88,0,0,1,4.63-3.25,14.1,14.1,0,0,1,5.38-1.06,12.53,12.53,0,0,1,9.75,4q3.64,4,3.64,12.3c0,.34,0,.69,0,1s-.06.66-.1,1H700.71q.19,6.12,3,9.41t9,3.28a18.19,18.19,0,0,0,5.41-.65,22,22,0,0,0,2.9-1.09l.77,3.61a17.57,17.57,0,0,1-3.38,1.22,21.43,21.43,0,0,1-5.83.71,19.37,19.37,0,0,1-7.47-1.29,13.32,13.32,0,0,1-5.08-3.61,14.1,14.1,0,0,1-2.9-5.5A25.66,25.66,0,0,1,696.27,471.26Zm23.63-2.64c-.09-3.47-.9-6.18-2.45-8.11a7.92,7.92,0,0,0-6.57-2.9,8.74,8.74,0,0,0-4,.9,10.37,10.37,0,0,0-3.09,2.42,11.17,11.17,0,0,0-2.06,3.51,14,14,0,0,0-.87,4.18Z"/><path class="cls-2" d="M733.55,455.81q1.86-.51,4.86-1.16a38,38,0,0,1,7.76-.64q6.3,0,9.14,3.67.32-.26,1.26-.87a17,17,0,0,1,2.35-1.26,17.84,17.84,0,0,1,3.31-1.09,18.33,18.33,0,0,1,4.22-.45,14.35,14.35,0,0,1,6.15,1.12,8.73,8.73,0,0,1,3.64,3.16,12.79,12.79,0,0,1,1.73,4.86,39.52,39.52,0,0,1,.45,6.18v18.61h-4.18V470.68A49,49,0,0,0,774,465a11,11,0,0,0-1.16-4,5.7,5.7,0,0,0-2.48-2.38,9.32,9.32,0,0,0-4.18-.8,15.81,15.81,0,0,0-3.51.35,15.28,15.28,0,0,0-2.74.87,12,12,0,0,0-1.9,1c-.49.34-.85.6-1.06.77a19.36,19.36,0,0,1,.87,3.77,32.56,32.56,0,0,1,.29,4.41v18.93h-4.19V470.68a46.86,46.86,0,0,0-.29-5.69,10.61,10.61,0,0,0-1.19-4,5.84,5.84,0,0,0-2.54-2.38,9.91,9.91,0,0,0-4.35-.8,33.75,33.75,0,0,0-5.12.32,13.35,13.35,0,0,0-2.67.58v29.23h-4.18Z"/><path class="cls-2" d="M793.3,456.65a14.74,14.74,0,0,1,3.51-1.77,15.6,15.6,0,0,1,5.69-.94,15.16,15.16,0,0,1,6.41,1.29,13.19,13.19,0,0,1,4.73,3.61,15.77,15.77,0,0,1,2.93,5.5,23.15,23.15,0,0,1,1,7,20.92,20.92,0,0,1-1.19,7.27,15.64,15.64,0,0,1-3.35,5.48,14.35,14.35,0,0,1-5.15,3.44,18,18,0,0,1-6.66,1.19,38.15,38.15,0,0,1-7.34-.58,36.93,36.93,0,0,1-4.77-1.22V438.75l4.19-.78Zm0,27.36a17.57,17.57,0,0,0,2.86.61,33.51,33.51,0,0,0,5,.29,11.35,11.35,0,0,0,8.7-3.51q3.27-3.5,3.28-10.07a22.77,22.77,0,0,0-.58-5.25,12.32,12.32,0,0,0-1.87-4.31,9.25,9.25,0,0,0-3.38-2.93,11.06,11.06,0,0,0-5.18-1.1,13.64,13.64,0,0,0-2.83.29,16.19,16.19,0,0,0-2.52.74,14.52,14.52,0,0,0-3.47,1.93Z"/><path class="cls-2" d="M835.08,488.52a14.14,14.14,0,0,1-3.7-.55,6.56,6.56,0,0,1-2.64-1.48,6.25,6.25,0,0,1-1.61-2.58,12.37,12.37,0,0,1-.54-4v-41.2l4.18-.78v41.86a8.77,8.77,0,0,0,.29,2.48,3.33,3.33,0,0,0,.87,1.48,3.58,3.58,0,0,0,1.51.8,20.55,20.55,0,0,0,2.22.45Z"/><path class="cls-2" d="M841.07,471.26a21.07,21.07,0,0,1,1.26-7.63,16.8,16.8,0,0,1,3.28-5.44,12.92,12.92,0,0,1,4.64-3.25,14.08,14.08,0,0,1,5.37-1.06,12.57,12.57,0,0,1,9.76,4q3.63,4,3.64,12.3c0,.34,0,.69,0,1s-.05.66-.09,1H845.52q.18,6.12,3,9.41t9,3.28a18.12,18.12,0,0,0,5.4-.65,21.49,21.49,0,0,0,2.9-1.09l.77,3.61a17.31,17.31,0,0,1-3.38,1.22,21.36,21.36,0,0,1-5.82.71,19.37,19.37,0,0,1-7.47-1.29,13.35,13.35,0,0,1-5.09-3.61,14.23,14.23,0,0,1-2.9-5.5A25.66,25.66,0,0,1,841.07,471.26Zm23.63-2.64c-.08-3.47-.9-6.18-2.44-8.11a8,8,0,0,0-6.57-2.9,8.79,8.79,0,0,0-4,.9,10.37,10.37,0,0,0-3.09,2.42,11.36,11.36,0,0,0-2.06,3.51,14.61,14.61,0,0,0-.87,4.18Z"/></svg>