<svg xmlns="http://www.w3.org/2000/svg" viewBox="0 0 68.71 11.45">
  <defs>
    <style>
      .cls-1 {
        fill: #f4c55c;
      }
    </style>
  </defs>
  <g id="note" transform="translate(-247 -1210)">
    <g id="star" transform="translate(247 1210)">
      <path id="Tracé_135" data-name="Tracé 135" class="cls-1" d="M6.287.641,7.814,4.255l3.91.336a.308.308,0,0,1,.176.54L8.934,7.7l.889,3.822a.308.308,0,0,1-.459.333L6,9.83l-3.36,2.027a.308.308,0,0,1-.459-.333L3.073,7.7.107,5.131a.308.308,0,0,1,.176-.54l3.91-.336L5.719.641a.308.308,0,0,1,.568,0Z" transform="translate(0 -0.452)"/>
    </g>
    <g id="star-2" data-name="star" transform="translate(261.176 1210)">
      <path id="Tracé_135-2" data-name="Tracé 135" class="cls-1" d="M6.287.641,7.814,4.255l3.91.336a.308.308,0,0,1,.176.54L8.934,7.7l.889,3.822a.308.308,0,0,1-.459.333L6,9.83l-3.36,2.027a.308.308,0,0,1-.459-.333L3.073,7.7.107,5.131a.308.308,0,0,1,.176-.54l3.91-.336L5.719.641a.308.308,0,0,1,.568,0Z" transform="translate(0 -0.452)"/>
    </g>
    <g id="star-3" data-name="star" transform="translate(275.351 1210)">
      <path id="Tracé_135-3" data-name="Tracé 135" class="cls-1" d="M6.287.641,7.814,4.255l3.91.336a.308.308,0,0,1,.176.54L8.934,7.7l.889,3.822a.308.308,0,0,1-.459.333L6,9.83l-3.36,2.027a.308.308,0,0,1-.459-.333L3.073,7.7.107,5.131a.308.308,0,0,1,.176-.54l3.91-.336L5.719.641a.308.308,0,0,1,.568,0Z" transform="translate(0 -0.452)"/>
    </g>
    <g id="star-4" data-name="star" transform="translate(289.527 1210)">
      <path id="Tracé_135-4" data-name="Tracé 135" class="cls-1" d="M6.287.641,7.814,4.255l3.91.336a.308.308,0,0,1,.176.54L8.934,7.7l.889,3.822a.308.308,0,0,1-.459.333L6,9.83l-3.36,2.027a.308.308,0,0,1-.459-.333L3.073,7.7.107,5.131a.308.308,0,0,1,.176-.54l3.91-.336L5.719.641a.308.308,0,0,1,.568,0Z" transform="translate(0 -0.452)"/>
    </g>
    <g id="star-5" data-name="star" transform="translate(303.703 1210)">
      <path id="Tracé_135-5" data-name="Tracé 135" class="cls-1" d="M6.287.641,7.814,4.255l3.91.336a.308.308,0,0,1,.176.54L8.934,7.7l.889,3.822a.308.308,0,0,1-.459.333L6,9.83l-3.36,2.027a.308.308,0,0,1-.459-.333L3.073,7.7.107,5.131a.308.308,0,0,1,.176-.54l3.91-.336L5.719.641a.308.308,0,0,1,.568,0Z" transform="translate(0 -0.452)"/>
    </g>
  </g>
</svg>
