<svg xmlns="http://www.w3.org/2000/svg" viewBox="0 0 141.215 141.215">
  <defs>
    <style>
      .cls-1 {
        fill: #fff;
      }

      .cls-2 {
        fill: #f4c55c;
      }

      .cls-3 {
        fill: none;
        stroke: #f4c55c;
        stroke-miterlimit: 10;
        stroke-width: 2.37px;
      }

      .cls-4 {
        fill: #f1e4b2;
      }

      .cls-5 {
        fill: #252525;
      }
    </style>
  </defs>
  <g id="pays-costarica" transform="translate(0)">
    <ellipse id="Ellipse_13" data-name="Ellipse 13" class="cls-1" cx="67.116" cy="67.116" rx="67.116" ry="67.116" transform="translate(3.492 3.501)"/>
    <path id="Tracé_282" data-name="Tracé 282" class="cls-2" d="M145.865,75.256a70.607,70.607,0,1,0-70.6,70.6,70.609,70.609,0,0,0,70.6-70.6Zm-70.6,65.438A65.438,65.438,0,1,1,140.695,75.26,65.44,65.44,0,0,1,75.266,140.694Z" transform="translate(-4.65 -4.64)"/>
    <path id="Tracé_283" data-name="Tracé 283" class="cls-3" d="M81.836,27.958a49.248,49.248,0,0,0-6.476.444l6.476-9.723L88.321,28.4a49.384,49.384,0,0,0-6.485-.444Z" transform="translate(-11.228 -5.946)"/>
    <path id="Tracé_284" data-name="Tracé 284" class="cls-3" d="M115,39.595,126.482,37.3l-2.295,11.518A48.913,48.913,0,0,0,115,39.595Z" transform="translate(-14.916 -7.678)"/>
    <path id="Tracé_285" data-name="Tracé 285" class="cls-3" d="M135.64,75.31l9.723,6.476-9.723,6.485a47.768,47.768,0,0,0,.444-6.485,46.318,46.318,0,0,0-.444-6.476Z" transform="translate(-16.836 -11.215)"/>
    <path id="Tracé_286" data-name="Tracé 286" class="cls-3" d="M124.188,115l2.295,11.482L115,124.142A48.976,48.976,0,0,0,124.188,115Z" transform="translate(-14.916 -14.907)"/>
    <path id="Tracé_287" data-name="Tracé 287" class="cls-3" d="M81.836,136.044a49.139,49.139,0,0,0,6.476-.444l-6.476,9.723L75.36,135.6a49.247,49.247,0,0,0,6.476.444Z" transform="translate(-11.228 -16.824)"/>
    <path id="Tracé_288" data-name="Tracé 288" class="cls-3" d="M48.822,124.142,37.34,126.437,39.644,115a48.65,48.65,0,0,0,9.179,9.142Z" transform="translate(-7.691 -14.907)"/>
    <path id="Tracé_289" data-name="Tracé 289" class="cls-3" d="M28.354,88.261,18.64,81.786l9.714-6.476a49.249,49.249,0,0,0-.444,6.476,50.626,50.626,0,0,0,.444,6.476Z" transform="translate(-5.952 -11.215)"/>
    <path id="Tracé_290" data-name="Tracé 290" class="cls-3" d="M39.644,48.818,37.34,37.3l11.482,2.295a48.6,48.6,0,0,0-9.178,9.224Z" transform="translate(-7.691 -7.678)"/>
    <path id="Tracé_291" data-name="Tracé 291" class="cls-4" d="M42.56,28.162l2.4-1.723,14.285,2.875,8.126-12.153,2.884-.481L60.237,31.69Z" transform="translate(-8.177 -5.76)"/>
    <path id="Tracé_292" data-name="Tracé 292" class="cls-4" d="M91.82,16.69l2.911.481,8.1,12.117,14.339-2.875,2.376,1.7L101.86,31.673Z" transform="translate(-12.76 -5.761)"/>
    <path id="Tracé_293" data-name="Tracé 293" class="cls-4" d="M135.3,42.58l1.714,2.4-2.866,14.285L146.3,67.395l.481,2.884L131.77,60.266Z" transform="translate(-16.476 -8.17)"/>
    <path id="Tracé_294" data-name="Tracé 294" class="cls-4" d="M146.762,91.85l-.481,2.911-12.126,8.081,2.857,14.339-1.7,2.385-3.546-17.695Z" transform="translate(-16.476 -12.753)"/>
    <path id="Tracé_295" data-name="Tracé 295" class="cls-4" d="M119.537,135.326l-2.4,1.714-14.285-2.884L94.7,146.3l-2.884.481,10.04-15Z" transform="translate(-12.76 -16.468)"/>
    <path id="Tracé_296" data-name="Tracé 296" class="cls-4" d="M70.306,146.754l-2.911-.481L59.3,134.156l-14.339,2.875-2.385-1.7,17.695-3.555Z" transform="translate(-8.179 -16.468)"/>
    <path id="Tracé_297" data-name="Tracé 297" class="cls-4" d="M28.071,119.555l-1.705-2.4,2.911-14.276L17.152,94.7,16.68,91.82l14.983,10.067Z" transform="translate(-5.769 -12.751)"/>
    <path id="Tracé_298" data-name="Tracé 298" class="cls-4" d="M16.68,70.316l.481-2.911,12.117-8.09L26.412,44.975l1.7-2.385,3.555,17.695Z" transform="translate(-5.769 -8.171)"/>
    <path id="Tracé_299" data-name="Tracé 299" class="cls-5" d="M55.954,98.835c.063.163.789,1.868-.354,1.959-.526,0-1.116-.571-1.333-1.3a1.288,1.288,0,0,1,.127-1.134c-.789-1.451-1.814-2.1-2.349-1.95a.612.612,0,0,1-.29-1.188C53.451,94.8,55.1,96.686,55.954,98.835Zm81.763-23.527c0,12.38-15.727,22.983-38.093,27.436a8.045,8.045,0,0,1-2.839,3.029,3.292,3.292,0,0,1-2.249.281l-.073.58a22.792,22.792,0,0,1-1.188,4.662c-2.458,7.247-7.564,10.349-13.006,11.328a1.424,1.424,0,0,0-.526.181,5.133,5.133,0,0,1-3.51.853H74.973a5.133,5.133,0,0,1-3.51-.853,1.5,1.5,0,0,0-.526-.181c-5.442-.961-10.566-4.063-13.051-11.31a22.792,22.792,0,0,1-1.2-4.68l-.073-.58a3.31,3.31,0,0,1-2.258-.281,8.507,8.507,0,0,1-3.011-3.31C29.743,97.856,14.66,87.435,14.66,75.309c0-16.38,22.1-44.079,61.238-44.079s61.819,27.7,61.819,44.079ZM46.241,84.723h0c0-.045-.154-.073-.227-.082h-.209a.608.608,0,0,0-.272,0,2.513,2.513,0,0,1-.735.054h-.063a1.924,1.924,0,0,1-.426,0c-.508-.118-.635-.408-.644-.508h0a1.569,1.569,0,0,0-.907-.254H42.4a2.721,2.721,0,0,0-.816.091.186.186,0,0,0-.172.145c0,.063.145.181.444.281s.29.136.3.218,0,.127-.127.172-.127.109-.118.163a3.088,3.088,0,0,0,1.079.417c.254.054.435.19.444.326s-.082.2-.254.263-.381.19-.39.308.19.354.671.635c.19.109.227.181.227.227s0,.073-.109.109a4.172,4.172,0,0,1-1.279.19c-.735,0-.843.154-.862.227s.163.245.336.345l.118.073s.063.063.063.091a2.777,2.777,0,0,1-1.288.354c-.7.063-.907.127-.98.227s.073.163.209.272l.082.073s.054.063,0,.082,0,.073-.172.118a7.9,7.9,0,0,1-2,.2c-1.206,0-1.351.145-1.533.281a1.288,1.288,0,0,1-.453.154A8.008,8.008,0,0,1,33.7,90.2a12.339,12.339,0,0,1-1.814-.091,6.53,6.53,0,0,1-1.723-.281l.154-.063a1.271,1.271,0,0,1,.363,0,8.017,8.017,0,0,1,1.379.1l1.333.109H34.3a5.7,5.7,0,0,0,1.415-.136c.245-.073.381-.154.39-.254s-.063-.145-.19-.209a3.855,3.855,0,0,0-1.333-.227H34.1a11.429,11.429,0,0,1-1.542-.091h-.073a.22.22,0,0,1,.145-.091h.227c.39,0,1.043.054,1.623.109.444,0,.907.091,1.442.118s.762,0,1.106,0a6.076,6.076,0,0,0,1.678-.127c.163-.063.245-.136.245-.209s-.118-.172-.336-.245a6.349,6.349,0,0,0-1.741-.19h-.735a6.993,6.993,0,0,1-1.515-.118c-.154,0-.181-.073-.181-.082h0A.653.653,0,0,1,34.8,88.1h.236c.408,0,1.007.063,1.578.127.4,0,.853.091,1.27.118s.907.054,1.342.054a8.6,8.6,0,0,0,1.333-.091q.68-.109.653-.354c0-.154-.272-.281-.726-.354a7.075,7.075,0,0,0-1.252-.091H38.033c-.444,0-.726.045-1.034.045a6.786,6.786,0,0,1-.907-.054c-.326-.063-.354-.145-.354-.163s0-.109.336-.145a3.11,3.11,0,0,1,.453,0,7.166,7.166,0,0,1,1.17.073,25.351,25.351,0,0,0,2.54.145,5.8,5.8,0,0,0,1.56-.154c.227-.063.354-.154.354-.254s-.172-.254-.5-.363a7.1,7.1,0,0,0-2.15-.29H36.926a3.628,3.628,0,0,1-.553,0,.258.258,0,0,1-.263-.172.585.585,0,0,1,.127-.054,2.838,2.838,0,0,1,.58,0c.453,0,1.116,0,1.814.063h1.642A8.751,8.751,0,0,0,42,86.056c.272-.054.435-.136.472-.236a.145.145,0,0,0,0-.145,1.959,1.959,0,0,0-1.2-.444,10.032,10.032,0,0,0-1.451-.091,13.777,13.777,0,0,0-1.714.1,10.567,10.567,0,0,1-1.2.073h-.444A.491.491,0,0,1,36,85.095c-.054-.082,0,0,.136-.054a5.172,5.172,0,0,1,.689,0,12.412,12.412,0,0,1,1.451.063c.444,0,.907.045,1.261.045a8.8,8.8,0,0,0,1.442-.1c.263-.054.58-.136.644-.29a.145.145,0,0,0,0-.136c-.082-.127-.354-.227-.816-.308a18.139,18.139,0,0,0-2.721-.163H36.418c-1.886.073-2.639.653-2.939,1.134a1.678,1.678,0,0,0-.063,1.542.4.4,0,0,1,0,.39c-.417.843-3.038,1.868-4.734,2.231a13.24,13.24,0,0,1-2.458.336,2.837,2.837,0,0,1-.508,0c-.39-.073-.463-.127-.472-.154a6.757,6.757,0,0,1,1.741-.444,27.028,27.028,0,0,0,3.4-.88c1.007-.354,1.578-.78,1.7-1.27a1.36,1.36,0,0,0-.517-1.233.68.68,0,0,1-.245-.562c.054-.29.453-.463.717-.59s.327-.136.3-.218-.082-.145-.6-.254a13.668,13.668,0,0,0-2.485-.172h-.807a10.131,10.131,0,0,1-1.914-.172,2.884,2.884,0,0,1-1.5-.571.109.109,0,0,1,0-.1c.045-.145.372-.263.626-.354a1.442,1.442,0,0,0,.408-.19.816.816,0,0,0,.154-.218s.063-.118.127-.127a1.814,1.814,0,0,1,.254.136c.1.063.236.154.444.263a2.721,2.721,0,0,0,.907.227,6.664,6.664,0,0,0,.771,0,8.826,8.826,0,0,0,1.415-.082c.508-.082.961-.154,1-.3a.136.136,0,0,0-.082-.136,1.533,1.533,0,0,0-.544-.209c-.662-.181-1.814-.5-1.977-1.161-.336-1.034-1.814-1.868-4.363-2.485-1.515-.354-3.156-.617-4.471-.816a10.946,10.946,0,0,1-2.422-.435s0-.054.281-.118a1.967,1.967,0,0,1,.453,0,21.351,21.351,0,0,1,2.893.336,36.542,36.542,0,0,1,7.256,2.041,2.186,2.186,0,0,0-.653-.1h-.118c-.19,0-.29,0-.308.109a.1.1,0,0,0,.054.1.807.807,0,0,0,.381.073h.045a.49.49,0,0,0,.218,0h.3c.136,0,.154-.054.154-.063h0a2.6,2.6,0,0,1,.907.571,9.07,9.07,0,0,0,6.34,2.494h1.705a13.152,13.152,0,0,0,2.494-.163c.254-.054.408-.136.444-.218a.1.1,0,0,0,0-.109c-.109-.172-.5-.308-1.116-.408a10.421,10.421,0,0,0-1.6-.009H36.21c-.408,0-.989.063-1.37.063a6.774,6.774,0,0,1-.744,0c-.181,0-.245-.073-.254-.091a.073.073,0,0,1,0-.082.3.3,0,0,1,.2-.091,2.394,2.394,0,0,1,.408,0,8.226,8.226,0,0,1,1.306.082,13.5,13.5,0,0,0,1.814.091A9.017,9.017,0,0,0,38.9,81.7c.29,0,.644-.136.707-.3a.145.145,0,0,0,0-.145A1.442,1.442,0,0,0,38.7,80.9a11.672,11.672,0,0,0-1.886-.127h-1.6c-.653,0-1.279.054-1.732.054a5.309,5.309,0,0,1-.626,0,.544.544,0,0,1-.3-.127s-.063-.082-.054-.109,0,0,.082,0a2.884,2.884,0,0,1,.508,0h2.73a4,4,0,0,0,1.814-.29c.109-.073.163-.145.145-.227a1.115,1.115,0,0,0-.753-.39,8.326,8.326,0,0,0-1.678-.136,20.706,20.706,0,0,0-2.349.145,9.776,9.776,0,0,1-1.079.073,3.981,3.981,0,0,1-.49,0,1.034,1.034,0,0,1-.544-.163s-.054,0,0-.063,0,0,.163-.082a4.153,4.153,0,0,1,.8-.054h1.088c.417,0,.907.045,1.261.045a5.242,5.242,0,0,0,1.143-.091.347.347,0,0,0,.363-.209c.018-.091,0-.109-.082-.163a2.249,2.249,0,0,0-1.079-.345,11.172,11.172,0,0,0-1.442-.082H31.82a7.14,7.14,0,0,0-1.079.118h0c-.49.054-1.007.127-1.415.127h-.39a2,2,0,0,1-.544-.136.09.09,0,0,1-.1-.073l.073-.045a5.442,5.442,0,0,1,1.36-.118h.726a3.628,3.628,0,0,0,1.451-.19c.082,0,.109-.091.1-.145a1.755,1.755,0,0,0-.653-.336,8.354,8.354,0,0,0-1.705-.154H28.528a11.91,11.91,0,0,0-1.315.172,8.916,8.916,0,0,1-1.233.136h-.127a1.261,1.261,0,0,1-.435-.127h0a8.054,8.054,0,0,1,1.741-.163,1.6,1.6,0,0,0,1.052-.227.118.118,0,0,0,0-.118c0-.127-.317-.245-.762-.336a8.018,8.018,0,0,0-1.6-.063h-.907l-1.2.118c-.553.054-.907.091-1.252.091a2.72,2.72,0,0,1-.408,0c-.245-.054-.263-.082-.272-.091s.091-.118,1.342-.254a13.767,13.767,0,0,1,1.787-.1,11.472,11.472,0,0,1,2.44.236,4.589,4.589,0,0,1,.853.254,4.535,4.535,0,0,0,1.868.272,12.4,12.4,0,0,1,2.267.2c.336.082.408.163.417.218v.073c0,.281.091.372,1.379.49a3.918,3.918,0,0,1,1.814.408h0v.073a.3.3,0,0,0,0,.263c.109.163.5.254,1.215.3a6.911,6.911,0,0,1,1.542.2.571.571,0,0,1,.354.209.145.145,0,0,1,0,.136.535.535,0,0,0,0,.453c.1.2.372.345.907.481s.744.327.753.463-.073.109-.136.127c-.336.1-.608.2-.608.336s.109.163.336.245.453.218.463.3,0,.063-.073.091-.181.136-.172.2.218.181.39.227a4.072,4.072,0,0,0,.907.091h.317c.236,0,.526-.063.6-.181a.082.082,0,0,0,0-.091h0c-.082-.063-.227-.218-.2-.345s.073-.109.163-.145a1.288,1.288,0,0,1,.372,0h.063a3.3,3.3,0,0,1,.816.054,1.043,1.043,0,0,0,.327.045h.145c.136,0,.154-.054.154-.063h-.082a4.925,4.925,0,0,0-1.451-.272H43a2.821,2.821,0,0,0-.834.1q-.272.082-.3.245a.755.755,0,0,0,.218.435c.054.063,0,0-.2.054H41.76a1.568,1.568,0,0,1-.381-.045c-.127,0-.136-.063-.136-.073s0,0,.1-.091.145-.145.136-.2a1.122,1.122,0,0,0-.617-.426c-.154-.054-.181-.082-.181-.1a2.378,2.378,0,0,1,.472-.218c.127-.036.272-.181.272-.254,0-.218-.408-.463-.989-.617-.417-.1-.626-.209-.7-.354a.472.472,0,0,1,0-.39.254.254,0,0,0,0-.2c-.054-.127-.236-.227-.526-.317a8.753,8.753,0,0,0-2-.272c-.372,0-.535-.054-.58-.127s0-.091,0-.2a.578.578,0,0,1,0-.063.127.127,0,0,0,0-.109,4.78,4.78,0,0,0-2.349-.58c-.8-.073-.8-.073-.816-.281v-.082c0-.136-.245-.263-.671-.363a14.231,14.231,0,0,0-2.775-.263,2.884,2.884,0,0,1-1.252-.181,5.622,5.622,0,0,0-.989-.3,14.511,14.511,0,0,0-2.984-.281,17.894,17.894,0,0,0-2,.109c-1.478.163-1.678.308-1.687.408s.181.19.59.272a5.179,5.179,0,0,0,.907.073c.481,0,.989-.054,1.533-.109l1.125-.1a6.346,6.346,0,0,1,.707,0,5.968,5.968,0,0,1,1.07.091c.317.063.453.145.463.2a1.126,1.126,0,0,1-.562.118,8.345,8.345,0,0,0-2.177.236.107.107,0,0,0-.1.1c0,.036,0,.091.127.136a2.34,2.34,0,0,0,.907.227,2.557,2.557,0,0,0,.372,0,10.966,10.966,0,0,0,1.6-.136c.39-.054.789-.118,1.2-.154a7.505,7.505,0,0,1,.907,0,5.95,5.95,0,0,1,1.161.1c.272.063.381.136.39.181s0,0-.045.045a2.4,2.4,0,0,1-.907.1h-.744a6.938,6.938,0,0,0-1.814.181.182.182,0,0,0-.19.154c0,.054.073.136.209.19a3.238,3.238,0,0,0,1.007.227,4.26,4.26,0,0,0,.49,0,15.747,15.747,0,0,0,1.723-.136c.345,0,.68-.091.989-.118s.753,0,1.1,0a6.531,6.531,0,0,1,1.061.054,1.542,1.542,0,0,1,.689.227l.036-.018s0,.054-.172.082a3.436,3.436,0,0,1-.726.054H32.963c-.408,0-.907-.054-1.288-.054a5.941,5.941,0,0,0-1.288.1.341.341,0,0,0-.354.2c-.018.082,0,.109.091.163a2.267,2.267,0,0,0,.989.281,7.62,7.62,0,0,0,.816,0,12.088,12.088,0,0,0,1.351-.082,18.315,18.315,0,0,1,2.086-.136,5.678,5.678,0,0,1,1.152.091c.272.054.453.136.463.227s0,.109-.1.136a2.657,2.657,0,0,1-1.224.2H34.541c-.608,0-1.143-.054-1.569-.054a3.891,3.891,0,0,0-.907.082.262.262,0,0,0-.263.154.245.245,0,0,0,.082.19,1.143,1.143,0,0,0,.662.245,6.566,6.566,0,0,0,1.052.063c.526,0,1.152,0,1.877-.063h1.451a9.524,9.524,0,0,1,1.433.091c.308.054.5.127.562.227a.073.073,0,0,1,0,.073.8.8,0,0,1-.453.181,7.255,7.255,0,0,1-.989.054,10.591,10.591,0,0,1-1.551-.082,11.514,11.514,0,0,0-1.6-.091,4.463,4.463,0,0,0-.762.054.486.486,0,0,0-.453.2.154.154,0,0,0-.009.136c.082.127.4.2.644.236a7.919,7.919,0,0,0,1.152.073,12.374,12.374,0,0,0,1.578-.073h1a8.534,8.534,0,0,1,1.161.073c.408.063.68.154.744.254a.449.449,0,0,1-.254.118,11.31,11.31,0,0,1-2.059.127H35.457a8.417,8.417,0,0,1-5.714-2.485c-.843-1.007-6.068-2.358-8.516-2.775a21.56,21.56,0,0,0-3.356-.372,3.863,3.863,0,0,0-.907.082c-.281.063-.426.136-.453.218a.091.091,0,0,0,0,.091,8.906,8.906,0,0,0,2.721.608c1.288.2,2.893.453,4.335.8,2.422.58,3.8,1.37,4.118,2.349.236.735,1.5,1.1,2.177,1.288a3.282,3.282,0,0,1,.363.109h0s-.063.1-.617.154a10.762,10.762,0,0,1-1.17.063,3.34,3.34,0,0,1-.463,0,1.379,1.379,0,0,1-.5-.127c-.19-.1-.317-.181-.426-.245a1.542,1.542,0,0,0-1.007-.263c-.58,0-.644.118-.726.254a.708.708,0,0,1-.136.2,1.678,1.678,0,0,1-.317.136c-.3.109-.68.245-.744.435a.218.218,0,0,0,0,.181,3.465,3.465,0,0,0,1.814.7,13.367,13.367,0,0,0,2.394.209h.816a12.426,12.426,0,0,1,1.959.109.907.907,0,0,1,.317.109h0l-.218.109c-.29.127-.735.327-.8.671a.726.726,0,0,0,.272.635,1.3,1.3,0,0,1,.617,1.152c-.109.453-.644.843-1.578,1.17a27.49,27.49,0,0,1-3.31.8,5.32,5.32,0,0,0-1.959.544.127.127,0,0,0,0,.082c.045.1.3.2.8.29a5.442,5.442,0,0,0,.98.082A13.9,13.9,0,0,0,29.1,89.6c1.714-.372,4.471-1.424,4.934-2.34a.508.508,0,0,0,0-.453A1.551,1.551,0,0,1,34.1,85.34c.263-.426.907-.907,2.44-1.007H38.1a14.676,14.676,0,0,1,2.231.127c.345.054.444.127.472.172a.054.054,0,0,1,0,.063c0,.063-.172.127-.408.172a6.528,6.528,0,0,1-1.061.073H38.286c-.653,0-1.215-.073-1.678-.073a6.223,6.223,0,0,0-1.061.073.38.38,0,0,0-.363.163.109.109,0,0,0,0,.091,1.288,1.288,0,0,0,.907.345,5.643,5.643,0,0,0,.825.054,11.627,11.627,0,0,0,1.524-.154,13.237,13.237,0,0,1,1.442-.073,9.07,9.07,0,0,1,1.061.054,1.4,1.4,0,0,1,.807.272.091.091,0,0,1,0,.082.6.6,0,0,1-.272.127,6.757,6.757,0,0,1-1.324.082H38.649c-.762,0-1.433-.054-1.95-.054a5.278,5.278,0,0,0-.98.063.37.37,0,0,0-.336.154.118.118,0,0,0,0,.109c.054.163.245.263.6.327a5.125,5.125,0,0,0,1.025.082c.426,0,.907,0,1.515-.054h1.034a5.125,5.125,0,0,1,1.487.2c.218.073.354.163.345.236s-.073.091-.19.127a4.072,4.072,0,0,1-1.043.091,14.192,14.192,0,0,1-2.249-.136q-.843-.082-1.469-.082a6.148,6.148,0,0,0-.762,0c-.29,0-.626.118-.635.29s.236.272.689.354a7.99,7.99,0,0,0,1.342.091H39.3a4.718,4.718,0,0,1,.8,0c.345.063.372.154.381.181s-.136.163-.4.209a6.809,6.809,0,0,1-.98.054H37.951l-1.143-.109a18.031,18.031,0,0,0-1.886-.263h-.463a1.27,1.27,0,0,0-.726.236.1.1,0,0,0,0,.118c0,.082.163.154.417.218a9.542,9.542,0,0,0,2.077.181h.735a4.136,4.136,0,0,1,1.116.109c.145,0,.154.091.154.1a.222.222,0,0,1-.127.091,3.991,3.991,0,0,1-1.2.118H36l-1.351-.109c-.707-.063-1.379-.127-1.9-.127a4.458,4.458,0,0,0-.535,0c-.29,0-.435.118-.444.236s.091.145.3.209a13.113,13.113,0,0,0,2.068.154h.426a1.986,1.986,0,0,1,.717.118.106.106,0,0,1,.1.091c0,.027-.091.1-.227.136a3.691,3.691,0,0,1-.907.091H33.5l-1.279-.109c-.608-.054-1.179-.109-1.66-.109a3.629,3.629,0,0,0-.789.073c-.209.063-.308.118-.327.181s0,.073.054.109a7.546,7.546,0,0,0,2.195.4c.735.073,1.451.109,2.131.109a9.324,9.324,0,0,0,2.621-.29,1.533,1.533,0,0,0,.617-.3c.154-.118.209-.154,1.007-.172a9.786,9.786,0,0,0,2.44-.263q.272-.091.3-.218a.181.181,0,0,0-.082-.163l-.091-.082c-.091-.073-.181-.145-.172-.163a2.506,2.506,0,0,1,.608-.1c.97-.091,1.605-.281,1.66-.5a.175.175,0,0,0-.118-.19l-.127-.082c-.082-.054-.29-.172-.272-.227s.308-.073.408-.082a4.979,4.979,0,0,0,1.669-.272c.118-.054.172-.127.172-.2s-.082-.2-.29-.317c-.426-.254-.617-.417-.608-.535s.1-.136.281-.209.381-.227.372-.381-.29-.39-.717-.481c-.254-.063-.8-.181-.807-.263s0,0,0-.063c.181-.091.209-.19.2-.263a.745.745,0,0,0-.481-.354c-.29-.091-.263-.136-.263-.136H42.2a1.007,1.007,0,0,1,.327,0h.136a.6.6,0,0,1,.327.082c0,.073.091.472.907.653a4.29,4.29,0,0,0,.961.1H44.9a3.211,3.211,0,0,0,1.288-.136C46.222,84.75,46.241,84.741,46.241,84.723ZM31.094,89.475c.054.082.345.127.59.127s.408,0,.453-.1c-.045-.082-.345-.127-.59-.127s-.408,0-.453.091T31.094,89.475Zm2.394.091c.073.109.453.172.789.172s.544,0,.6-.136a.073.073,0,0,0,0-.063,1.4,1.4,0,0,0-.789-.163c-.245,0-.553,0-.6.127A.073.073,0,0,0,33.489,89.566Zm-.707-1.016c.054.082.345.118.59.118s.408,0,.453-.091v-.054c-.054-.082-.345-.127-.59-.127s-.408,0-.444.1a.054.054,0,0,0-.009.054Zm3.51.245c.063.109.453.163.789.163s.544,0,.6-.127v-.054c-.063-.109-.453-.172-.789-.172s-.544,0-.6.127a.054.054,0,0,0,0,.063Zm-1.07-3c.19,0,.417,0,.453-.1-.054-.082-.354-.127-.6-.127s-.408,0-.444.091v.054a1.813,1.813,0,0,0,.59.082Zm-.127.771c-.181,0-.408,0-.444.091a.054.054,0,0,0,0,.054c.054.082.345.127.6.127s.408,0,.444-.1,0,0,0-.045a1.228,1.228,0,0,0-.6-.127Zm-.481.952c-.181,0-.408,0-.444.1a.054.054,0,0,0,0,.054c.054.082.345.127.6.127s.408,0,.444-.1a.054.054,0,0,0,0-.054c-.054-.082-.345-.127-.6-.127Zm3.755.363c.063.1.453.163.789.163s.544,0,.59-.127v-.063c-.063-.1-.453-.163-.789-.163s-.544,0-.6.127a.054.054,0,0,0,.009.063Zm.989-1.043c.073.109.463.172.8.172s.544,0,.59-.127v-.063c-.063-.1-.444-.163-.78-.163s-.553,0-.6.127a.054.054,0,0,0-.009.054Zm.426-1.143c.063.109.453.163.789.163s.544,0,.6-.118a.054.054,0,0,0,0-.063c-.063-.109-.453-.163-.789-.163s-.544,0-.6.127v.054Zm-.8-1.043a1.415,1.415,0,0,0,.789.163c.245,0,.544,0,.6-.127a.073.073,0,0,0,0-.063,1.433,1.433,0,0,0-.8-.163c-.236,0-.544,0-.59.127a.082.082,0,0,0,0,.063ZM23.349,77.395c.054.082.345.127.59.127s.408,0,.453-.1h0a2.021,2.021,0,0,0-.6-.145c-.245,0-.408,0-.444.091a.054.054,0,0,0,0,.063Zm2.884.907c0,.082.345.127.59.127s.408,0,.444-.1c-.054-.082-.345-.127-.59-.127s-.408,0-.453.091l.009.063Zm2.512.907c.054.082.345.127.6.127s.408,0,.444-.1c-.054-.082-.345-.127-.6-.127s-.408,0-.444.091a.054.054,0,0,0,0,.036Zm1.723.961c0,.082.336.118.59.118s.408,0,.444-.091a.054.054,0,0,0,0-.054c-.054-.082-.345-.127-.59-.127s-.408,0-.453.1l.009.082Zm1.315,1.043c.054.082.354.118.6.118s.408,0,.444-.091v-.054c0-.082-.336-.127-.58-.127s-.417,0-.453.1a.054.054,0,0,0-.009.082Zm5.659,1.016a1.433,1.433,0,0,0,.8.163c.245,0,.535,0,.59-.127a.073.073,0,0,0,0-.063,1.4,1.4,0,0,0-.789-.163c-.245,0-.553,0-.6.127a.082.082,0,0,0,0,.091Zm-.553-1.052c.073.109.453.163.789.163s.544,0,.6-.127v-.054c-.063-.109-.453-.172-.789-.172s-.544,0-.59.127a.073.073,0,0,0-.009.091ZM35,80.034c.063.1.453.163.789.163s.544,0,.59-.127,0,0,0-.063a1.548,1.548,0,0,0-.789-.163c-.336,0-.544,0-.6.127a.054.054,0,0,0,.009.091ZM32.672,79a1.4,1.4,0,0,0,.789.163c.245,0,.544,0,.6-.127a.054.054,0,0,0,0-.063c-.063-.1-.444-.163-.789-.163s-.544,0-.6.127a.154.154,0,0,0,0,.091Zm-3.256-.907c.063.1.453.163.789.163s.544,0,.6-.127a.054.054,0,0,0,0-.063c-.063-.109-.453-.163-.789-.163s-.544,0-.6.127-.009.054,0,.082Zm-3.791-.78c.073.109.453.172.8.172s.544,0,.59-.127a.054.054,0,0,0,0-.063c-.073-.109-.463-.163-.8-.163s-.544,0-.59.118a.073.073,0,0,0,0,.082Zm17.523,5.868c0-.073.163-.145.517-.145h.073a3.248,3.248,0,0,1,.807.054,1.079,1.079,0,0,0,.327,0h.154c.127,0,.145,0,.145-.054H45.1a5.36,5.36,0,0,0-1.46-.136h-.082c-.435,0-.989.054-1.116.29a.308.308,0,0,0,.054.317c.308.481,1.252.562,1.814.562h.082a3.211,3.211,0,0,0,1.288-.136s0,0,0-.054-.145-.073-.236-.082H45.27a.644.644,0,0,0-.272,0,2.43,2.43,0,0,1-.735.054H44.2a1.134,1.134,0,0,1-.989-.381h0a.245.245,0,0,1-.063-.272Zm2.839.907h0a.354.354,0,0,0-.227-.073h-.172a.662.662,0,0,0-.281,0,2.467,2.467,0,0,1-.726.054H44.5c-.127,0-.272,0-.3.063h0c0,.063.227.091.39.091h.082a3.138,3.138,0,0,0,1.279-.136l.036.045Zm-.045.172h-.136a.7.7,0,0,0-.272,0,2.585,2.585,0,0,1-.735.054h-.073c-.127,0-.272,0-.3.063h0c0,.063.227.091.39.091H44.9a3.193,3.193,0,0,0,1.27-.136h0v-.045a1.173,1.173,0,0,1-.227.018Zm-.807-1.533h-.082a4.834,4.834,0,0,0-1.451-.136h-.073c-.063,0-.272,0-.3.063h0c0,.054.227.082.4.082H43.7a3.2,3.2,0,0,1,.8.054,1.115,1.115,0,0,0,.327,0h.163c.127,0,.136-.045.136-.063Zm-.19-.29h-.082a5.623,5.623,0,0,0-1.442-.127h-.073c-.063,0-.263,0-.3.063h0a.726.726,0,0,0,.408.082h.063a3.628,3.628,0,0,1,.807.054,1.089,1.089,0,0,0,.317,0h.163c.082,0,.127,0,.136-.063Zm-3.628,1.034c0,.045-.145.109-.4.136s-.181,0-.181.073,0,.054.054.073a1.152,1.152,0,0,0,.354,0h.127c.417,0,.7-.136.762-.263a.145.145,0,0,0,0-.145,1.714,1.714,0,0,0-1.052-.363H40.8a.671.671,0,0,0-.272,0v.054c0,.054.145.082.227.091a1.007,1.007,0,0,1,.608.218.136.136,0,0,1-.091.172Zm-3.029.181c-.082,0-.209,0-.227.073h0a.789.789,0,0,0,.372.073h.054a1.9,1.9,0,0,0,.907-.145.082.082,0,0,0,0-.063c-.082-.127-.762-.163-1.052-.181h-.054c-.073,0-.3,0-.308.082h0a.535.535,0,0,0,.272.209Zm-.354-.562c-.091,0-.218,0-.236.073a.072.072,0,0,0,0,.054.825.825,0,0,0,.381.063h.054c.363,0,.825,0,.907-.145s0,0,0-.054A3.364,3.364,0,0,0,38,82.9h-.063c-.063,0-.3,0-.308.082h0a.68.68,0,0,0,.272.154Zm-2.077.272c-.091,0-.209,0-.236.073a.063.063,0,0,0,0,.054.907.907,0,0,0,.381.073h.054c.3,0,.825,0,.907-.145v-.054c-.082-.127-.689-.163-1.043-.181h-.091c-.063,0-.29,0-.3.082h0a.736.736,0,0,0,.3.145Zm-3.247,4.072h.118a1.016,1.016,0,0,0,.526-.109h0A.716.716,0,0,0,33,87.253h-.29a1.179,1.179,0,0,0-.281,0h0a.535.535,0,0,0-.3.054h0c-.045.082.136.154.444.172Zm-.209.49a.345.345,0,0,0-.163-.063h-.508a.771.771,0,0,0-.29,0v.082a.686.686,0,0,0,.3.118h.209a1.451,1.451,0,0,0,.417-.054h.073Zm.907-1.379h0a1.409,1.409,0,0,0-.345-.082h-.571c-.082,0-.227,0-.245.073a.054.054,0,0,0,0,.054,1.252,1.252,0,0,0,.662.154h0c.3,0,.463-.063.463-.154Zm-.2-.744h0a.608.608,0,0,0-.354-.082h-.045c-.063,0-.263,0-.3.073h0a.816.816,0,0,0-.372-.073h-.063c-.082,0-.227,0-.245.082a.073.073,0,0,0,0,.054,1.524,1.524,0,0,0,.816.19h0C32.854,86.011,33.108,85.938,33.108,85.8ZM33.452,85v-.054c0-.054-.218-.073-.281-.082h-.118a.626.626,0,0,0-.3.054l-.073.054a.209.209,0,0,1-.063-.063c0-.063-.254-.091-.408-.091s-.272,0-.3.063h0c.063.145.345.245.726.263h.109A1.043,1.043,0,0,0,33.416,85Zm-2.721-3.084.154.054a.907.907,0,0,0,.354.054h.054c.1,0,.163,0,.181-.063h0a.091.091,0,0,0-.045,0,2.322,2.322,0,0,0-.907-.181h-.136c-.172,0-.39,0-.435.145a.136.136,0,0,0,0,.145.707.707,0,0,0,.4.082h0c.063,0,.254,0,.29-.073h0ZM28.7,81.077h0a.626.626,0,0,0,.345.073H29.1c.063,0,.263,0,.3-.073h0a.907.907,0,0,0,.381.073h.054c.082,0,.227,0,.245-.073h0a1.342,1.342,0,0,0-.8-.19c-.417.018-.635.018-.644.19Zm.054-.7a1.016,1.016,0,0,0,.245,0h.054c.063,0,.227,0,.254-.073h0a1.261,1.261,0,0,0-.662-.154c-.29,0-.472.063-.481.163h0a.662.662,0,0,0,.336.082h.063a.68.68,0,0,0,.127-.018Zm2.2,2.4c-.172,0-.39,0-.417.091a.054.054,0,0,0,0,.054c0,.073.317.118.553.118s.39,0,.426-.091a.054.054,0,0,0,0-.054.989.989,0,0,0-.626-.118Zm.254,1.188c0,.082.327.118.562.118s.381,0,.417-.091a.054.054,0,0,0,0-.054c-.045-.073-.327-.118-.562-.118s-.39,0-.426.091a.118.118,0,0,0-.054.054Zm1.324-.689c.172,0,.39,0,.426-.091v-.054c0-.073-.317-.118-.553-.118s-.39,0-.426.091a.054.054,0,0,0,0,.054.989.989,0,0,0,.49.118Zm-.227.39c.045.082.327.127.562.127s.381,0,.417-.1c-.045-.082-.327-.118-.562-.118s-.381,0-.417.091h-.063Zm1.415-.145c.181,0,.39,0,.426-.091v-.054c0-.073-.317-.118-.553-.118s-.39,0-.426.091c-.018.127.263.172.49.172Zm-7.147-4.644a.251.251,0,0,1-.136-.063,2.767,2.767,0,0,0-.472-.054h-.2c-.118,0-.172,0-.181.082s0,.082.127.109a.907.907,0,0,0,.345.054h.263a.853.853,0,0,0,.181,0h.082Zm-1.814-.517A.314.314,0,0,1,24.6,78.3a2.639,2.639,0,0,0-.444,0,.907.907,0,0,0-.236,0c-.1,0-.145,0-.154.082s.054.073.172.118a1.533,1.533,0,0,0,.317,0h.272a.426.426,0,0,0,.172,0,.109.109,0,0,0,.073-.045h0ZM22.9,77.939h0a1.528,1.528,0,0,0-.236-.073,2.375,2.375,0,0,0-.345,0,1.414,1.414,0,0,0-.317,0c-.054,0-.091,0-.082.073s0,.082.254.136h.553a.363.363,0,0,0,.145,0Zm-3.546-.345c0,.054.118.082.209.091a7.008,7.008,0,0,0,.789.063,1.614,1.614,0,0,0,.417,0,.2.2,0,0,0,.109-.063.118.118,0,0,0,0-.054.907.907,0,0,0-.481-.2,1.225,1.225,0,0,0-.281,0,.653.653,0,0,0-.2,0c-.073,0-.109,0-.109.063s0,.063.118.082h-.254a.907.907,0,0,0-.263,0c-.118-.018-.118,0-.118.018Zm.172-.172v-.063a1.415,1.415,0,0,0-.789-.163c-.245,0-.544,0-.6.127a.054.054,0,0,0,0,.063c.063.1.453.163.789.163s.481-.036.571-.127Zm7.909,5.759A1.515,1.515,0,0,0,26.578,83c-.263,0-.59,0-.644.136a.082.082,0,0,0,0,.063c.073.118.5.181.862.181s.59,0,.644-.136a.082.082,0,0,0-.063-.063Zm3.827,5.306a.236.236,0,0,0-.127-.063H30.6a.816.816,0,0,0-.263,0c-.054,0-.073.054-.073.091s.145.091.254.109a1.2,1.2,0,0,0,.254,0,1.814,1.814,0,0,0,.4,0h.091Zm-1.306.435a.091.091,0,0,0-.073,0H29.58a1.034,1.034,0,0,0-.245,0,.844.844,0,0,0-.236,0c-.091,0-.136.054-.136.091s.063.082.172.1a1.415,1.415,0,0,0,.354,0,1.985,1.985,0,0,0,.327,0c.082,0,.136,0,.145-.054h0Zm-2.367.417h0s-.063,0-.063.054.073.073.19.091h.218a.908.908,0,0,0,.254,0c.145-.054.218-.1.236-.154a.073.073,0,0,0,0-.063.327.327,0,0,0-.227-.1,2.277,2.277,0,0,0-.463-.045,4.771,4.771,0,0,0-.707.063c-.082,0-.127,0-.127.073s0,.054.1.073a.961.961,0,0,0,.3,0h.181Zm-.263.163c-.063-.109-.453-.172-.789-.172s-.544,0-.6.127a.054.054,0,0,0,0,.063c.063.109.453.163.789.163s.544,0,.59-.127a.054.054,0,0,0-.054-.054ZM99.806,93.04h-.073c-1.079-.345-2.648.109-3.882,1.814A27.757,27.757,0,0,0,94.038,98a.617.617,0,0,1-.49.245.6.6,0,0,1-.245-.054.608.608,0,0,1-.354-.671c0-.118,2.059-11.918-4.97-17.786-9.151.417-18.974,6.086-22.012,8.253a.626.626,0,0,1-.807-.073c-.263-.263-.435-.444,1.025-3.8.336-.762.907-1.932,1.478-3.038a18.221,18.221,0,0,0-6.439,7.609.617.617,0,0,1-1.17-.209l-.435-5.1c-2.784,4.653-1.515,14.058-1.5,14.167a.626.626,0,0,1-.372.653.708.708,0,0,1-.236,0,.59.59,0,0,1-.49-.245c-.054-.073-2.721-6.349-5.487-4.879-1.116.707-1.569,1.968-1.043,4.326a13.732,13.732,0,0,0,1.651,3.864c1.134,1.977,2.032,3.029,2.866,3.456a2.195,2.195,0,0,0,1.814.091h.054a.617.617,0,0,1,1.034.381v.054h0v.063a.118.118,0,0,1,0,.054c.1.853.227,1.814.372,2.567a22.294,22.294,0,0,0,.907,3.011c2.313,6.766,6.993,9.614,12.108,10.512,1.814.317.526,1.007,3.818,1.007h1.243c3.3,0,2-.689,3.827-1.007,5.115-.907,9.786-3.746,12.108-10.512a20.5,20.5,0,0,0,1.179-4.861,3.517,3.517,0,0,1,.082-.907.617.617,0,0,1,1.034-.381h.045A2.195,2.195,0,0,0,96.4,104.7c.843-.426,1.741-1.478,2.875-3.456a14,14,0,0,0,1.651-3.864c.372-2.376-.163-3.973-1.188-4.344ZM67.681,84.324l6.911-7.111a32.062,32.062,0,0,0-3.628.245Zm2.866-15.736a.481.481,0,0,0,.218.054.426.426,0,0,0,.363-.181.327.327,0,0,0-.118-.508c-.145-.082-.29-.363-.281-.907a.354.354,0,0,0-.1-.263.444.444,0,0,0-.308-.136.4.4,0,0,0-.426.381,1.543,1.543,0,0,0,.653,1.56Zm1.478,0a.535.535,0,0,0,.209,0,.417.417,0,0,0,.363-.19.363.363,0,0,0,0-.29.381.381,0,0,0-.2-.245c-.045,0-.3-.2-.281-.907a.326.326,0,0,0-.1-.263.444.444,0,0,0-.308-.136.408.408,0,0,0-.426.381c.018,1.116.472,1.524.744,1.669Zm6.231-8.09a.363.363,0,0,0-.063-.281.453.453,0,0,0-.281-.172h-.073a.408.408,0,0,0-.408.317,2.13,2.13,0,0,1-.082.272,1.061,1.061,0,0,1-.091-.308A.408.408,0,0,0,76.842,60h-.063a.444.444,0,0,0-.281.163.417.417,0,0,0-.073.29c.109.671.463,1.088.907,1.088s.807-.372.925-1.025Zm-.562,2.948a.426.426,0,0,0-.2-.254.535.535,0,0,0-.209,0,.417.417,0,0,0-.363.19,1.388,1.388,0,0,1-1.179.517,1.333,1.333,0,0,1-1.215-.6.408.408,0,0,0-.39-.245.426.426,0,0,0-.154,0,.372.372,0,0,0-.236.218.363.363,0,0,0,0,.29,2.14,2.14,0,0,0,1.986,1.1,2.249,2.249,0,0,0,1.9-.907.363.363,0,0,0,.054-.29Zm-.417-8.707a.553.553,0,1,0-.59-.553.571.571,0,0,0,.59.571ZM78.51,53.3a.544.544,0,1,0-.59-.544.571.571,0,0,0,.59.562Zm-.553-5.587a.907.907,0,1,0-.907.907A.907.907,0,0,0,77.957,47.71Zm-1.968,7.083a.562.562,0,0,0-.58.544.571.571,0,0,0,.59.553.553.553,0,1,0,0-1.1Zm-.644,2.721a.417.417,0,0,0-.29.163.381.381,0,0,0-.063.281c.109.68.463,1.1.907,1.1s.789-.39.907-1.043a.381.381,0,0,0-.063-.281.435.435,0,0,0-.281-.172h-.082a.408.408,0,0,0-.408.327,1.443,1.443,0,0,1-.082.272,1.641,1.641,0,0,1-.091-.308.408.408,0,0,0-.408-.336Zm-.181-3.31a.59.59,0,1,0-.59.553.571.571,0,0,0,.59-.553Zm-1.243,5.841h-.063a.417.417,0,0,0-.29.163.381.381,0,0,0-.063.281c.109.671.463,1.1.907,1.1s.789-.39.907-1.043a.381.381,0,0,0-.063-.281.435.435,0,0,0-.281-.172H74.9a.417.417,0,0,0-.417.327,1.686,1.686,0,0,1-.082.272,1.334,1.334,0,0,1-.082-.308A.417.417,0,0,0,73.921,60.044Zm-.3-7.256a.59.59,0,1,0-.58.544h0a.562.562,0,0,0,.571-.544Zm-.834,14.058c0,1.07.435,1.478.707,1.623a.535.535,0,0,0,.209,0,.435.435,0,0,0,.372-.19.381.381,0,0,0,0-.3.372.372,0,0,0-.2-.236c-.054,0-.3-.2-.281-.907s1.261-.816,2-.825h.245c.735,0,1.986.127,2,.825s-.236.907-.29.907a.372.372,0,0,0-.2.236.363.363,0,0,0,0,.29.426.426,0,0,0,.372.209.489.489,0,0,0,.2,0c.281-.136.762-.535.735-1.633,0-.6-.417-1.6-2.93-1.6h0c-2.54-.009-2.948.98-2.957,1.578Zm3.519,10.376L69.386,84.3c4.444-2.44,10.766-5.133,16.987-5.75A41.665,41.665,0,0,0,76.3,77.2Zm2.585-8.743a.426.426,0,0,0,.372.2.417.417,0,0,0,.2-.054c.281-.136.744-.544.716-1.623a.408.408,0,0,0-.426-.381h0a.481.481,0,0,0-.308.136.381.381,0,0,0-.109.263c0,.735-.236.907-.281.907a.381.381,0,0,0-.2.245.363.363,0,0,0,.027.29Zm1.487,0a.426.426,0,0,0,.363.181.581.581,0,0,0,.218,0,1.642,1.642,0,0,0,.68-1.614.408.408,0,0,0-.426-.381h0a.444.444,0,0,0-.3.136.381.381,0,0,0-.109.263c0,.553-.127.843-.272.907a.345.345,0,0,0-.19.245.363.363,0,0,0,.027.245ZM69.5,77.658c-8.163,1.161-15.319,4.535-15.645,9.333a47.723,47.723,0,0,0,2.721,7.718c-.209-3.827,0-10.367,3.011-13.432a.589.589,0,0,1,.635-.145.635.635,0,0,1,.408.526l.39,4.607a17.121,17.121,0,0,1,7.872-7.256Zm24.86,16.96a49.51,49.51,0,0,0,2.857-8.435c-.635-2.721-3.573-5.043-7.637-6.6,4.489,4.471,4.961,11.147,4.8,15.019Zm11.056-35.372a2.467,2.467,0,0,0,1.515-.5,3.973,3.973,0,0,0,1.388-2.911c.082-.907.317-.989.907-1.252a5.269,5.269,0,0,0,1.56-.907,4.281,4.281,0,0,0,.907-5.442c-.671-1.333-1.342-2.041-2.077-2.15H109.4a1.569,1.569,0,0,0-1.088.481c-.753.726-.308,1.7.163,2.721a14.23,14.23,0,0,1,.562,1.342,1.714,1.714,0,0,1-.327,1.914,1.515,1.515,0,0,1-1.007.39,1.451,1.451,0,0,1-.354-.045.843.843,0,0,1-.617-.717c-.172-.97-.463-2.15-1.224-2.594a1.324,1.324,0,0,0-.662-.181,1.724,1.724,0,0,0-.417.063,1.642,1.642,0,0,0-1.2.907c-.281.68.227,1.469.771,2.3a8.29,8.29,0,0,1,.816,1.451,1.814,1.814,0,0,1-.326,2.213,1.478,1.478,0,0,1-.907.308,1.079,1.079,0,0,1-.49-.109,1.243,1.243,0,0,1-.526-1.388,2.866,2.866,0,0,0-.907-2.721,1.669,1.669,0,0,0-.97-.308,2.231,2.231,0,0,0-1.814,1.07c-.317.789.172,1.687.653,2.558a7.381,7.381,0,0,1,.571,1.188,2.812,2.812,0,0,1-.091,2.385,1.6,1.6,0,0,1-1.179.608h-.218a1.125,1.125,0,0,1-.816-.3c-.326-.363-.345-1.07-.045-2,.508-1.578.145-2.413-.254-2.839a1.868,1.868,0,0,0-1.379-.553h-.345a1.941,1.941,0,0,0-1.469.907,2.576,2.576,0,0,0,.227,2.467c.853,1.687.907,3,.245,3.628a1.587,1.587,0,0,1-1.07.363A2.231,2.231,0,0,1,92.7,61.36a1.623,1.623,0,0,1-1.016-1.814c.054-.327.118-.635.172-.907.254-1.3.435-2.24-.136-2.821a1.732,1.732,0,0,0-1.324-.444h-.336a1.678,1.678,0,0,0-1.279.553c-.562.68-.336,1.814,0,3.283l.1.463a3.2,3.2,0,0,1-.317,2.721,1.569,1.569,0,0,1-1.224.463,1.714,1.714,0,0,1-1.46-.707,2.8,2.8,0,0,1,.109-2.793c.571-1.17.644-2.023.236-2.612a2.077,2.077,0,0,0-1.814-.717,1.46,1.46,0,0,0-1.188.544c-.345.426-.617,1.315,0,3.066A2.458,2.458,0,0,1,83.036,62a1.732,1.732,0,0,1-1.379.635,1.243,1.243,0,0,1-.907-.408c-.653-.7-.825-2.213-.49-4.145.517-2.984,8.163-4.372,13.1-4.535,5.242-.218,12.317-5.07,14.511-7.5,1.95-2.195,2.44-3.628,1.542-4.535a2.023,2.023,0,0,0-1.415-.68h-.082c-1.061.054-1.932,1.125-3.147,2.612a24.388,24.388,0,0,1-4.181,4.263c-2.63,1.977-6.113,2.975-10.358,2.975a18.843,18.843,0,0,1-2-.073H87.145a9.741,9.741,0,0,0-5.614,1.542,2.784,2.784,0,0,1-.626.327h-.1a.426.426,0,0,1-.145,0,1.143,1.143,0,0,1-1.061-.843,2.34,2.34,0,0,1-.236-1.814,1.007,1.007,0,0,1,.68-.453c.517-.136.907-.227,1.3-.3.78-.163,1.388-.281,1.388-.907s-.608-.8-1.306-.98c-.272-.073-.653-.163-1.079-.308a3.419,3.419,0,0,1-.726-.453,5.006,5.006,0,0,0-3.066-1.206,5.442,5.442,0,0,0-3.628,1.515,3.5,3.5,0,0,0-1.1,2.793c.127,1.678-.245,2.413-.58,2.721a.907.907,0,0,1-.626.272h0a2.567,2.567,0,0,1-.635-.336,9.786,9.786,0,0,0-5.605-1.533H63.292c-.68.045-1.351.073-2,.073-4.245,0-7.736-1.007-10.367-2.984a23.972,23.972,0,0,1-4.217-4.344c-1.215-1.487-2.1-2.558-3.156-2.612h-.073a1.986,1.986,0,0,0-1.415.68c-.907.907-.417,2.34,1.542,4.535,2.168,2.431,9.251,7.256,14.511,7.5,4.979.209,12.571,1.6,13.1,4.535.336,1.932.154,3.437-.49,4.145a1.243,1.243,0,0,1-.907.408,1.732,1.732,0,0,1-1.379-.644,2.422,2.422,0,0,1-.181-2.358c.617-1.75.336-2.639,0-3.066a1.46,1.46,0,0,0-1.188-.544,2.05,2.05,0,0,0-1.814.717c-.408.59-.336,1.442.227,2.612a2.784,2.784,0,0,1,.118,2.793,1.732,1.732,0,0,1-1.46.707,1.56,1.56,0,0,1-1.224-.463,3.2,3.2,0,0,1-.327-2.721l.1-.463c.317-1.515.553-2.6,0-3.283a1.714,1.714,0,0,0-1.279-.562h-.336a1.76,1.76,0,0,0-1.333.435c-.571.58-.381,1.524-.136,2.83.063.3.118.608.172.907A1.623,1.623,0,0,1,58.775,61.3a2.3,2.3,0,0,1-1.025.245,1.551,1.551,0,0,1-1.061-.317c-.7-.617-.608-1.932.245-3.628a2.567,2.567,0,0,0,.218-2.467,1.941,1.941,0,0,0-1.46-.907,2.321,2.321,0,0,0-.354,0,1.814,1.814,0,0,0-1.37.553c-.4.426-.771,1.261-.254,2.839.3.907.281,1.623-.054,1.986a1.079,1.079,0,0,1-.807.308h-.227a1.569,1.569,0,0,1-1.17-.617,2.721,2.721,0,0,1-.091-2.376,6.966,6.966,0,0,1,.571-1.188c.472-.907.97-1.814.644-2.558a1.814,1.814,0,0,0-1.179-.961,2.068,2.068,0,0,0-.653-.118,1.605,1.605,0,0,0-.961.317,2.893,2.893,0,0,0-.907,2.721,1.342,1.342,0,0,1-.544,1.478,1.034,1.034,0,0,1-.472.109,1.288,1.288,0,0,1-.735-.236,2.1,2.1,0,0,1-.453-2.413,10.93,10.93,0,0,1,.58-1.424c.463-1.016.907-1.977.5-2.657a1.487,1.487,0,0,0-1.143-.644,1.124,1.124,0,0,0-.245,0,1.243,1.243,0,0,0-.717.227,3.02,3.02,0,0,0-.834,2.177h0a2.9,2.9,0,0,1-.063.444.853.853,0,0,1-.617.707,1.215,1.215,0,0,1-.363.054,1.533,1.533,0,0,1-1.007-.39,1.75,1.75,0,0,1-.327-1.923c.163-.472.363-.907.562-1.342.472-1.025.907-2,.163-2.721a1.524,1.524,0,0,0-1.079-.49h-.209c-.735.118-1.415.825-2.077,2.159a4.272,4.272,0,0,0,.907,5.442,5.6,5.6,0,0,0,1.56.907c.626.254.853.354.907,1.243a3.973,3.973,0,0,0,1.388,2.92,2.485,2.485,0,0,0,1.515.5h.716a7.346,7.346,0,0,1,.8-.082c.435,0,.508.163.762.78a3.5,3.5,0,0,0,3,2.231,2.213,2.213,0,0,0,.435,0L52.2,62.1a5.886,5.886,0,0,1,1.079-.154.617.617,0,0,1,.7.553,3.129,3.129,0,0,0,1.424,2.05,2.975,2.975,0,0,0,1.478.354,4.835,4.835,0,0,0,1.1-.136,10.684,10.684,0,0,1,2.34-.472,2.839,2.839,0,0,1,1.814.526,4.671,4.671,0,0,0,2.53.689,2.93,2.93,0,0,0,1.814-.49,2.413,2.413,0,0,1,1.37-.717,1.061,1.061,0,0,1,.5.136,3.936,3.936,0,0,0,1.741.408,2.957,2.957,0,0,0,1.261-.272,1.533,1.533,0,0,1,.716-.218.553.553,0,0,1,.354.109.49.49,0,0,1,.172.535.517.517,0,0,1-.5.3,7.863,7.863,0,0,0-.907-.054,4.118,4.118,0,0,0-2.422.59,1.288,1.288,0,0,0-.517,1.007c0,1.07.435,1.478.717,1.623a.489.489,0,0,0,.2,0,.426.426,0,0,0,.372-.2.354.354,0,0,0,0-.29.408.408,0,0,0-.2-.245c-.045,0-.3-.19-.281-.907a.517.517,0,0,1,.227-.435,3.537,3.537,0,0,1,1.877-.4,8.394,8.394,0,0,1,.907.045h.045a1.36,1.36,0,0,0,1.3-.843,1.224,1.224,0,0,0-.435-1.388,1.46,1.46,0,0,0-.907-.281,2.394,2.394,0,0,0-1.125.308,2.023,2.023,0,0,1-.907.2,3.048,3.048,0,0,1-1.342-.317,2.013,2.013,0,0,0-.907-.218,3.174,3.174,0,0,0-1.932.907,2.159,2.159,0,0,1-1.252.3,3.782,3.782,0,0,1-2.032-.535,3.628,3.628,0,0,0-2.249-.671,11.981,11.981,0,0,0-2.512.354,4.1,4.1,0,0,1-.907.109,2.113,2.113,0,0,1-1.043-.245,2.358,2.358,0,0,1-1.043-1.56,1.406,1.406,0,0,0-1.533-1.143,6.4,6.4,0,0,0-1.252.172l-.381.082a1.387,1.387,0,0,1-.272,0,2.721,2.721,0,0,1-2.213-1.741c-.417-.97-.771-1.27-1.542-1.27a6.848,6.848,0,0,0-.907.082l-.381.045H46.1a1.614,1.614,0,0,1-.98-.327,3.283,3.283,0,0,1-1.134-2.331,1.868,1.868,0,0,0-1.433-1.9,4.535,4.535,0,0,1-1.288-.762,3.52,3.52,0,0,1-.707-4.535c.7-1.4,1.206-1.669,1.451-1.705h.073a.726.726,0,0,1,.472.245c.354.336.118.907-.327,1.877a12.325,12.325,0,0,0-.59,1.415,2.458,2.458,0,0,0,.535,2.721,2.385,2.385,0,0,0,1.6.617,2.086,2.086,0,0,0,.626-.091,1.651,1.651,0,0,0,1.179-1.333c0-.154.054-.336.073-.517.073-.562.172-1.406.508-1.642a.326.326,0,0,1,.209-.063h.109a.78.78,0,0,1,.544.254c.2.345-.19,1.215-.544,1.977a12.633,12.633,0,0,0-.671,1.506,2.812,2.812,0,0,0,.753,3.238,2.122,2.122,0,0,0,1.243.408,2.013,2.013,0,0,0,.907-.209,2.059,2.059,0,0,0,.961-2.258,2.177,2.177,0,0,1,.6-1.977.726.726,0,0,1,.444-.145,1.342,1.342,0,0,1,1.043.571c.19.453-.218,1.2-.617,1.923a9.16,9.16,0,0,0-.626,1.324,3.446,3.446,0,0,0,.2,3.029,2.449,2.449,0,0,0,1.814.961h.317a1.932,1.932,0,0,0,1.46-.571,2.666,2.666,0,0,0,.218-2.721c-.308-.97-.281-1.714.082-2.1a1.007,1.007,0,0,1,.735-.29h.218a1.17,1.17,0,0,1,.853.5,1.941,1.941,0,0,1-.245,1.814c-1.388,2.721-.635,4.009-.073,4.535a2.512,2.512,0,0,0,1.669.571,3.156,3.156,0,0,0,1.4-.327,2.4,2.4,0,0,0,1.46-2.594c-.054-.336-.118-.644-.181-.907-.19-1.007-.363-1.868-.073-2.168a1.034,1.034,0,0,1,.707-.181h.272c.49,0,.626.2.671.254.327.4.109,1.442-.145,2.648a2.309,2.309,0,0,1-.1.472,3.837,3.837,0,0,0,.5,3.347,2.44,2.44,0,0,0,1.859.735,2.567,2.567,0,0,0,2.168-1.061,3.483,3.483,0,0,0-.054-3.546c-.426-.907-.526-1.524-.29-1.814a1.351,1.351,0,0,1,1.079-.363.59.59,0,0,1,.508.227c.145.181.426.789-.118,2.358a3.165,3.165,0,0,0,.3,3.075,2.6,2.6,0,0,0,2.059.961,2.1,2.1,0,0,0,1.578-.744c.825-.907,1.061-2.594.68-4.789-.644-3.7-9.07-5.034-13.886-5.233-5-.209-11.791-4.879-13.886-7.256-1.088-1.215-2.249-2.812-1.569-3.492a1.188,1.188,0,0,1,.8-.426h0c.662,0,1.524,1.079,2.512,2.295a24.742,24.742,0,0,0,4.335,4.39c2.784,2.1,6.449,3.147,10.884,3.147.662,0,1.36,0,2.059-.063a10.25,10.25,0,0,1,1.043,0,8.816,8.816,0,0,1,5.124,1.415,2.53,2.53,0,0,0,1.061.463h.082a1.814,1.814,0,0,0,1.188-.481c.689-.626.97-1.75.843-3.356a2.793,2.793,0,0,1,.907-2.213,4.6,4.6,0,0,1,3.02-1.261A4.181,4.181,0,0,1,79.1,46.939a3.818,3.818,0,0,0,.961.58c.444.145.825.245,1.134.317a3.9,3.9,0,0,1,.7.227,4.009,4.009,0,0,1-.716.19c-.336.063-.789.154-1.351.308a1.814,1.814,0,0,0-1.2.907,2.957,2.957,0,0,0,.19,2.413,1.968,1.968,0,0,0,1.814,1.333,1.532,1.532,0,0,0,.3,0,2.322,2.322,0,0,0,1.043-.463,8.843,8.843,0,0,1,5.133-1.406h1.034c.707.045,1.4.073,2.068.073,4.444,0,8.1-1.061,10.884-3.147a25.4,25.4,0,0,0,4.326-4.4c.989-1.215,1.814-2.267,2.521-2.3h0a1.206,1.206,0,0,1,.8.435c.68.671-.481,2.267-1.569,3.492-2.1,2.34-8.888,7.011-13.886,7.256-4.852.209-13.242,1.542-13.886,5.242-.317,2.14-.036,3.864.744,4.771a2.077,2.077,0,0,0,1.578.689,2.585,2.585,0,0,0,2.059-.97,3.12,3.12,0,0,0,.3-3.066c-.553-1.569-.263-2.177-.118-2.367a.608.608,0,0,1,.508-.218,1.333,1.333,0,0,1,1.079.363c.236.336.136.98-.29,1.814a3.465,3.465,0,0,0,0,3.546,2.539,2.539,0,0,0,2.113,1.116,2.4,2.4,0,0,0,1.868-.744,3.807,3.807,0,0,0,.508-3.347l-.1-.472c-.254-1.215-.472-2.258-.145-2.657,0-.054.172-.218.671-.245h.272a.907.907,0,0,1,.7.19c.3.3.127,1.161-.063,2.15h0c-.054.29-.109.6-.163.907a2.394,2.394,0,0,0,1.451,2.6,3.156,3.156,0,0,0,1.4.327,2.567,2.567,0,0,0,1.669-.571c.571-.517,1.324-1.814-.073-4.535a1.968,1.968,0,0,1-.245-1.814,1.188,1.188,0,0,1,.853-.5h.218a.98.98,0,0,1,.735.29c.372.39.4,1.134.082,2.1a2.709,2.709,0,0,0,.218,2.721,1.95,1.95,0,0,0,1.46.58H99a2.394,2.394,0,0,0,1.814-.952,3.419,3.419,0,0,0,.2-3.029,7.637,7.637,0,0,0-.635-1.324c-.39-.726-.8-1.469-.608-1.923a1.025,1.025,0,0,1,.689-.508,1.07,1.07,0,0,1,.354-.073.735.735,0,0,1,.444.154,2.159,2.159,0,0,1,.6,1.968,1.968,1.968,0,0,0,.97,2.186,2.05,2.05,0,0,0,.907.2,2.3,2.3,0,0,0,1.433-.508,2.558,2.558,0,0,0,.562-3.075,8.717,8.717,0,0,0-.907-1.587c-.408-.635-.834-1.288-.7-1.614.063-.154.29-.29.662-.39h.172a.381.381,0,0,1,.209.054c.535.308.762,1.623.834,2.059a1.66,1.66,0,0,0,1.188,1.333,2.367,2.367,0,0,0,.626.091,2.422,2.422,0,0,0,1.6-.617,2.467,2.467,0,0,0,.535-2.721c-.181-.526-.4-1-.59-1.424-.453-.961-.68-1.533-.327-1.868a.707.707,0,0,1,.472-.245h.073c.245,0,.753.308,1.451,1.705a3.479,3.479,0,0,1-.707,4.535,4.852,4.852,0,0,1-1.342.762,1.877,1.877,0,0,0-1.5,1.886,3.356,3.356,0,0,1-1.07,2.376,1.669,1.669,0,0,1-.989.317h-.227l-.381-.045a8.551,8.551,0,0,0-.907-.073c-.771,0-1.125.29-1.542,1.261a2.721,2.721,0,0,1-2.213,1.741,1.315,1.315,0,0,1-.272,0l-.39-.082a6.212,6.212,0,0,0-1.243-.172,1.406,1.406,0,0,0-1.533,1.143,2.34,2.34,0,0,1-1.025,1.524,2.068,2.068,0,0,1-1.043.245,4.091,4.091,0,0,1-.907-.109,11.982,11.982,0,0,0-2.512-.354,3.728,3.728,0,0,0-2.267.68,3.628,3.628,0,0,1-2.032.544,2.15,2.15,0,0,1-1.215-.3,3.174,3.174,0,0,0-1.932-.907,1.986,1.986,0,0,0-.907.218,3.111,3.111,0,0,1-1.342.317,2,2,0,0,1-.907-.2,2.422,2.422,0,0,0-1.125-.308,1.478,1.478,0,0,0-.907.281,1.224,1.224,0,0,0-.435,1.388,1.36,1.36,0,0,0,1.288.843h.082a8.162,8.162,0,0,1,.907-.045,3.537,3.537,0,0,1,1.877.4.526.526,0,0,1,.218.435c0,.735-.227.907-.281.907a.4.4,0,0,0-.209.245.363.363,0,0,0,0,.29.426.426,0,0,0,.372.209.453.453,0,0,0,.19,0c.29-.145.762-.544.735-1.633a1.288,1.288,0,0,0-.517-1.007,4.109,4.109,0,0,0-2.413-.59,3.966,3.966,0,0,0-.907.045.508.508,0,0,1-.5-.3.463.463,0,0,1,.163-.526.571.571,0,0,1,.363-.109,1.587,1.587,0,0,1,.707.209,3,3,0,0,0,1.351.3,3.891,3.891,0,0,0,1.732-.408,1.17,1.17,0,0,1,.508-.127,2.358,2.358,0,0,1,1.37.716,2.984,2.984,0,0,0,1.814.49,4.644,4.644,0,0,0,2.53-.7,2.857,2.857,0,0,1,1.814-.526,10.385,10.385,0,0,1,2.3.336,5.324,5.324,0,0,0,1.088.136,3.038,3.038,0,0,0,1.487-.363,3.12,3.12,0,0,0,1.27-2.1.617.617,0,0,1,.7-.553,5.524,5.524,0,0,1,1.088.163h0l.372.073a2.286,2.286,0,0,0,.435,0,3.492,3.492,0,0,0,3-2.222c.263-.617.326-.78.771-.78a6.928,6.928,0,0,1,.789.073l.39.045ZM83.834,53.17a2,2,0,0,1-.272.127.39.39,0,0,0-.245.508.426.426,0,0,0,.4.245.408.408,0,0,0,.145,0c.671-.236,1.016-.626.907-1.034s-.535-.626-1.215-.626h-.118a.408.408,0,0,0-.308.136.39.39,0,0,0,.345.644h.363Zm4.19-.907a.444.444,0,0,0-.281.163.408.408,0,0,0-.073.281.417.417,0,0,0,.417.336h.073c.617-.091,1-.372,1.007-.753s-.381-.689-1.025-.789H88.07a.417.417,0,0,0-.417.327.381.381,0,0,0,.063.281.435.435,0,0,0,.281.172Zm3.836-.209a.4.4,0,0,0-.1.327.417.417,0,0,0,.417.327h.073c.463-.073.753-.3.771-.608s-.281-.59-.762-.671h-.073a.417.417,0,0,0-.417.327.336.336,0,0,0,.091.308Zm3.891-.463a.363.363,0,0,0,0,.336.426.426,0,0,0,.381.209.345.345,0,0,0,.19,0c.408-.19.617-.508.526-.807a.707.707,0,0,0-.744-.426H95.9a.472.472,0,0,0-.281.163.354.354,0,0,0-.073.281.381.381,0,0,0,.209.254Zm3.256-1.415a.336.336,0,0,0,.154.163.381.381,0,0,0,.109.227.435.435,0,0,0,.308.127.472.472,0,0,0,.29-.1.59.59,0,0,0,.209-.753.562.562,0,0,0-.5-.245.816.816,0,0,0-.345.073.372.372,0,0,0-.227.508Zm2.721-1.605a.327.327,0,0,0,.172.145.408.408,0,0,0,.136.218.453.453,0,0,0,.6,0,.58.58,0,0,0,.118-.762.553.553,0,0,0-.444-.2.907.907,0,0,0-.417.109.408.408,0,0,0-.2.245.363.363,0,0,0,0,.254Zm2.276-1.642a.3.3,0,0,0,.19.1.354.354,0,0,0,.19.19.39.39,0,0,0,.2.054.426.426,0,0,0,.372-.209.58.58,0,0,0-.063-.762.526.526,0,0,0-.354-.127.78.78,0,0,0-.5.19.372.372,0,0,0,0,.562Zm2.567-3.292a.472.472,0,0,0-.227-.063.463.463,0,0,0-.354.172c-.4.562-.435,1.061-.109,1.342a.689.689,0,0,0,.49.172,1.814,1.814,0,0,0,.989-.381.435.435,0,0,0,.163-.263.372.372,0,0,0-.091-.29.444.444,0,0,0-.336-.145.49.49,0,0,0-.254.073,1.742,1.742,0,0,1-.3.181,1.061,1.061,0,0,1,.145-.245.4.4,0,0,0,.063-.3.39.39,0,0,0-.181-.254Zm.97.29a.78.78,0,1,0-.834-.771.807.807,0,0,0,.853.771ZM67.636,53.17a1.2,1.2,0,0,1,.263,0H68a.408.408,0,0,0,.481-.381.372.372,0,0,0-.091-.272.444.444,0,0,0-.308-.136h-.118c-.68,0-1.134.236-1.224.635s.263.789.907,1.025a.408.408,0,0,0,.145,0,.435.435,0,0,0,.4-.245.363.363,0,0,0,0-.29.4.4,0,0,0-.236-.218,2,2,0,0,1-.272-.118Zm-4.19-.907h0a.408.408,0,0,0,.281-.163.354.354,0,0,0,.063-.281.417.417,0,0,0-.417-.327H63.31c-.644.1-1.034.408-1.025.8s.381.662,1.007.753h.063a.417.417,0,0,0,.417-.336.39.39,0,0,0-.063-.281.49.49,0,0,0-.218-.154Zm-3.836-.209a.336.336,0,0,0,.091-.317.4.4,0,0,0-.408-.317H59.21c-.481.082-.78.345-.762.671s.317.544.771.617h.073a.417.417,0,0,0,.417-.327.4.4,0,0,0-.054-.317ZM55.782,51.6a.381.381,0,0,0,.2-.272.354.354,0,0,0-.073-.281.4.4,0,0,0-.281-.163h-.209a.707.707,0,0,0-.744.426c-.091.3.118.608.526.807a.454.454,0,0,0,.19,0,.417.417,0,0,0,.372-.209.345.345,0,0,0,.018-.308ZM52.526,49.9a.4.4,0,0,0-.227-.227,1.07,1.07,0,0,0-.354-.073.562.562,0,0,0-.5.254.58.58,0,0,0,.218.744.463.463,0,0,0,.281.1.453.453,0,0,0,.317-.127.372.372,0,0,0,.1-.209.444.444,0,0,0,.163-.181.308.308,0,0,0-.018-.281Zm-2.666-1.642a.408.408,0,0,0-.2-.245.907.907,0,0,0-.417-.109.553.553,0,0,0-.444.2.571.571,0,0,0,.127.762.408.408,0,0,0,.317.136.426.426,0,0,0,.272-.091.354.354,0,0,0,.127-.2.4.4,0,0,0,.181-.163.327.327,0,0,0,.036-.29ZM47.51,46.34a.78.78,0,0,0-.5-.19.526.526,0,0,0-.354.127.58.58,0,0,0-.063.762.426.426,0,0,0,.372.209.39.39,0,0,0,.2-.054.354.354,0,0,0,.172-.172.435.435,0,0,0,.209-.118.372.372,0,0,0,0-.562Zm-3.519-1.714a.435.435,0,0,0,.163.263,1.814,1.814,0,0,0,.989.381.707.707,0,0,0,.49-.172c.327-.29.29-.789-.109-1.342a.463.463,0,0,0-.354-.172.535.535,0,0,0-.236.063.463.463,0,0,0-.181.254.408.408,0,0,0,.063.29.961.961,0,0,1,.145.254,1.524,1.524,0,0,1-.3-.181.49.49,0,0,0-.254-.073.435.435,0,0,0-.327.145.345.345,0,0,0-.091.29Zm.8-1.46a.834.834,0,1,0-.834.771.807.807,0,0,0,.816-.78ZM42.867,51.61a.834.834,0,1,0,.834-.771.807.807,0,0,0-.853.762ZM44.2,49.387a.59.59,0,0,0,.617-.571.626.626,0,1,0-.617.571Zm3.546,5.124a.771.771,0,0,0,0,1.542.807.807,0,0,0,.834-.78.8.8,0,0,0-.853-.771Zm1.288-2.63a.6.6,0,0,0,.626-.571.626.626,0,1,0-.626.571Zm3.51,5.551a.771.771,0,1,0,.834.771.807.807,0,0,0-.834-.735Zm1.1-3.365a.608.608,0,0,0,.626-.58.626.626,0,0,0-1.252,0,.608.608,0,0,0,.626.617Zm4.335,5.215a.771.771,0,1,0,.834.771.807.807,0,0,0-.834-.735Zm.7-3.991a.58.58,0,1,0-.626-.58.608.608,0,0,0,.626.617Zm4.462,6.049a.834.834,0,1,0,.834-.771.807.807,0,0,0-.834.807Zm1.007-5.324a.58.58,0,1,0-.58-.58.58.58,0,0,0,.58.58Zm5.324,5.968a.771.771,0,1,0-.834-.771.816.816,0,0,0,.834.807ZM107.941,48.8a.626.626,0,1,0-.626.626.626.626,0,0,0,.626-.626Zm-.127,2.032a.771.771,0,1,0,.834.771.807.807,0,0,0-.834-.771Zm-4.87,4.435a.834.834,0,1,0,.834-.771.807.807,0,0,0-.834.771Zm.145-3.918a.6.6,0,0,0-.617-.58.608.608,0,0,0-.626.58.6.6,0,0,0,.626.571.59.59,0,0,0,.608-.571Zm-4.607,2.177a.626.626,0,1,0-.617.58.608.608,0,0,0,.608-.58Zm-.354,4.716a.834.834,0,1,0,.834-.834.834.834,0,0,0-.834.834Zm-5.442,1.814a.834.834,0,1,0,.834-.771.807.807,0,0,0-.834.807Zm.136-4.762a.58.58,0,1,0-.626-.58.608.608,0,0,0,.626.617Zm-6.131,6.049a.834.834,0,1,0,.834-.771.807.807,0,0,0-.834.807Zm.662-5.324a.58.58,0,1,0-.626-.58.608.608,0,0,0,.626.617ZM82.02,60.443a.771.771,0,1,0,.771.771A.771.771,0,0,0,82.02,60.443Zm25.567,23.735h0c0-.054-.172-.073-.317-.073h-.063a2.231,2.231,0,0,1-.735-.054.644.644,0,0,0-.272,0h-.172c-.073,0-.19,0-.227.073h0a3.174,3.174,0,0,0,1.279.136h.082a.653.653,0,0,0,.426-.045Zm-.181.236a1.183,1.183,0,0,0-.308-.063h-.063a2.64,2.64,0,0,1-.735-.054.644.644,0,0,0-.272,0h-.181c-.063,0-.19,0-.218.073h0a3.628,3.628,0,0,0,1.279.127h.073c.172,0,.363,0,.4-.082h0Zm1.886-.97a.272.272,0,0,0,0-.3c-.127-.236-.68-.29-1.116-.29H108.1a5.3,5.3,0,0,0-1.46.136h-.073v.045l.154.054h.154a1.551,1.551,0,0,0,.327,0,3.119,3.119,0,0,1,.8-.054h.073c.363,0,.49.082.517.145a.538.538,0,0,1,0,.209h0a1.116,1.116,0,0,1-.989.372h-.063a2.04,2.04,0,0,1-.735-.054.644.644,0,0,0-.272,0h-.172c-.082,0-.227,0-.236.091s0,0,0,.054a3.347,3.347,0,0,0,1.279.136h.082C108.041,84.025,108.984,83.943,109.293,83.444Zm-2.648-.644.154.063h.154a1.388,1.388,0,0,0,.317,0,3.02,3.02,0,0,1,.807-.063h.082a.816.816,0,0,0,.4-.073h0c0-.063-.236-.073-.3-.073h-.073a5.024,5.024,0,0,0-1.46.136h-.073Zm2.1-.417h0c0-.063-.236-.063-.3-.063h-.063a5.578,5.578,0,0,0-1.433.127h-.082a.19.19,0,0,0,.136.054h.172a1.089,1.089,0,0,0,.317,0,3.527,3.527,0,0,1,.8-.054h.091a.707.707,0,0,0,.4-.082Zm26.429-5.106a.1.1,0,0,0,0-.1c0-.073-.172-.145-.454-.218a3.863,3.863,0,0,0-.907-.082,21.832,21.832,0,0,0-3.356.381c-2.449.408-7.673,1.814-8.516,2.721a8.417,8.417,0,0,1-5.714,2.494h-1.605a10.567,10.567,0,0,1-2.068-.127c-.2,0-.245-.091-.254-.109h0a1.306,1.306,0,0,1,.735-.254,7.394,7.394,0,0,1,1.17-.082h.989c.6,0,1.125.063,1.587.063a8.163,8.163,0,0,0,1.152-.063.874.874,0,0,0,.635-.236.145.145,0,0,0,0-.163c0-.091-.19-.163-.453-.209a5.825,5.825,0,0,0-.762,0,11.1,11.1,0,0,0-1.6.091,10.221,10.221,0,0,1-1.56.082,5.823,5.823,0,0,1-.98-.063c-.354-.054-.435-.136-.453-.172a.073.073,0,0,1,0-.073c.063-.1.254-.181.562-.236a9.74,9.74,0,0,1,1.433-.082h1.451c.726,0,1.351.063,1.877.063a6.766,6.766,0,0,0,1.061-.063,1.252,1.252,0,0,0,.653-.245q.109-.109.082-.19c0-.073-.109-.127-.263-.163a4.535,4.535,0,0,0-.907-.073c-.426,0-.952,0-1.569.045h-1.116a2.848,2.848,0,0,1-1.224-.19.139.139,0,0,1-.1-.136.694.694,0,0,1,.463-.236,6.593,6.593,0,0,1,1.161-.082,18.292,18.292,0,0,1,2.077.136,12.252,12.252,0,0,0,1.36.082,7.329,7.329,0,0,0,.807,0,2.313,2.313,0,0,0,1-.281c.063-.054.091-.109.082-.154a.531.531,0,0,0-.354-.209,6,6,0,0,0-1.224-.091h-2.34a4.534,4.534,0,0,1-.735,0c-.136,0-.163-.073-.172-.091s0-.054.045-.073a1.478,1.478,0,0,1,.7-.227,8.482,8.482,0,0,1,1.052-.054h1.106l1,.109a13.241,13.241,0,0,0,1.714.145h.49a3.175,3.175,0,0,0,1-.227c.145-.063.209-.127.209-.19s-.063-.109-.19-.154a6.857,6.857,0,0,0-1.814-.181h-.744a2.5,2.5,0,0,1-.907-.1.063.063,0,0,1,0-.054.911.911,0,0,1,.39-.172,5.115,5.115,0,0,1,1.152-.109,6.261,6.261,0,0,1,.907.045c.317.045.816.091,1.206.154a10.712,10.712,0,0,0,1.578.163h.381a2.594,2.594,0,0,0,.907-.227c.091-.045.127-.091.127-.136a.127.127,0,0,0-.091-.109,9.324,9.324,0,0,0-2.186-.236c-.417,0-.526-.082-.553-.109a1.139,1.139,0,0,1,.472-.19,5.179,5.179,0,0,1,1.07-.091h.707a10.69,10.69,0,0,1,1.134.109,15.139,15.139,0,0,0,1.524.1,4.463,4.463,0,0,0,.907-.073c.408-.082.6-.163.59-.263s-.209-.254-1.7-.417a17.611,17.611,0,0,0-1.986-.109,14.013,14.013,0,0,0-2.993.29,5.552,5.552,0,0,0-.989.29,2.576,2.576,0,0,1-1.243.181,14.9,14.9,0,0,0-2.775.263c-.426.109-.653.227-.671.372v.073c0,.218,0,.218-.807.281a4.861,4.861,0,0,0-2.376.571.154.154,0,0,0,0,.109.462.462,0,0,0,0,.082.245.245,0,0,1,0,.19c0,.073-.209.1-.58.127a9.325,9.325,0,0,0-2,.263c-.29.091-.472.2-.526.327a.236.236,0,0,0,0,.19.49.49,0,0,1,0,.4c-.073.136-.281.245-.7.354-.58.145-.98.4-.989.617,0,.073,0,.181.272.245s.463.145.463.218,0,.054-.172.109c-.39.127-.608.272-.617.426s0,.127.136.19.109.091.1.1a1.111,1.111,0,0,1-.136.073,1.6,1.6,0,0,1-.381,0H109.9c-.145,0-.19,0-.2-.063s.263-.245.227-.426-.127-.19-.3-.254a2.894,2.894,0,0,0-.843-.091h-.073a5.006,5.006,0,0,0-1.469.136.263.263,0,0,0-.073,0h0l.154.063h.154a1.043,1.043,0,0,0,.327,0,3.247,3.247,0,0,1,.807-.054h.073a1.179,1.179,0,0,1,.363,0,.179.179,0,0,1,.172.136.745.745,0,0,1-.2.354h0a.127.127,0,0,0,0,.1c.073.109.363.154.6.172h.336a4.126,4.126,0,0,0,.907-.1c.172,0,.372-.109.39-.218s0-.136-.163-.2-.082-.063-.082-.1.136-.19.463-.3.336-.154.336-.236-.281-.236-.608-.336a.146.146,0,0,1-.136-.136,1.143,1.143,0,0,1,.753-.463c.481-.127.825-.281.907-.472a.526.526,0,0,0,0-.463.154.154,0,0,1,0-.127q.054-.118.354-.218a7.319,7.319,0,0,1,1.542-.2c.716,0,1.106-.127,1.215-.29a.29.29,0,0,0,0-.272.173.173,0,0,0,0-.063h0a4.036,4.036,0,0,1,1.814-.417c1.288-.109,1.36-.2,1.379-.481V77.54c0-.054.082-.136.417-.218a11.627,11.627,0,0,1,2.267-.2,4.471,4.471,0,0,0,1.868-.281,4.771,4.771,0,0,1,.853-.245,11.473,11.473,0,0,1,2.44-.236,15.419,15.419,0,0,1,1.723.091c1.261.145,1.342.245,1.351.263a.68.68,0,0,1-.272.082,1.815,1.815,0,0,1-.408,0A6.567,6.567,0,0,1,128,76.7c-.354,0-.753-.082-1.188-.109s-.608,0-.907,0a8.018,8.018,0,0,0-1.587.136c-.444.091-.726.218-.771.336a.136.136,0,0,0,0,.118c.1.136.472.209,1.052.236a7.255,7.255,0,0,1,1.769.172h0a1.206,1.206,0,0,1-.435.127H125.8a8.916,8.916,0,0,1-1.233-.136c-.372-.054-.834-.127-1.315-.172a8.95,8.95,0,0,0-1.106,0,8.225,8.225,0,0,0-1.705.154c-.236.054-.635.172-.662.336s0,.1.1.145a3.691,3.691,0,0,0,1.46.19h.726a5.387,5.387,0,0,1,1.351.118h.073l-.1.063a1.46,1.46,0,0,1-.544.136H122.6c-.408,0-.907-.063-1.415-.118h0c-.354,0-.716-.091-1.079-.118s-.907,0-1.279,0a11.12,11.12,0,0,0-1.451.082,2.285,2.285,0,0,0-1.079.345.181.181,0,0,0-.082.163c0,.091.145.163.372.209a5.206,5.206,0,0,0,1.134.091,10.872,10.872,0,0,0,1.27-.054,7.033,7.033,0,0,1,1.079,0,4.325,4.325,0,0,1,.807.054c.136,0,.154.073.163.082a.082.082,0,0,1,0,.063,1.088,1.088,0,0,1-.553.163,3.982,3.982,0,0,1-.49,0,10.075,10.075,0,0,1-1.079-.073,20.59,20.59,0,0,0-2.349-.145,8.4,8.4,0,0,0-1.678.136c-.453.091-.726.236-.753.39s0,.154.154.227a3.955,3.955,0,0,0,1.814.29H118.8a3.039,3.039,0,0,1,.508,0s.073,0,.082.045,0,.063-.054.109a.571.571,0,0,1-.308.127,5.027,5.027,0,0,1-.617,0c-.463,0-1.079,0-1.76-.054h-1.569a11.674,11.674,0,0,0-1.886.127c-.5.082-.807.209-.907.363a.145.145,0,0,0,0,.145c.073.163.426.245.716.3a8.881,8.881,0,0,0,1.324.082,12.585,12.585,0,0,0,1.814-.091,7.763,7.763,0,0,1,1.306-.082,2.44,2.44,0,0,1,.417,0,.211.211,0,0,1,.2.091c.018.027,0,.045,0,.082s-.082.063-.263.091a6.347,6.347,0,0,1-.735,0,11.127,11.127,0,0,1-1.379-.063c-.535-.063-.952.209-1.315.209a10.421,10.421,0,0,0-1.578.1c-.617.091-1.016.236-1.125.408a.1.1,0,0,0,0,.109c0,.082.181.163.444.218a12.98,12.98,0,0,0,2.485.163h1.714a9.07,9.07,0,0,0,6.349-2.648,2.657,2.657,0,0,1,.907-.571h0l.154.063h.29a.426.426,0,0,0,.227,0h.054a.907.907,0,0,0,.381-.073.1.1,0,0,0,.054-.1c0-.063-.127-.1-.308-.109H124.3a2.141,2.141,0,0,0-.653.1,37.078,37.078,0,0,1,7.256-2.041,21.3,21.3,0,0,1,2.9-.336,2.022,2.022,0,0,1,.453,0c.245.063.272.1.272.127a11.192,11.192,0,0,1-2.367.481c-1.324.2-2.966.463-4.471.816-2.567.617-4.036,1.451-4.363,2.485-.218.662-1.324.98-1.977,1.161a1.451,1.451,0,0,0-.544.209c-.063,0-.1.091-.082.136a1.838,1.838,0,0,0,1,.3c.626.054,1.007.082,1.415.082a6.667,6.667,0,0,0,.771,0,2.612,2.612,0,0,0,.907-.227c.209-.109.345-.2.453-.263a1,1,0,0,1,.281-.136,1.235,1.235,0,0,1,.1.127.989.989,0,0,0,.154.218,1.324,1.324,0,0,0,.408.19c.254.082.571.2.626.345a.118.118,0,0,1,0,.109,3.011,3.011,0,0,1-1.506.571,10.1,10.1,0,0,1-1.9.163h-.807a13.958,13.958,0,0,0-2.494.163c-.517.109-.58.218-.59.254s.1.136.3.227.662.3.717.59a.68.68,0,0,1-.245.553,1.37,1.37,0,0,0-.517,1.243c.118.49.689.907,1.7,1.261a27.03,27.03,0,0,0,3.41.825,6.249,6.249,0,0,1,1.741.453,1.056,1.056,0,0,1-.481.154,2.611,2.611,0,0,1-.5,0,12.534,12.534,0,0,1-2.458-.345c-1.7-.363-4.317-1.388-4.743-2.222a.444.444,0,0,1,0-.4,1.642,1.642,0,0,0-.054-1.542c-.3-.481-1.052-1.061-2.939-1.134H113.8a16.8,16.8,0,0,0-2.721.163c-.463.082-.735.181-.816.308a.145.145,0,0,0,0,.136c.063.145.381.236.635.281a7.845,7.845,0,0,0,1.442.109,10.419,10.419,0,0,0,1.27-.054,13.513,13.513,0,0,1,1.451-.054,3.863,3.863,0,0,1,.689,0c.109,0,.127,0,.127.063s-.154.163-.453.2a3.065,3.065,0,0,1-.444,0,10.719,10.719,0,0,1-1.2-.082,15.944,15.944,0,0,0-1.723-.1,11.481,11.481,0,0,0-1.444.091,2.086,2.086,0,0,0-1.222.417.172.172,0,0,0,0,.145c0,.1.2.181.472.245a9.017,9.017,0,0,0,1.732.118h1.642c.7,0,1.36-.054,1.814-.054a3.945,3.945,0,0,1,.571,0s.109,0,.127.063h0a.524.524,0,0,1-.263.181,3.755,3.755,0,0,1-.544,0h-2.585a7.329,7.329,0,0,0-2.14.281c-.336.118-.5.245-.5.372s.127.19.345.254a6.439,6.439,0,0,0,1.515.136c.689,0,1.542-.054,2.53-.154.463,0,.907-.073,1.17-.073a3.341,3.341,0,0,1,.463,0c.3,0,.326.118.326.145s0,.109-.345.163a5.66,5.66,0,0,1-.907.054h-2.231a8.1,8.1,0,0,0-1.252.082c-.463.082-.716.209-.726.354s.2.29.653.363a8.68,8.68,0,0,0,1.333.082c.408,0,.907,0,1.342-.045s.907-.082,1.27-.118c.571-.063,1.161-.127,1.569-.127h.236a.59.59,0,0,1,.372.136h0s0,.054-.19.091a7.591,7.591,0,0,1-1.506.118h-.735a6.1,6.1,0,0,0-1.75.19c-.218.073-.327.145-.336.245s.082.136.245.2a5.75,5.75,0,0,0,1.705.181h1.106c.39,0,.989-.082,1.433-.118.58-.054,1.243-.118,1.633-.118h.218c.091,0,.145,0,.145.082s0,0-.073,0a11.046,11.046,0,0,1-1.551.1h-.463a3.628,3.628,0,0,0-1.333.227c-.136.063-.2.127-.19.2s.136.19.381.254a5.7,5.7,0,0,0,1.415.136h.907c.481,0,.907-.073,1.342-.109.608-.054,1.07-.1,1.37-.1a1.815,1.815,0,0,1,.372,0c.136,0,.145.063.136.073a5.886,5.886,0,0,1-1.714.272c-.653.063-1.27.1-1.814.1a7.655,7.655,0,0,1-2.14-.236,1.569,1.569,0,0,1-.517-.245c-.181-.136-.327-.254-1.533-.281a7.773,7.773,0,0,1-2-.209c-.136,0-.172-.082-.172-.109a.079.079,0,0,1,.045-.082l.082-.073c.136-.118.236-.2.209-.272s-.272-.163-.97-.236c-.853-.082-1.261-.236-1.288-.354s0-.054.054-.082l.118-.073c.172-.109.363-.227.345-.345s-.136-.181-.907-.227a3.864,3.864,0,0,1-1.279-.2.108.108,0,0,1-.1-.109c0-.045,0-.109.218-.227.49-.281.689-.472.68-.626s-.136-.218-.39-.317-.272-.154-.263-.254.19-.272.444-.336c.553-.118,1.052-.245,1.079-.417s0-.109-.109-.154a.209.209,0,0,1-.136-.172c0-.082.127-.163.3-.227s.444-.181.444-.272-.091-.118-.172-.145a2.64,2.64,0,0,0-.816-.1h-.354a1.524,1.524,0,0,0-.907.245h0c0,.109-.136.4-.635.508a1.986,1.986,0,0,1-.426,0h-.063a2.041,2.041,0,0,1-.735-.054.671.671,0,0,0-.272,0H105.8c-.073,0-.2,0-.227.073h0a3.392,3.392,0,0,0,1.279.136h.091a4.263,4.263,0,0,0,.907-.1c.807-.181.907-.58.907-.644a.571.571,0,0,1,.336-.091h.2a1.506,1.506,0,0,1,.336,0h.045s0,.054-.272.136-.463.227-.481.363,0,.163.2.263v.054a3.064,3.064,0,0,1-.807.272c-.426.091-.7.281-.717.481s.127.29.372.381.272.136.281.209-.181.281-.608.535c-.2.109-.3.218-.3.317s.073.145.19.2a4.861,4.861,0,0,0,1.66.272c.1,0,.4,0,.408.082s-.19.172-.272.227l-.127.082c-.091.054-.136.127-.118.19.054.218.689.408,1.66.5a1.986,1.986,0,0,1,.608.091,1.472,1.472,0,0,1-.181.181l-.082.063a.2.2,0,0,0-.082.172c0,.082.109.154.29.218a9.914,9.914,0,0,0,2.44.263c.8,0,.853.054,1.007.172a1.687,1.687,0,0,0,.617.3,9.4,9.4,0,0,0,2.63.29,14.346,14.346,0,0,0,2.131-.109,7.056,7.056,0,0,0,2.186-.4.136.136,0,0,0,.063-.109c0-.063-.118-.118-.327-.181a3.628,3.628,0,0,0-.789-.073c-.481,0-1.052.054-1.66.109l-1.279.109h-.744a3.628,3.628,0,0,1-.907-.091.232.232,0,0,1-.227-.136c-.009-.045,0-.063.091-.091a2.049,2.049,0,0,1,.726-.118h.435a12.87,12.87,0,0,0,2.05-.154c.218-.063.317-.127.308-.209s-.154-.19-.453-.236a3.076,3.076,0,0,0-.535,0c-.526,0-1.188.063-1.9.127l-1.351.109h-.907a3.927,3.927,0,0,1-1.188-.118.124.124,0,0,1-.127-.091c0-.027,0-.054.154-.1a4.054,4.054,0,0,1,1.106-.109h.735a9.424,9.424,0,0,0,2.077-.181c.263-.063.408-.136.426-.227a.109.109,0,0,0,0-.109,1.27,1.27,0,0,0-.726-.236h-.472a17.87,17.87,0,0,0-1.886.145l-1.143.109h-1.152a6.811,6.811,0,0,1-.98-.054c-.272-.045-.408-.118-.4-.209s0-.118.381-.181a4.66,4.66,0,0,1,.789,0h2.231a7.917,7.917,0,0,0,1.342-.091c.463-.082.707-.209.7-.354s-.354-.254-.644-.29a6.031,6.031,0,0,0-.762,0,9.672,9.672,0,0,0-1.46.082q-1.36.136-2.258.136a4.035,4.035,0,0,1-1.034-.091c-.127,0-.2-.082-.2-.127s.127-.163.345-.236a4.916,4.916,0,0,1,1.487-.2h2.585a5.225,5.225,0,0,0,1.025-.073c.354-.063.544-.163.59-.327a.118.118,0,0,0,0-.109c0-.073-.154-.118-.345-.154a5.105,5.105,0,0,0-.97-.063c-.517,0-1.188,0-1.959.054h-1.5a7.493,7.493,0,0,1-1.324-.082c-.2,0-.254-.091-.272-.127a.054.054,0,0,1,0-.073c.073-.118.363-.218.8-.281a9.143,9.143,0,0,1,1.061-.063,13.344,13.344,0,0,1,1.451.082,13.45,13.45,0,0,0,1.478.1,5.732,5.732,0,0,0,.771.354,1.288,1.288,0,0,0,.907-.345.109.109,0,0,0,0-.091c0-.073-.154-.127-.363-.163a6.221,6.221,0,0,0-1.061-.073,14.458,14.458,0,0,0-1.678.073H112.4a6.656,6.656,0,0,1-1.07-.073c-.227-.045-.372-.109-.408-.172a.136.136,0,0,1,0-.063,1.018,1.018,0,0,1,.481-.172,14.592,14.592,0,0,1,2.231-.127h1.56c1.533.063,2.168.58,2.44,1.007a1.551,1.551,0,0,1,.054,1.469.571.571,0,0,0,0,.453c.472.907,3.22,1.968,4.943,2.34a14.511,14.511,0,0,0,2.875.372,5.442,5.442,0,0,0,.98-.082c.5-.091.753-.19.8-.29a.091.091,0,0,0,0-.082c-.091-.19-.907-.336-1.959-.553a26.2,26.2,0,0,1-3.338-.707c-.907-.327-1.46-.716-1.569-1.179a1.288,1.288,0,0,1,.49-1.152.753.753,0,0,0,.272-.635c-.063-.345-.508-.544-.816-.68l-.2-.091s.054-.063.317-.109a10.884,10.884,0,0,1,1.959-.118h.807a13.224,13.224,0,0,0,2.394-.209,3.428,3.428,0,0,0,1.814-.7.218.218,0,0,0,0-.181c-.063-.19-.444-.327-.744-.435a1.315,1.315,0,0,1-.308-.136.708.708,0,0,1-.145-.2c-.073-.136-.136-.254-.717-.254a1.569,1.569,0,0,0-1.016.263c-.1.063-.236.145-.426.245a1.324,1.324,0,0,1-.49.127,3.526,3.526,0,0,1-.463,0,8.233,8.233,0,0,1-1.179-.063c-.463-.063-.617-.136-.617-.154v-.045h0a1.813,1.813,0,0,1,.372-.118c.68-.19,1.932-.553,2.168-1.288.317-.98,1.705-1.814,4.118-2.349,1.442-.345,3.047-.6,4.335-.8A8.344,8.344,0,0,0,135.178,77.277ZM120.666,89.385c-.045-.073-.272-.091-.453-.091s-.535,0-.59.127c0,.073.263.1.444.1s.535,0,.59-.127a.118.118,0,0,0,.045.027Zm-1.7-.907c0-.073-.263-.1-.444-.1s-.544,0-.59.127a.064.064,0,0,0,0,.054c.045.073.272.091.453.091s.535,0,.59-.118a.054.054,0,0,0,.027-.036Zm-2.911-1.814a.054.054,0,0,0,0,.054c0,.073.272.091.453.091s.535,0,.59-.118a.054.054,0,0,0,0-.054c0-.073-.263-.1-.444-.1a1.019,1.019,0,0,0-.562.145Zm1.061-1.016a.054.054,0,0,0,0-.054c0-.073-.263-.091-.444-.091s-.535,0-.59.127h0a1.7,1.7,0,0,0,.453.1c.181,0,.562.018.617-.063Zm-.571,2V87.7c0,.054.263.1.444.1s.544,0,.6-.127a.054.054,0,0,0,0-.054c0-.073-.263-.1-.444-.1A1.248,1.248,0,0,0,116.549,87.643Zm-3.782-3.056c-.045-.091-.354-.127-.59-.127s-.726.063-.789.163a.054.054,0,0,0,0,.063c0,.091.354.127.6.127s.726-.063.789-.163a.082.082,0,0,0,.027-.063Zm-.753,1.052c0-.091-.354-.127-.6-.127s-.726.063-.789.163a.082.082,0,0,0,0,.063c0,.091.354.127.59.127a1.388,1.388,0,0,0,.8-.163A.072.072,0,0,0,112.014,85.639Zm.417,1.143c0-.1-.354-.127-.59-.127a1.388,1.388,0,0,0-.8.163.082.082,0,0,0,0,.063c.054.091.354.127.6.127s.717-.063.789-.172a.054.054,0,0,0,0-.054Zm1,1.034c-.054-.091-.354-.127-.6-.127s-.726.063-.789.163,0,0,0,.063.345.127.59.127.726-.063.789-.163a.054.054,0,0,0,.009-.063Zm2.077.907c-.054-.091-.354-.118-.6-.118s-.726.054-.789.163a.054.054,0,0,0,0,.063c.054.091.354.127.6.127s.726-.063.789-.163a.073.073,0,0,0,0-.063Zm2.793.771c-.045-.091-.354-.127-.59-.127s-.735.063-.789.163a.054.054,0,0,0,0,.063c.054.1.354.136.6.136s.726-.063.789-.172a.073.073,0,0,0-.009-.054Zm-7.782-6.049a1.007,1.007,0,0,1,.608-.218c.082,0,.218,0,.236-.091s0,0,0-.054a.7.7,0,0,0-.272,0h-.181a1.651,1.651,0,0,0-1.052.372.145.145,0,0,0,0,.136c.063.127.345.227.762.272h.127a1.134,1.134,0,0,0,.345,0,.062.062,0,0,0,.063-.063c0-.063-.073-.063-.19-.082-.254,0-.372-.091-.4-.136a.073.073,0,0,1-.045-.127Zm3.374-.317a.535.535,0,0,0,.3-.082h0c0-.073-.236-.082-.308-.082h-.054c-.363,0-.97.063-1.052.19.054.1.508.136.907.154h0a.753.753,0,0,0,.381-.073c.045-.082-.082-.1-.172-.1Zm-1.451.544v.054c.054.1.508.136.907.154h.054a.907.907,0,0,0,.381-.073v-.054c0-.054-.136-.063-.227-.073a.481.481,0,0,0,.272-.054h0c0-.082-.236-.082-.3-.082h-.063c-.272-.027-.943.009-1.025.136Zm3.528-.272c.118,0,.263,0,.3-.082h0c0-.082-.236-.082-.3-.082H115.9c-.354,0-.961.054-1.043.181v.054c.063.109.58.136.907.145h.054a.907.907,0,0,0,.381-.073v-.054a.66.66,0,0,0-.236-.082Zm5.8-2.349h0c0,.054.172.063.254.073h.045a.907.907,0,0,0,.39-.073h0c0,.073.236.073.3.073h.054a.626.626,0,0,0,.345-.073h0c0-.136-.227-.209-.59-.209a1.27,1.27,0,0,0-.8.218Zm.771-.726c0,.054.19.063.254.073h.1a.843.843,0,0,0,.236,0,.8.8,0,0,0,.218,0h.063a.59.59,0,0,0,.336-.073h0c0-.1-.19-.163-.508-.163h0a1.333,1.333,0,0,0-.635.145h0Zm-1.152,1.36h-.109a2.322,2.322,0,0,0-.907.181h-.045a.445.445,0,0,0,.19.063h.118a.907.907,0,0,0,.345-.054l.154-.054h0c0,.063.227.073.29.073h0a.707.707,0,0,0,.4-.082.145.145,0,0,0,0-.145c-.045.073-.263.036-.435.027Zm-1.061,1.206a.054.054,0,0,0,0,.054c0,.063.245.091.417.091s.517,0,.562-.118v-.054c0-.063-.254-.091-.426-.091a.989.989,0,0,0-.553.127Zm-.109.907c-.236,0-.517,0-.562.118s0,0,0,.054.245.091.417.091.517,0,.562-.118a.063.063,0,0,0,0-.054.979.979,0,0,0-.417-.063Zm-.345-.717c0-.063-.245-.091-.426-.091s-.508,0-.553.118v.054c0,.063.254.091.426.091a.989.989,0,0,0,.562-.118.054.054,0,0,0-.009-.027Zm-1.315.544c0,.073.245.1.426.1s.508,0,.553-.127h0a1.523,1.523,0,0,0-.417-.091A1.409,1.409,0,0,0,118.562,83.626Zm1.152,3.628h0a1.227,1.227,0,0,0-.29-.054h-.054a.96.96,0,0,0-.263,0h-.3c-.082,0-.209,0-.236.082h0a1.115,1.115,0,0,0,.526.109h.172C119.523,87.462,119.714,87.389,119.714,87.253Zm-.127.626a.272.272,0,0,0-.163.063h.073A1.351,1.351,0,0,0,119.9,88h.218c.1,0,.272-.045.3-.118a.1.1,0,0,0,0-.082.744.744,0,0,0-.29,0h-.308Zm-.608-1.161h0a1.215,1.215,0,0,0,.653-.154.054.054,0,0,0,0-.054c0-.054-.163-.063-.245-.073h-.571a.671.671,0,0,0-.345.082h0c.054.163.227.227.508.227Zm1.125-.907a.073.073,0,0,0,0-.054c0-.054-.163-.073-.254-.082h0a.835.835,0,0,0-.381.073h0c0-.063-.245-.073-.308-.073h-.054a.671.671,0,0,0-.345.082h0c0,.136.209.209.562.209h0a1.524,1.524,0,0,0,.78-.145Zm-.2-.907h0a.508.508,0,0,0-.317-.073h0c-.136,0-.354,0-.39.1s0,.054,0,.063a.245.245,0,0,1-.091-.054.535.535,0,0,0-.3-.054h-.127c-.045,0-.236,0-.272.082v.054a1.043,1.043,0,0,0,.7.181h.109c.381,0,.662-.118.726-.263Zm-1.215-1.533c0-.073-.245-.091-.426-.091a.989.989,0,0,0-.562.118.054.054,0,0,0,0,.054c0,.063.245.091.417.091s.517,0,.571-.127v-.063Zm1.9,5.17.091.054a1.814,1.814,0,0,0,.4,0,1.2,1.2,0,0,0,.254,0c.109,0,.236,0,.245-.109s0-.063-.064-.091a.834.834,0,0,0-.272,0h-.508a.236.236,0,0,0-.127.063h0Zm1.3.435a.439.439,0,0,0,.154.063,1.869,1.869,0,0,0,.317,0,2,2,0,0,0,.354,0c.118,0,.172-.063.181-.1s-.045-.073-.136-.1a.907.907,0,0,0-.245,0h-.236a.48.48,0,0,0-.127.045,1.07,1.07,0,0,0-.19,0h-.073Zm3.1.3s0-.054-.127-.063a3.845,3.845,0,0,0-.7-.063,2.377,2.377,0,0,0-.472,0,.4.4,0,0,0-.218.1.082.082,0,0,0,0,.063c0,.054.1.1.236.154a.68.68,0,0,0,.254,0h.218c.118,0,.181-.054.19-.091s0,0-.054-.063h.317a1.341,1.341,0,0,0,.3,0,.045.045,0,0,0,.054-.054Zm-.463.245a.054.054,0,0,0,0,.054c.045.091.354.127.59.127s.726-.054.789-.163a.054.054,0,0,0,0-.063c-.054-.091-.354-.127-.6-.127s-.707.045-.78.154Zm-.109-6.258c.054.1.381.136.644.136a1.515,1.515,0,0,0,.907-.181.082.082,0,0,0,0-.063c-.054-.1-.381-.136-.644-.136a1.988,1.988,0,0,0-.907.181.082.082,0,0,0,0,.045Zm.853-4.326.091.054h.172a.281.281,0,0,0,.136,0h.127a1.134,1.134,0,0,0,.345-.045c.091,0,.136-.073.127-.109s-.064-.082-.181-.091h-.19a2.721,2.721,0,0,0-.481,0c-.082,0-.127,0-.136.063h0Zm1.814-.517.063.045a.39.39,0,0,0,.154,0h.29a1.025,1.025,0,0,0,.317-.045c.118,0,.172-.073.172-.118s-.054-.063-.145-.082H127.7a2.65,2.65,0,0,0-.453,0c-.091,0-.145,0-.163.063h0Zm1.814-.435h0a.245.245,0,0,0,.109,0h0l.091.054h.218a1.171,1.171,0,0,0,.263,0c.227-.054.254-.1.254-.127s0-.054-.082-.073a.98.98,0,0,0-.317,0h-.345c-.073,0-.209,0-.236.073h0Zm2.984-.444h0c.082,0,.118,0,.118-.082s0-.054-.109-.073h-.2a1.243,1.243,0,0,0-.281,0c-.272.063-.435.127-.472.19v.054a.251.251,0,0,0,.109.073,2.2,2.2,0,0,0,.417,0,5.171,5.171,0,0,0,.78-.063c.091,0,.209,0,.209-.091v-.054a.908.908,0,0,0-.263,0h-.2Zm.4-.1c.054.091.354.127.6.127s.726-.063.789-.163,0-.045,0-.063a1.615,1.615,0,0,0-.59-.127c-.245,0-.726.063-.789.163a.054.054,0,0,0,.036.045Zm-3.882,0c0-.073-.263-.091-.444-.091s-.544,0-.6.127c0,.073.263.1.453.1s.535,0,.59-.127a.054.054,0,0,0,.045-.073Zm-2.231-.163c0-.091-.354-.118-.59-.118s-.735.054-.8.163a.072.072,0,0,0,0,.063c.054.091.354.127.6.127s.726-.063.789-.172a.073.073,0,0,0,0-.063Zm-.6,1.034c0-.063-.263-.091-.453-.091s-.535,0-.59.127c0,.073.263.1.444.1s.544,0,.59-.127l.009-.018Zm-3.183-.254c-.054-.091-.354-.127-.6-.127s-.726.054-.789.163a.054.054,0,0,0,0,.063c.054.091.354.127.6.127s.726-.063.789-.163a.054.054,0,0,0,0-.073Zm.662,1.134c0-.073-.263-.091-.444-.091s-.544,0-.6.127c0,.073.263.1.444.1s.544,0,.6-.127a.054.054,0,0,0,0-.018Zm-3.927-.218c-.045-.091-.354-.127-.59-.127s-.726.063-.789.163a.054.054,0,0,0,0,.063c.054.091.354.127.6.127s.726-.063.789-.163a.082.082,0,0,0-.009-.073Zm2.213,1.179c0-.073-.263-.1-.444-.1s-.544,0-.6.127a.054.054,0,0,0,0,.054c0,.073.263.091.444.091s.544,0,.6-.118a.054.054,0,0,0,0-.063ZM120,81.195c0-.073-.263-.1-.444-.1s-.544,0-.59.127v.054c0,.073.263.091.444.091s.544,0,.6-.118a.054.054,0,0,0-.009-.063ZM116.793,80c-.054-.091-.354-.127-.6-.127s-.726.063-.789.163a.054.054,0,0,0,0,.063c.054.1.363.127.6.127a1.433,1.433,0,0,0,.8-.163.082.082,0,0,0-.009-.063Zm-1.9,1.143c-.045-.091-.354-.127-.59-.127s-.726.063-.789.172v.054c.054.1.354.127.6.127s.726-.054.789-.163A.073.073,0,0,0,114.9,81.14Zm-.553,1.052c0-.091-.354-.127-.6-.127s-.726.063-.789.163a.073.073,0,0,0,0,.063c0,.091.354.127.59.127a1.388,1.388,0,0,0,.8-.163.082.082,0,0,0,0-.063ZM91.671,91.661a13.6,13.6,0,0,0-4.988-2.313,13.042,13.042,0,0,0-7.945.571,1.125,1.125,0,0,0,.843,2.086,10.829,10.829,0,0,1,6.594-.472,11.482,11.482,0,0,1,4.163,1.923,1.126,1.126,0,0,0,1.36-1.8Zm-7.129,1.4a5.714,5.714,0,0,0-4.734,2.621.6.6,0,0,0,.236.825.617.617,0,0,0,.834-.227,4.227,4.227,0,0,1,2.249-1.723,1.732,1.732,0,0,0-.19.807,1.769,1.769,0,1,0,3.528,0,1.814,1.814,0,0,0-.263-.907,4.072,4.072,0,0,1,2.621,1.9.626.626,0,0,0,.553.354.662.662,0,0,0,.263-.063.617.617,0,0,0,.29-.816,5.542,5.542,0,0,0-5.387-2.775Zm14.892,2.168c-1.687-.417-3.347,1.46-4.19,3.628-.073.163-.8,1.868.345,1.959.526,0,1.116-.571,1.333-1.3a1.261,1.261,0,0,0-.127-1.134c.789-1.442,1.814-2.1,2.349-1.95a.62.62,0,0,0,.29-1.206ZM84.66,110.472a11.954,11.954,0,0,1-1.351.463.418.418,0,0,0-.063.063c-2.721,2.485-3.12,3.891-7.519,3.891s-4.834-1.406-7.519-3.891l-.063-.063a12.428,12.428,0,0,1-1.342-.463.611.611,0,1,1,.453-1.134,13.813,13.813,0,0,0,5.324.907s1.279.054,3.147.073,3.147-.073,3.147-.073a13.777,13.777,0,0,0,5.324-.907.617.617,0,0,1,.463,1.134Zm-3.483.843c-.662.063-1.388.109-2.258.127-.1,0-1.37.063-3.193.073s-3.2-.073-3.2-.073c-.862,0-1.6-.063-2.258-.127a15.616,15.616,0,0,0,1.215,1.161,11.011,11.011,0,0,0,4.226.617,11.083,11.083,0,0,0,4.263-.626A13.928,13.928,0,0,0,81.177,111.315ZM64.734,95.362a1.769,1.769,0,1,0,3.537,0,1.859,1.859,0,0,0-.2-.807,4.363,4.363,0,0,1,2.222,1.769.609.609,0,1,0,1.061-.6,5.687,5.687,0,0,0-4.689-2.666,5.505,5.505,0,0,0-5.378,2.721.608.608,0,0,0,.29.816.653.653,0,0,0,.254.063.608.608,0,0,0,.553-.354,4.036,4.036,0,0,1,2.63-1.9,1.669,1.669,0,0,0-.281.961Zm13.722,22.166a19.954,19.954,0,0,0-5.505,0,.609.609,0,1,0,.091,1.215h.091a18.783,18.783,0,0,1,5.142,0,.61.61,0,0,0,.181-1.206ZM71.572,92.006a1.125,1.125,0,1,0,.853-2.032,13.078,13.078,0,0,0-7.954-.58,13.6,13.6,0,0,0-4.988,2.313,1.128,1.128,0,0,0,1.342,1.814,11.328,11.328,0,0,1,4.163-1.914,10.738,10.738,0,0,1,6.585.4Zm.063,11.011a1.6,1.6,0,0,0-.218.19.613.613,0,1,0,.907.825.671.671,0,0,1,.907.082l.218.145a2.939,2.939,0,0,0,4.607,0l.091-.082.091-.063a.7.7,0,0,1,.907-.082.613.613,0,0,0,.907-.825,1.886,1.886,0,0,0-2.53-.073,2.612,2.612,0,0,1-1.814.4,2.549,2.549,0,0,1-1.76-.4,1.868,1.868,0,0,0-2.313-.118Zm15.573,3.4c-3.8,1.814-5.442-1.261-9.46-1.252a9.977,9.977,0,0,0-2.041.562,9.977,9.977,0,0,0-2.05-.562c-4.036,0-5.65,3.029-9.451,1.252-2.013-.907,3.238,5.487,10.031,2.44a5.007,5.007,0,0,1,1.469-.571,5.007,5.007,0,0,1,1.469.571C83.97,111.9,89.222,105.465,87.208,106.418Z" transform="translate(-5.581 -7.114)"/>
  </g>
</svg>
