<svg id="pays-honduras" xmlns="http://www.w3.org/2000/svg" viewBox="0 0 141.215 141.215">
  <defs>
    <style>
      .cls-1 {
        fill: #fff;
      }

      .cls-2 {
        fill: none;
        stroke: #f4c55c;
        stroke-miterlimit: 10;
        stroke-width: 2.37px;
      }

      .cls-3 {
        fill: #f1e4b2;
      }

      .cls-4 {
        fill: #f4c55c;
      }

      .cls-5 {
        fill: #252525;
      }
    </style>
  </defs>
  <ellipse id="Ellipse_15" data-name="Ellipse 15" class="cls-1" cx="67.116" cy="67.116" rx="67.116" ry="67.116" transform="translate(3.492 3.501)"/>
  <path id="Tracé_318" data-name="Tracé 318" class="cls-2" d="M81.836,27.958a49.248,49.248,0,0,0-6.476.444l6.476-9.723L88.321,28.4a49.384,49.384,0,0,0-6.485-.444Z" transform="translate(-11.228 -5.946)"/>
  <path id="Tracé_319" data-name="Tracé 319" class="cls-2" d="M115,39.595,126.482,37.3l-2.295,11.518A48.913,48.913,0,0,0,115,39.595Z" transform="translate(-14.916 -7.678)"/>
  <path id="Tracé_320" data-name="Tracé 320" class="cls-2" d="M135.64,75.31l9.723,6.476-9.723,6.485a47.768,47.768,0,0,0,.444-6.485,46.318,46.318,0,0,0-.444-6.476Z" transform="translate(-16.836 -11.215)"/>
  <path id="Tracé_321" data-name="Tracé 321" class="cls-2" d="M124.188,115l2.295,11.482L115,124.142A48.976,48.976,0,0,0,124.188,115Z" transform="translate(-14.916 -14.907)"/>
  <path id="Tracé_322" data-name="Tracé 322" class="cls-2" d="M48.822,124.142,37.34,126.437,39.644,115a48.65,48.65,0,0,0,9.179,9.142Z" transform="translate(-7.691 -14.907)"/>
  <path id="Tracé_323" data-name="Tracé 323" class="cls-2" d="M28.354,88.261,18.64,81.786l9.714-6.476a49.249,49.249,0,0,0-.444,6.476,50.626,50.626,0,0,0,.444,6.476Z" transform="translate(-5.952 -11.215)"/>
  <path id="Tracé_324" data-name="Tracé 324" class="cls-2" d="M39.644,48.818,37.34,37.3l11.482,2.295a48.6,48.6,0,0,0-9.178,9.224Z" transform="translate(-7.691 -7.678)"/>
  <path id="Tracé_325" data-name="Tracé 325" class="cls-3" d="M42.56,28.162l2.4-1.723,14.285,2.875,8.126-12.153,2.884-.481L60.237,31.69Z" transform="translate(-8.177 -5.76)"/>
  <path id="Tracé_326" data-name="Tracé 326" class="cls-3" d="M91.82,16.69l2.911.481,8.1,12.117,14.339-2.875,2.376,1.7L101.86,31.673Z" transform="translate(-12.76 -5.761)"/>
  <path id="Tracé_327" data-name="Tracé 327" class="cls-3" d="M135.3,42.58l1.714,2.4-2.866,14.285L146.3,67.395l.481,2.884L131.77,60.266Z" transform="translate(-16.476 -8.17)"/>
  <path id="Tracé_328" data-name="Tracé 328" class="cls-3" d="M146.762,91.85l-.481,2.911-12.126,8.081,2.857,14.339-1.7,2.385-3.546-17.695Z" transform="translate(-16.476 -12.753)"/>
  <path id="Tracé_329" data-name="Tracé 329" class="cls-3" d="M28.071,119.555l-1.705-2.4,2.911-14.276L17.152,94.7,16.68,91.82l14.983,10.067Z" transform="translate(-5.769 -12.751)"/>
  <path id="Tracé_330" data-name="Tracé 330" class="cls-3" d="M16.68,70.316l.481-2.911,12.117-8.09L26.412,44.975l1.7-2.385,3.555,17.695Z" transform="translate(-5.769 -8.171)"/>
  <path id="Tracé_331" data-name="Tracé 331" class="cls-4" d="M145.865,75.256a70.607,70.607,0,1,0-70.6,70.6,70.609,70.609,0,0,0,70.6-70.6Zm-70.6,65.438A65.438,65.438,0,1,1,140.695,75.26,65.44,65.44,0,0,1,75.266,140.694Z" transform="translate(-4.65 -4.64)"/>
  <path id="Tracé_332" data-name="Tracé 332" class="cls-5" d="M137.61,73.079a.472.472,0,0,0,0-.163c0-4.109-2.159-8.417-6.249-12.453-4.916-4.916-12.28-9-21.35-11.9a97.109,97.109,0,0,0-18.5-3.9c-.381-.98-.78-2.05-1.2-3.183-3.056-8.272-7.256-19.59-14.8-19.59h-.218c-7.682-.218-11.908,11.219-15,19.545-.417,1.143-.816,2.213-1.2,3.193a98.015,98.015,0,0,0-18.838,3.936c-9.033,2.9-16.407,6.984-21.368,11.9-4.09,4.036-6.249,8.344-6.249,12.453a.5.5,0,0,0,0,.163l4.245,14.285c.045.181.091.354.154.535a2.313,2.313,0,0,0-.6-.3,2.077,2.077,0,0,0-.843-.1,1.977,1.977,0,0,0-.8.236,2.032,2.032,0,0,0-.644.526,2.059,2.059,0,0,0-.39.753,2.258,2.258,0,0,0,.181,1.678,2.231,2.231,0,0,0,1.3,1.134,2.077,2.077,0,0,0,.843.1,2.106,2.106,0,0,0,1.442-.762,2.059,2.059,0,0,0,.39-.753,2.422,2.422,0,0,0,.091-.571,14.076,14.076,0,0,0,3.3,3.32,2.07,2.07,0,0,0-2.186,1.678,2.077,2.077,0,0,0,0,.853,2.358,2.358,0,0,0,.336.789,2.159,2.159,0,0,0,.617.6,2.186,2.186,0,0,0,.789.345,2.24,2.24,0,0,0,.853,0,2.141,2.141,0,0,0,.789-.308,2.176,2.176,0,0,0,.6-.59,2.14,2.14,0,0,0,.317-.771,2.2,2.2,0,0,0,0-.843,2.149,2.149,0,0,0-.163-.481,37.341,37.341,0,0,0,4.353,2.24,2.05,2.05,0,0,0-.517.127,2.413,2.413,0,0,0-.716.453,2.068,2.068,0,0,0-.472.7,2.113,2.113,0,0,0-.163.816,2.05,2.05,0,0,0,.181.825,2.422,2.422,0,0,0,.481.717,2.24,2.24,0,0,0,.716.472,2.313,2.313,0,0,0,.843.181,2.241,2.241,0,0,0,.843-.154,2.186,2.186,0,0,0,.717-.453,2,2,0,0,0,.463-.689,1.814,1.814,0,0,0,.163-.816,2.086,2.086,0,0,0-.172-.834,2.3,2.3,0,0,0-.281-.481c1.487.59,3.084,1.134,4.789,1.651a2.105,2.105,0,0,0-.562.209,2.231,2.231,0,0,0-.662.526,2.013,2.013,0,0,0-.39.744,1.959,1.959,0,0,0-.073.825,2.222,2.222,0,0,0,.263.807,2.286,2.286,0,0,0,.562.653,2.141,2.141,0,0,0,.771.39,2.1,2.1,0,0,0,.853.091,2.3,2.3,0,0,0,.816-.245,2.122,2.122,0,0,0,.662-.535,2.087,2.087,0,0,0,.463-1.56,2.013,2.013,0,0,0-.263-.807,2.186,2.186,0,0,0-.372-.49c1.6.444,3.283.862,5.034,1.252a2.185,2.185,0,0,0-.6.263,2.068,2.068,0,0,0-.617.571,2.168,2.168,0,0,0-.336.771,1.95,1.95,0,0,0,0,.825,2.15,2.15,0,0,0,.327.789,2.421,2.421,0,0,0,.608.608,2.34,2.34,0,0,0,.789.326,2.3,2.3,0,0,0,.862,0,2.249,2.249,0,0,0,.8-.308,1.9,1.9,0,0,0,.617-.58,1.923,1.923,0,0,0,.336-.762,2,2,0,0,0,0-.834,2.168,2.168,0,0,0-.327-.78,2.1,2.1,0,0,0-.444-.49c1.678.336,3.419.653,5.206.907a2.512,2.512,0,0,0-.626.308,2.2,2.2,0,0,0-.58.617,2.1,2.1,0,0,0-.254,1.614,2.285,2.285,0,0,0,.372.762,2.394,2.394,0,0,0,.644.571,2.313,2.313,0,0,0,.816.29,2.129,2.129,0,0,0,2.558-1.741,2,2,0,0,0-.045-.834,2.1,2.1,0,0,0-.363-.762,2.177,2.177,0,0,0-.517-.481l2.349.317a10.557,10.557,0,0,0,1.524,1.968v.172a2.149,2.149,0,0,0,.082.834,2.186,2.186,0,0,0,1.079,1.27,2.141,2.141,0,0,0,.825.254,2.285,2.285,0,0,0,.907-.073,2.1,2.1,0,0,0,.463-.2,21.549,21.549,0,0,0,.98,3.628,16.371,16.371,0,0,0,3.809,6.349v.181c.1.635.236,1.279.381,1.914.082.345.172.7.263,1.043v.054a6.259,6.259,0,0,0,.3.843h0l-1.832,5.043h1.2l1.315-3.827a11.972,11.972,0,0,0,5.224,3.827h5.786c-5.8-.082-10.1-3.211-10.884-6.195v-.054c-.1-.345-.181-.7-.263-1.052-.054-.209-.091-.417-.136-.635a15.581,15.581,0,0,0,6.829,2.957,1.46,1.46,0,0,1,.49.163,4.762,4.762,0,0,0,3.247.789H75.9a4.789,4.789,0,0,0,3.256-.789,1.315,1.315,0,0,1,.49-.163,15.563,15.563,0,0,0,7.256-3.156c-.063.29-.118.571-.19.862s-.163.7-.254,1.052v.054c-.825,2.984-5.124,6.113-10.884,6.195h5.768a11.945,11.945,0,0,0,5.088-3.809l1.351,3.782h1.2l-1.76-5.106a5.362,5.362,0,0,0,.308-.853v-.054c.091-.345.172-.689.254-1.034.145-.635.245-1.288.381-1.914a2.587,2.587,0,0,1,.1-.526,16.552,16.552,0,0,0,3.51-5.932,21.414,21.414,0,0,0,.98-3.628,1.914,1.914,0,0,0,.4.154,2.267,2.267,0,0,0,.907.073,2.313,2.313,0,0,0,.816-.254,2.131,2.131,0,0,0,.662-.544,2.1,2.1,0,0,0,.408-.735,2.186,2.186,0,0,0,.082-.834.136.136,0,0,1,0-.063,10.539,10.539,0,0,0,1.642-2.068l2.177-.3a2.068,2.068,0,0,0-.444.444,2.131,2.131,0,0,0-.372.762,2.062,2.062,0,0,0,.843,2.222,2.231,2.231,0,0,0,.78.354,2.3,2.3,0,0,0,.862,0,2.322,2.322,0,0,0,.816-.3,2.231,2.231,0,0,0,.635-.571,2.285,2.285,0,0,0,.372-.762,2.1,2.1,0,0,0,0-.825,1.977,1.977,0,0,0-.29-.78,2.168,2.168,0,0,0-1.125-.907q2.594-.426,5.034-.907a2.131,2.131,0,0,0-.372.426,2.322,2.322,0,0,0-.317.78,2,2,0,0,0,0,.834,2.059,2.059,0,0,0,.907,1.333,2.1,2.1,0,0,0,.807.308,2.3,2.3,0,0,0,.907,0,2.2,2.2,0,0,0,.789-.345,2.147,2.147,0,0,0,.925-1.388,2.131,2.131,0,0,0-.354-1.6,2.186,2.186,0,0,0-.617-.571,2.232,2.232,0,0,0-.5-.227c1.678-.381,3.3-.789,4.843-1.215a2.077,2.077,0,0,0-.29.39,2.259,2.259,0,0,0-.254.807,1.869,1.869,0,0,0,.082.834,1.923,1.923,0,0,0,.39.735,2.1,2.1,0,0,0,.662.526,2.258,2.258,0,0,0,.825.236,2.158,2.158,0,0,0,.907-.091,2.195,2.195,0,0,0,.762-.4,2.258,2.258,0,0,0,.553-.653,2.15,2.15,0,0,0,.254-.807,1.959,1.959,0,0,0-.082-.825,2.014,2.014,0,0,0-.39-.744,2.231,2.231,0,0,0-.662-.526,3.57,3.57,0,0,0-.435-.163c1.614-.5,3.129-1.034,4.535-1.587a2.157,2.157,0,0,0-.181.354,2.2,2.2,0,0,0-.163.825,2.014,2.014,0,0,0,.172.825,2.059,2.059,0,0,0,1.188,1.125,2.14,2.14,0,0,0,.853.145,2.276,2.276,0,0,0,.834-.19,2.186,2.186,0,0,0,.716-.49,1.977,1.977,0,0,0,.472-.707,2.041,2.041,0,0,0,.172-.825,2.086,2.086,0,0,0-.172-.816,2.3,2.3,0,0,0-.481-.689,2.222,2.222,0,0,0-.717-.444,2.159,2.159,0,0,0-.345-.1,35.164,35.164,0,0,0,4.063-2.131,2.72,2.72,0,0,0-.073.29,2.032,2.032,0,0,0,0,.843,1.923,1.923,0,0,0,.336.762,1.814,1.814,0,0,0,.608.571,1.968,1.968,0,0,0,.789.29,2.113,2.113,0,0,0,.907,0,2.276,2.276,0,0,0,.789-.354,2.376,2.376,0,0,0,.59-.617,2.1,2.1,0,0,0,.317-.8,2.032,2.032,0,0,0,0-.843,1.814,1.814,0,0,0-.336-.762,1.923,1.923,0,0,0-.608-.571,1.968,1.968,0,0,0-.789-.29h-.254a13.35,13.35,0,0,0,2.966-3.12l.082.281a2.1,2.1,0,0,0,.435.726,2,2,0,0,0,.671.49,2.149,2.149,0,0,0,.816.19,2.231,2.231,0,0,0,.834-.154,2.123,2.123,0,0,0,.716-.463,2.322,2.322,0,0,0,.5-.707,2.24,2.24,0,0,0,.073-1.678,2.1,2.1,0,0,0-.435-.726,1.922,1.922,0,0,0-.671-.49,2.15,2.15,0,0,0-.816-.19,2.213,2.213,0,0,0-.825.154,2.294,2.294,0,0,0-.336.163l.082-.39ZM109.494,59.81a122.087,122.087,0,0,0-34.3-4.263,128.045,128.045,0,0,0-34.61,4.118c-9.07,2.485-16.153,6.068-20.488,10.358a17.813,17.813,0,0,0-2.939,3.664,21.132,21.132,0,0,1,3.855-5.034c10-9.85,30.157-15.827,53.892-15.636h.59c23.735-.209,43.77,5.777,53.774,15.663a17.523,17.523,0,0,1,5.143,8.489,16.607,16.607,0,0,0-4.372-6.757c-4.426-4.372-11.528-8.036-20.534-10.6Zm17.6,9.532c-4.317-3.138-10.24-5.777-17.377-7.746a126.477,126.477,0,0,0-34.537-4.154C53.861,57.2,40.048,61.4,32.275,64.762,24.9,67.945,19.641,72.018,17.1,76.444a14.829,14.829,0,0,1,3.773-5.632c4.208-4.154,11.119-7.637,20-10.067A126.748,126.748,0,0,1,74.9,56.663h.571a120.889,120.889,0,0,1,33.7,4.236c7.5,2.131,13.632,5.025,17.931,8.444Zm-108.927.78a24.179,24.179,0,0,1,3.265-3.9c10.33-10.2,30.329-16.4,53.466-16.2h.58c23.146-.2,43.017,6,53.348,16.2a25.6,25.6,0,0,1,3.265,3.9,25.786,25.786,0,0,0-2.041-2.258c-4.707-4.644-11.872-8.544-20.724-11.292a111.076,111.076,0,0,0-34.138-4.653A111.8,111.8,0,0,0,40.946,56.6C32.094,59.32,24.92,63.247,20.212,67.891a27.208,27.208,0,0,0-2.032,2.231Zm1.5-8.852C30.244,50.831,50.841,44.745,74.821,44.945h.608c23.989-.209,44.586,5.877,55.153,16.325,3.4,3.365,5.387,6.884,5.823,10.267-2.6-6.031-9.006-11.791-17.967-16.217-8.108-3.954-22.121-8.888-43.09-8.652-21.423-.19-35.716,4.879-43.9,9-9.133,4.6-15.418,10.648-17.668,16.861.136-3.691,2.168-7.573,5.9-11.255ZM14.326,74.7c1.451-6.539,7.854-13.106,17.631-18.031,8.027-4.045,22.057-9.07,43.1-8.879h.59c34.691-.308,57,13.423,60.477,26.3l-.49,1.651c-.553-3.446-2.6-6.984-6.013-10.349-4.825-4.771-12-8.8-20.733-11.627-9.913-3.22-21.014-4.861-33.612-4.916A108.89,108.89,0,0,0,41.39,53.77c-8.743,2.848-15.908,6.875-20.742,11.645-3.41,3.365-5.442,6.9-6.013,10.348ZM23.677,85.2a2.313,2.313,0,0,1-.327.789,2.276,2.276,0,0,1-.608.608,2.2,2.2,0,0,1-.789.354,2.3,2.3,0,0,1-.862,0,2.152,2.152,0,0,1-1.714-1.678,2.24,2.24,0,0,1,.336-1.633,2.313,2.313,0,0,1,.608-.617,2.276,2.276,0,0,1,.807-.263,2.068,2.068,0,0,1,.853,0,1.986,1.986,0,0,1,.789.3,1.814,1.814,0,0,1,.6.571,2.149,2.149,0,0,1,.336.771A2.249,2.249,0,0,1,23.677,85.2ZM30.2,82.058a2.268,2.268,0,0,1-2.041,1.37,2.068,2.068,0,0,1-.843-.145,2.013,2.013,0,0,1-.717-.453,1.941,1.941,0,0,1-.472-.689,2.1,2.1,0,0,1,0-1.642,2.3,2.3,0,0,1,.472-.707,2.422,2.422,0,0,1,.717-.481,2.349,2.349,0,0,1,.843-.181,2.313,2.313,0,0,1,.853.145,2.186,2.186,0,0,1,.717.453,2.1,2.1,0,0,1,.463.689,1.968,1.968,0,0,1,.172.816,2.168,2.168,0,0,1-.163.825Zm7.174-2.993a2.059,2.059,0,0,1-.263.807,2.1,2.1,0,0,1-.553.644,2.158,2.158,0,0,1-.771.4,2.1,2.1,0,0,1-.853.091,2.222,2.222,0,0,1-.825-.245,2.086,2.086,0,0,1-.653-.535,2,2,0,0,1-.4-.735,2.159,2.159,0,0,1-.073-.834,2.358,2.358,0,0,1,.263-.8,2.272,2.272,0,0,1,2.186-1.134,2.131,2.131,0,0,1,.816.245,2.1,2.1,0,0,1,.662.526,2.05,2.05,0,0,1,.39.735,2,2,0,0,1,.1.834ZM44.555,77.4a2,2,0,0,1-.317.78,2.385,2.385,0,0,1-.6.608,2.3,2.3,0,0,1-.744.345,2.349,2.349,0,0,1-.907,0,2.394,2.394,0,0,1-.8-.308,2.05,2.05,0,0,1-.952-1.342,2,2,0,0,1,0-.834,2.322,2.322,0,0,1,.317-.78,2.422,2.422,0,0,1,.608-.608,2.367,2.367,0,0,1,1.66-.363,2.394,2.394,0,0,1,.8.308,2.059,2.059,0,0,1,.952,1.333,2.032,2.032,0,0,1,.009.862Zm6.267.1a2.249,2.249,0,0,1-.816.29,2.3,2.3,0,0,1-.862,0,2.231,2.231,0,0,1-.78-.345,2.2,2.2,0,0,1-.58-.617,2,2,0,0,1-.254-1.614,2.1,2.1,0,0,1,.363-.762,2.286,2.286,0,0,1,2.313-.834,2.195,2.195,0,0,1,1.4.98,2.1,2.1,0,0,1,.254,1.614,2.285,2.285,0,0,1-.372.762,2.394,2.394,0,0,1-.635.526Zm47.861,20.4a12.915,12.915,0,0,1-1.533,3.628c-1.052,1.814-1.886,2.812-2.666,3.2a1.986,1.986,0,0,1-1.633.091H92.8a.571.571,0,0,0-.907.354,3.179,3.179,0,0,1-.073.834,19.4,19.4,0,0,1-1.1,4.535c-2.15,6.276-6.485,8.915-11.228,9.75-1.687.3-.49.907-3.546.907h-1.17c-3.066,0-1.859-.635-3.546-.907-4.743-.843-9.07-3.474-11.237-9.75a22.946,22.946,0,0,1-.807-2.784c-.136-.726-.254-1.587-.345-2.385v-.082h0a.571.571,0,0,0-.961-.363h0a2.023,2.023,0,0,1-1.633-.082c-.78-.4-1.614-1.37-2.666-3.2a12.969,12.969,0,0,1-1.533-3.628c-.481-2.177,0-3.628.97-4.009h.063c2.449-.744,4.97,4.471,5.025,4.535a.553.553,0,0,0,.453.236.626.626,0,0,0,.218,0,.571.571,0,0,0,.345-.6c0-.1-1.188-8.825,1.388-13.151l.408,4.743a.562.562,0,0,0,.463.508A.58.58,0,0,0,62,89.958a16.906,16.906,0,0,1,5.913-7.2c-.571,1.034-1.061,2.113-1.37,2.821-1.351,3.075-1.2,3.247-.97,3.528a.59.59,0,0,0,.762.073,49.185,49.185,0,0,1,14.221-6.63L75.637,87.8a.571.571,0,0,0,0,.716.562.562,0,0,0,.463.236.725.725,0,0,0,.236,0l12.1-5.5h0c4.535,5.723,2.966,14.711,2.948,14.8a.571.571,0,0,0,.336.626.671.671,0,0,0,.227,0,.553.553,0,0,0,.453-.236c.054-.064,2.657-5.632,5.306-4.535h.063c.925.326,1.424,1.8.943,3.982ZM69.66,79.6l-.6,1.243a15.944,15.944,0,0,0-7.256,6.739l-.372-4.272a.562.562,0,0,0-.372-.481.544.544,0,0,0-.59.127c-2.812,2.848-2.966,8.87-2.784,12.5A44.813,44.813,0,0,1,55.2,88.3c.3-4.444,6.893-7.609,14.511-8.7Zm-7.446-5.378a2.1,2.1,0,0,1,.109-.825,2.24,2.24,0,0,1,.444-.726,2.27,2.27,0,0,1,2.376-.617,2.177,2.177,0,0,1,.744.426,1.959,1.959,0,0,1,.526.662,2.013,2.013,0,0,1,.218.8,2.1,2.1,0,0,1-.109.825,2.15,2.15,0,0,1-.444.726,2.331,2.331,0,0,1-.68.517,2.4,2.4,0,0,1-.843.209,2.231,2.231,0,0,1-.853-.109,2.077,2.077,0,0,1-.744-.417,2.149,2.149,0,0,1-.526-.662,2.059,2.059,0,0,1-.218-.807ZM82.993,79.9l-1.016,1.088-.526.118A48.359,48.359,0,0,0,69.6,85.795l6.412-6.6a40.15,40.15,0,0,1,6.984.707Zm-6.675-6.213a2.231,2.231,0,0,1,.181-.816,2.068,2.068,0,0,1,.5-.689,2.286,2.286,0,0,1,.717-.453,2.249,2.249,0,0,1,.853-.145,2.186,2.186,0,0,1,.843.172,2.313,2.313,0,0,1,.717.481,2.213,2.213,0,0,1,.472.7,2.059,2.059,0,0,1-.517,2.331,2.086,2.086,0,0,1-.726.453,2.177,2.177,0,0,1-.843.154,2.285,2.285,0,0,1-1.56-.653,2.358,2.358,0,0,1-.472-.707A2.286,2.286,0,0,1,76.317,73.687Zm7.963,6.476a28.951,28.951,0,0,1,4.707,1.487l-10.566,4.8Zm-.562-6.349a2.014,2.014,0,0,1,.218-.8,2.05,2.05,0,0,1,.517-.671,2.159,2.159,0,0,1,.744-.417,2.068,2.068,0,0,1,.853-.118,2.358,2.358,0,0,1,.834.209,2.1,2.1,0,0,1,.689.508,2.059,2.059,0,0,1,.444.717,1.986,1.986,0,0,1,.118.825,1.868,1.868,0,0,1-.209.807,2.077,2.077,0,0,1-.526.671,2.14,2.14,0,0,1-.735.426,2.258,2.258,0,0,1-.853.109,2.177,2.177,0,0,1-.843-.209,2.231,2.231,0,0,1-.689-.508,2.2,2.2,0,0,1-.444-.717,1.986,1.986,0,0,1-.127-.78ZM68.01,85.8l3.038-6.349c1.116-.127,2.24-.2,3.365-.236Zm5.9-11.292a2.15,2.15,0,0,1-.472.707,2,2,0,0,1-.707.481,2.195,2.195,0,0,1-.843.181,2.44,2.44,0,0,1-.853-.145,2.331,2.331,0,0,1-.726-.453,2.122,2.122,0,0,1-.671-1.506,1.941,1.941,0,0,1,.145-.816,2.014,2.014,0,0,1,.472-.707,2.385,2.385,0,0,1,.707-.481A2.185,2.185,0,0,1,71.8,71.6a2.041,2.041,0,0,1,.843.145,2.175,2.175,0,0,1,1.224,1.134,1.923,1.923,0,0,1,.181.816A2.041,2.041,0,0,1,73.9,74.512ZM59.167,75.3a2.149,2.149,0,0,1-.408.744,2,2,0,0,1-.662.535,2.276,2.276,0,0,1-1.687.181,2.313,2.313,0,0,1-.762-.381,2.2,2.2,0,0,1-.553-.644,2.168,2.168,0,0,1-.254-.8,2.122,2.122,0,0,1,.082-.825,2.068,2.068,0,0,1,.408-.744A2.276,2.276,0,0,1,56,72.825a2.086,2.086,0,0,1,.816-.245,2.285,2.285,0,0,1,.862.073,2.149,2.149,0,0,1,.762.381,2.077,2.077,0,0,1,.553.644,2.023,2.023,0,0,1,.254.789,1.986,1.986,0,0,1-.082.834ZM95.445,87.518A46.625,46.625,0,0,1,92.8,95.345c.136-3.238-.209-8.571-3.3-12.7l.907-.4c2.648,1.415,4.535,3.229,5.006,5.269ZM91.1,74.358a2.05,2.05,0,0,1,.245-.8,2.24,2.24,0,0,1,1.315-1.025,2.267,2.267,0,0,1,.862-.082,2.44,2.44,0,0,1,.816.245,2.276,2.276,0,0,1,.671.544,2.059,2.059,0,0,1,.417.735,2.15,2.15,0,0,1,.082.834,2.05,2.05,0,0,1-.245.8,2.2,2.2,0,0,1-.553.644,2.168,2.168,0,0,1-.762.39,2.467,2.467,0,0,1-.907.073,2.177,2.177,0,0,1-.825-.245,2.231,2.231,0,0,1-.662-.535,2.149,2.149,0,0,1-.408-.744A2,2,0,0,1,91.1,74.358Zm11.745,1.487a2.032,2.032,0,0,1-.907,1.4,2.059,2.059,0,0,1-.771.354,2.494,2.494,0,0,1-.907,0,2.358,2.358,0,0,1-.825-.29,2.231,2.231,0,0,1-.635-.571,2.131,2.131,0,0,1-.372-.762,1.941,1.941,0,0,1,0-.825,2,2,0,0,1,.281-.789,2.177,2.177,0,0,1,.58-.608,2.1,2.1,0,0,1,.78-.354,2.122,2.122,0,0,1,.907,0,2.249,2.249,0,0,1,.807.281,2.168,2.168,0,0,1,1.025,1.333,2.141,2.141,0,0,1,.036.834Zm7.256,1.442a2,2,0,0,1-.326.771,2.222,2.222,0,0,1-.617.58,2.25,2.25,0,0,1-.8.308,2.3,2.3,0,0,1-1.66-.354,2.276,2.276,0,0,1-.608-.608,2.34,2.34,0,0,1-.327-.78,2,2,0,0,1,0-.834,2.059,2.059,0,0,1,.336-.762,1.986,1.986,0,0,1,.617-.58,2.2,2.2,0,0,1,1.651-.29,2.312,2.312,0,0,1,.8.327,2.276,2.276,0,0,1,.608.608,2.167,2.167,0,0,1,.327.78,2,2,0,0,1,.018.862Zm7.165,1.959a1.977,1.977,0,0,1-.39.735,2.122,2.122,0,0,1-.662.535,2.313,2.313,0,0,1-.816.254,2.1,2.1,0,0,1-.853-.091,2.249,2.249,0,0,1-.78-.39,2.222,2.222,0,0,1-.825-1.451,2.177,2.177,0,0,1,.073-.834,2.05,2.05,0,0,1,.39-.735,2.258,2.258,0,0,1,.662-.535,2.131,2.131,0,0,1,.816-.245,2.258,2.258,0,0,1,.853.082,2.222,2.222,0,0,1,1.333,1.043,2.14,2.14,0,0,1,.272.8,2,2,0,0,1-.073.834Zm6.975,2.666a2.1,2.1,0,0,1-.463.689,2.195,2.195,0,0,1-1.551.617,2.258,2.258,0,0,1-.843-.172,2.331,2.331,0,0,1-.726-.472,2.249,2.249,0,0,1-.49-.707,2.222,2.222,0,0,1-.181-.825,2.122,2.122,0,0,1,.626-1.515,2.195,2.195,0,0,1,1.551-.608,2.249,2.249,0,0,1,.843.163,2.4,2.4,0,0,1,.716.472,2.249,2.249,0,0,1,.49.707,2.05,2.05,0,0,1,.181.825,2.023,2.023,0,0,1-.127.825Zm6.82,3.047a2.258,2.258,0,0,1-.308.771,2.177,2.177,0,0,1-.59.6,2.141,2.141,0,0,1-.789.308,2.222,2.222,0,0,1-1.651-.327,2.312,2.312,0,0,1-.617-.608,2.013,2.013,0,0,1-.345-.78,2.041,2.041,0,0,1,0-.843,1.932,1.932,0,0,1,.308-.78,2.032,2.032,0,0,1,.59-.59,2.113,2.113,0,0,1,.78-.317,2.077,2.077,0,0,1,.853,0,2.186,2.186,0,0,1,.8.326,2.276,2.276,0,0,1,.617.6,2.394,2.394,0,0,1,.354.789,2.041,2.041,0,0,1,.027.853Zm-55.905-17.4c-29.395,0-53.711,6.839-57.819,15.736a11.791,11.791,0,0,1,.68-2.15c2-4.072,7.256-7.872,15.038-10.729,10.657-3.909,25.15-6.149,41.857-6h.562a138.113,138.113,0,0,1,34.6,3.827c8.915,2.276,15.7,5.523,19.6,9.378a13.931,13.931,0,0,1,2.476,3.22,11.519,11.519,0,0,1,.907,2.521C129.058,74.439,104.642,67.565,75.157,67.565ZM32.837,69.3l.218-.091c10.648-4.363,25.15-6.829,41.857-6.666h.571c16.2-.154,30.3,2.2,40.9,6.349l.98.39q-3.256-1.17-7.011-2.14a139.047,139.047,0,0,0-35.163-3.864C58.314,63.12,43.658,65.361,32.837,69.3ZM133.084,80.18c-2.385-4.789-8.027-9.07-16.325-12.344-10.8-4.236-25.141-6.63-41.612-6.439-16.969-.19-31.744,2.3-42.573,6.757C24.657,71.4,19.324,75.618,17.156,80.307a9.723,9.723,0,0,0-.68,1.633v-.118a.553.553,0,0,0,.118-.3c.571-5.8,6.467-11.537,16.171-15.736,7.646-3.3,21.2-7.419,42.183-7.256h.571a125.161,125.161,0,0,1,33.948,4.118c8.9,2.449,15.836,5.95,20.053,10.122,2.857,2.821,4.363,5.9,4.363,8.915h0v.082a12.127,12.127,0,0,0-.8-1.578Z" transform="translate(-5.393 -6.244)"/>
  <path id="Tracé_333" data-name="Tracé 333" class="cls-5" d="M70.345,103.427a1.633,1.633,0,1,0,3.084-.753,3.945,3.945,0,0,1,2.1,1.6.553.553,0,0,0,.771.209.571.571,0,0,0,.218-.771,5.324,5.324,0,0,0-4.39-2.422,5.088,5.088,0,0,0-4.988,2.549.562.562,0,0,0,.263.753.6.6,0,0,0,.245.054.58.58,0,0,0,.517-.317,3.691,3.691,0,0,1,2.431-1.814A1.678,1.678,0,0,0,70.345,103.427Z" transform="translate(-10.458 -13.628)"/>
  <path id="Tracé_334" data-name="Tracé 334" class="cls-5" d="M89.186,114.187l1.007.444.236-1.2,1.233.4-.753,1.723L81.93,115.3l.943,1.914,9.106-.236,1.406-3.882-3.864-.989Z" transform="translate(-11.84 -14.638)"/>
  <path id="Tracé_335" data-name="Tracé 335" class="cls-5" d="M57.356,103.494a.565.565,0,0,0,.272,1.1c.508-.118,1.451.472,2.177,1.814a1.179,1.179,0,0,0-.109,1.052c.19.68.753,1.243,1.233,1.206,1.061-.082.381-1.669.317-1.814C60.467,104.855,58.934,103.1,57.356,103.494Z" transform="translate(-9.513 -13.832)"/>
  <path id="Tracé_336" data-name="Tracé 336" class="cls-5" d="M90.472,101.287a5.3,5.3,0,0,0-4.39,2.458.562.562,0,0,0,.218.771.571.571,0,0,0,.771-.218,4,4,0,0,1,2.086-1.6,1.66,1.66,0,0,0-.181.762,1.642,1.642,0,0,0,3.274,0,1.578,1.578,0,0,0-.254-.907,3.691,3.691,0,0,1,2.431,1.76.571.571,0,0,0,.517.327.6.6,0,0,0,.245-.054.571.571,0,0,0,.263-.762,5.079,5.079,0,0,0-4.979-2.54Z" transform="translate(-12.219 -13.628)"/>
  <path id="Tracé_337" data-name="Tracé 337" class="cls-5" d="M96.96,99.605a12.525,12.525,0,0,0-4.626-2.14A12.072,12.072,0,0,0,84.952,98a1.043,1.043,0,0,0,.789,1.923,9.977,9.977,0,0,1,6.113-.426,10.493,10.493,0,0,1,3.864,1.814,1.055,1.055,0,1,0,1.243-1.705Z" transform="translate(-12.068 -13.244)"/>
  <path id="Tracé_338" data-name="Tracé 338" class="cls-5" d="M105.733,103.494c-1.569-.39-3.1,1.351-3.891,3.347-.063.154-.744,1.741.317,1.814a1.541,1.541,0,0,0,1.233-1.206,1.179,1.179,0,0,0-.109-1.052c.726-1.342,1.669-1.932,2.177-1.814a.562.562,0,1,0,.272-1.088Z" transform="translate(-13.667 -13.832)"/>
  <path id="Tracé_339" data-name="Tracé 339" class="cls-5" d="M88.888,117.936a12.852,12.852,0,0,1-4.934.816s-1.188.054-2.92.063-2.92-.063-2.92-.063a12.933,12.933,0,0,1-4.943-.816.566.566,0,0,0-.417,1.052,10.623,10.623,0,0,0,1.243.426l.063.054c2.485,2.3,2.884,3.628,6.965,3.628s4.535-1.315,6.975-3.628a.154.154,0,0,0,.054-.054,11.482,11.482,0,0,0,1.261-.426.571.571,0,0,0-.426-1.052Zm-3.918,2.893a10.267,10.267,0,0,1-3.954.59,10.376,10.376,0,0,1-3.918-.58,12.209,12.209,0,0,1-1.125-1.034c.617.063,1.3.1,2.1.127,0,0,1.206.054,2.966.063s2.866-.054,2.957-.063c.807,0,1.487-.063,2.1-.118a14.647,14.647,0,0,1-1.116,1.016Z" transform="translate(-10.953 -15.176)"/>
  <path id="Tracé_340" data-name="Tracé 340" class="cls-5" d="M84.147,126.292a18.81,18.81,0,0,0-5.1,0,.562.562,0,0,0-.481.644.571.571,0,0,0,.562.49h.082a17.5,17.5,0,0,1,4.771,0,.571.571,0,0,0,.644-.481.562.562,0,0,0-.481-.653Z" transform="translate(-11.526 -15.941)"/>
  <path id="Tracé_341" data-name="Tracé 341" class="cls-5" d="M76.47,99.923A1.043,1.043,0,0,0,77.259,98a12.144,12.144,0,0,0-7.383-.535,12.462,12.462,0,0,0-4.626,2.14,1.043,1.043,0,1,0,1.243,1.669,10.494,10.494,0,0,1,3.864-1.814,9.977,9.977,0,0,1,6.113.463Z" transform="translate(-10.243 -13.244)"/>
  <path id="Tracé_342" data-name="Tracé 342" class="cls-5" d="M77.694,112.467a1.307,1.307,0,0,0-.2.172.565.565,0,1,0,.834.762.626.626,0,0,1,.834.073l.19.136a3.383,3.383,0,0,0,2.15,1.034,3.338,3.338,0,0,0,2.131-1.034.181.181,0,0,0,.082-.082l.091-.054a.635.635,0,0,1,.825-.073.565.565,0,1,0,.834-.762,1.75,1.75,0,0,0-2.349-.073,3.791,3.791,0,0,1-3.274,0,1.75,1.75,0,0,0-2.149-.1Z" transform="translate(-11.413 -14.642)"/>
  <path id="Tracé_343" data-name="Tracé 343" class="cls-5" d="M80.715,115.3l-8.979.254-.753-1.723,1.233-.4.236,1.2,1.007-.435-.336-2.077-3.864.98,1.406,3.882,9.106.236Z" transform="translate(-10.661 -14.639)"/>
  <path id="Tracé_344" data-name="Tracé 344" class="cls-1" d="M67.35,126.77l1.76,1.542,4.734,3.592,4.934.97,7.31-.49,4.317-2.013,1.3-2.313,1.442-1.478,3.338,2.92,1.433,13.4-33.1.463.227-12.988Z" transform="translate(-10.247 -15.984)"/>
  <path id="Tracé_345" data-name="Tracé 345" class="cls-2" d="M81.836,136.044a49.139,49.139,0,0,0,6.476-.444l-6.476,9.723L75.36,135.6a49.247,49.247,0,0,0,6.476.444Z" transform="translate(-11.228 -16.824)"/>
  <path id="Tracé_346" data-name="Tracé 346" class="cls-3" d="M119.537,135.326l-2.4,1.714-14.285-2.884L94.7,146.3l-2.884.481,10.04-15Z" transform="translate(-12.76 -16.468)"/>
  <path id="Tracé_347" data-name="Tracé 347" class="cls-3" d="M70.306,146.754l-2.911-.481L59.3,134.156l-14.339,2.875-2.385-1.7,17.695-3.555Z" transform="translate(-8.179 -16.468)"/>
</svg>
