<svg xmlns="http://www.w3.org/2000/svg" viewBox="0 0 141.215 141.215">
  <defs>
    <style>
      .cls-1 {
        fill: #fff;
      }

      .cls-2 {
        fill: #f4c55c;
      }

      .cls-3 {
        fill: none;
        stroke: #f4c55c;
        stroke-miterlimit: 10;
        stroke-width: 2.37px;
      }

      .cls-4 {
        fill: #f1e4b2;
      }

      .cls-5 {
        fill: #252525;
      }
    </style>
  </defs>
  <g id="pays-guatemala" transform="translate(0)">
    <ellipse id="Ellipse_14" data-name="Ellipse 14" class="cls-1" cx="67.116" cy="67.116" rx="67.116" ry="67.116" transform="translate(3.492 3.501)"/>
    <path id="Tracé_300" data-name="Tracé 300" class="cls-2" d="M145.865,75.256a70.607,70.607,0,1,0-70.6,70.6,70.609,70.609,0,0,0,70.6-70.6Zm-70.6,65.438A65.438,65.438,0,1,1,140.695,75.26,65.44,65.44,0,0,1,75.266,140.694Z" transform="translate(-4.65 -4.64)"/>
    <path id="Tracé_301" data-name="Tracé 301" class="cls-3" d="M81.836,27.958a49.248,49.248,0,0,0-6.476.444l6.476-9.723L88.321,28.4a49.384,49.384,0,0,0-6.485-.444Z" transform="translate(-11.228 -5.946)"/>
    <path id="Tracé_302" data-name="Tracé 302" class="cls-3" d="M115,39.595,126.482,37.3l-2.295,11.518A48.913,48.913,0,0,0,115,39.595Z" transform="translate(-14.916 -7.678)"/>
    <path id="Tracé_303" data-name="Tracé 303" class="cls-3" d="M135.64,75.31l9.723,6.476-9.723,6.485a47.768,47.768,0,0,0,.444-6.485,46.318,46.318,0,0,0-.444-6.476Z" transform="translate(-16.836 -11.215)"/>
    <path id="Tracé_304" data-name="Tracé 304" class="cls-3" d="M124.188,115l2.295,11.482L115,124.142A48.976,48.976,0,0,0,124.188,115Z" transform="translate(-14.916 -14.907)"/>
    <path id="Tracé_305" data-name="Tracé 305" class="cls-3" d="M81.836,136.044a49.139,49.139,0,0,0,6.476-.444l-6.476,9.723L75.36,135.6a49.247,49.247,0,0,0,6.476.444Z" transform="translate(-11.228 -16.824)"/>
    <path id="Tracé_306" data-name="Tracé 306" class="cls-3" d="M48.822,124.142,37.34,126.437,39.644,115a48.65,48.65,0,0,0,9.179,9.142Z" transform="translate(-7.691 -14.907)"/>
    <path id="Tracé_307" data-name="Tracé 307" class="cls-3" d="M28.354,88.261,18.64,81.786l9.714-6.476a49.249,49.249,0,0,0-.444,6.476,50.626,50.626,0,0,0,.444,6.476Z" transform="translate(-5.952 -11.215)"/>
    <path id="Tracé_308" data-name="Tracé 308" class="cls-3" d="M39.644,48.818,37.34,37.3l11.482,2.295a48.6,48.6,0,0,0-9.178,9.224Z" transform="translate(-7.691 -7.678)"/>
    <path id="Tracé_309" data-name="Tracé 309" class="cls-4" d="M42.56,28.162l2.4-1.723,14.285,2.875,8.126-12.153,2.884-.481L60.237,31.69Z" transform="translate(-8.177 -5.76)"/>
    <path id="Tracé_310" data-name="Tracé 310" class="cls-4" d="M91.82,16.69l2.911.481,8.1,12.117,14.339-2.875,2.376,1.7L101.86,31.673Z" transform="translate(-12.76 -5.761)"/>
    <path id="Tracé_311" data-name="Tracé 311" class="cls-4" d="M135.3,42.58l1.714,2.4-2.866,14.285L146.3,67.395l.481,2.884L131.77,60.266Z" transform="translate(-16.476 -8.17)"/>
    <path id="Tracé_312" data-name="Tracé 312" class="cls-4" d="M146.762,91.85l-.481,2.911-12.126,8.081,2.857,14.339-1.7,2.385-3.546-17.695Z" transform="translate(-16.476 -12.753)"/>
    <path id="Tracé_313" data-name="Tracé 313" class="cls-4" d="M119.537,135.326l-2.4,1.714-14.285-2.884L94.7,146.3l-2.884.481,10.04-15Z" transform="translate(-12.76 -16.468)"/>
    <path id="Tracé_314" data-name="Tracé 314" class="cls-4" d="M70.306,146.754l-2.911-.481L59.3,134.156l-14.339,2.875-2.385-1.7,17.695-3.555Z" transform="translate(-8.179 -16.468)"/>
    <path id="Tracé_315" data-name="Tracé 315" class="cls-4" d="M28.071,119.555l-1.705-2.4,2.911-14.276L17.152,94.7,16.68,91.82l14.983,10.067Z" transform="translate(-5.769 -12.751)"/>
    <path id="Tracé_316" data-name="Tracé 316" class="cls-4" d="M16.68,70.316l.481-2.911,12.117-8.09L26.412,44.975l1.7-2.385,3.555,17.695Z" transform="translate(-5.769 -8.171)"/>
    <path id="Tracé_317" data-name="Tracé 317" class="cls-5" d="M73.765,107.538l-9.278-.218-1.433-3.963,3.936-1,.345,2.113-1.025.444-.236-1.215-1.261.408.771,1.76,9.151-.263ZM64.36,94.532a1.669,1.669,0,0,0,3.338,0,1.6,1.6,0,0,0-.19-.771,4.054,4.054,0,0,1,2.131,1.623.58.58,0,1,0,1.007-.562,5.442,5.442,0,0,0-4.471-2.476,5.161,5.161,0,0,0-5.079,2.6.562.562,0,0,0,.272.762.617.617,0,0,0,.245.063.6.6,0,0,0,.526-.326,3.746,3.746,0,0,1,2.476-1.814,1.75,1.75,0,0,0-.254.9Zm13,20.951a18.538,18.538,0,0,0-5.206,0,.571.571,0,0,0-.49.653.59.59,0,0,0,.571.5h.082a17.876,17.876,0,0,1,4.87-.027.58.58,0,0,0,.172-1.143ZM70.836,91.357a1.061,1.061,0,1,0,.789-1.959,12.3,12.3,0,0,0-7.519-.544,12.942,12.942,0,0,0-4.716,2.177,1.063,1.063,0,0,0,1.27,1.705A10.612,10.612,0,0,1,64.6,90.922a10.158,10.158,0,0,1,6.24.435ZM70.89,102.7a1.677,1.677,0,0,0-.2.181.58.58,0,0,0,.853.78.644.644,0,0,1,.843.073l.2.145a2.784,2.784,0,0,0,4.363,0l.091-.082.082-.063a.671.671,0,0,1,.843-.073.58.58,0,1,0,.853-.78,1.814,1.814,0,0,0-2.394-.073,2.44,2.44,0,0,1-1.678.381,2.376,2.376,0,0,1-1.66-.381,1.814,1.814,0,0,0-2.2-.109ZM52.107,94.4a.574.574,0,1,0,.272,1.116c.517-.127,1.469.481,2.213,1.814a1.215,1.215,0,0,0-.082,1.143c.2.689.762,1.261,1.252,1.224,1.088-.082.39-1.7.327-1.814C55.254,95.747,53.694,94,52.1,94.4ZM83.2,108.807a11.857,11.857,0,0,1-1.279.435.209.209,0,0,1-.063.063c-2.54,2.349-2.948,3.682-7.111,3.682s-4.535-1.333-7.1-3.682a.417.417,0,0,1-.063-.063,11.6,11.6,0,0,1-1.279-.435.58.58,0,0,1,.426-1.07,13,13,0,0,0,5.034.834s1.206.054,2.975.073,2.984-.073,2.984-.073a12.915,12.915,0,0,0,5.025-.834.581.581,0,0,1,.453,1.07Zm-3.292.8c-.626.063-1.315.1-2.131.127-.1,0-1.3.054-3.02.063s-3.02-.063-3.02-.063a20.456,20.456,0,0,1-2.14-.127,13.958,13.958,0,0,0,1.152,1.1,10.53,10.53,0,0,0,3.991.58,10.476,10.476,0,0,0,4.036-.59A15.421,15.421,0,0,0,79.905,109.605Zm9.977-18.584a12.943,12.943,0,0,0-4.716-2.177,12.3,12.3,0,0,0-7.519.544,1.062,1.062,0,0,0,.8,1.968,10.149,10.149,0,0,1,6.231-.444,10.675,10.675,0,0,1,3.936,1.814,1.063,1.063,0,1,0,1.27-1.705Zm48.269-16.833a.771.771,0,0,1,0,.209l-4.326,11.528c-1.977,7.083-16.452,13.033-36.433,15.654a7.519,7.519,0,0,1-2.639,2.793,3.165,3.165,0,0,1-2.131.263l-.073.544a20.733,20.733,0,0,1-1.116,4.417c-2.349,6.848-7.156,9.777-12.335,10.684a1.333,1.333,0,0,0-.5.172,4.852,4.852,0,0,1-3.32.8H74.046a4.852,4.852,0,0,1-3.319-.8,1.333,1.333,0,0,0-.5-.172c-5.188-.907-9.977-3.836-12.335-10.684a21.885,21.885,0,0,1-1.125-4.417l-.063-.544a3.156,3.156,0,0,1-2.131-.263,7.392,7.392,0,0,1-2.6-2.721c-19.346-2.476-33.6-8.072-36.533-14.8a.435.435,0,0,1-.091-.154l-4.6-12.3a.517.517,0,0,1,0-.2c0-2.6,1.36-5.324,3.945-7.882,4.988-4.943,15.418-10.058,31.435-12.834a7.256,7.256,0,0,1-1.75-2.177l-8.571.073,8.163-1.233a5.687,5.687,0,0,1,.236-3.075l-7.074-2.857,7.519,1.814a7.093,7.093,0,0,1,2.476-2.721l-2.966-6.349,4.127,5.768A10.276,10.276,0,0,1,52.2,42l.7-6.512.617,6.557a23.989,23.989,0,0,1,7.074,1.814,33.939,33.939,0,0,1-1.36-10.249L44.96,33.257l14.366-1.224a22.067,22.067,0,0,1,.907-4.707L49.4,20.469l11.528,4.988a13.6,13.6,0,0,1,4.109-5.342L59.517,8.188l7.591,10.657A16.217,16.217,0,0,1,73.4,17.24l1.279-11.7L75.76,17.222A16.38,16.38,0,0,1,82.8,18.954l10.884-8.163-8.943,9.423a13.4,13.4,0,0,1,3.891,5.006L102.1,22.128,89.4,27.1a24.062,24.062,0,0,1,1.052,8.036l.481-.245a30.882,30.882,0,0,1,6.793-2.63l-1.5-4.072,2.3,3.909a19.047,19.047,0,0,1,2.6-.363l2.213-5.224-1.043,5.206a8.788,8.788,0,0,1,3.492.717l5.741-3.8-4.716,4.426a5.6,5.6,0,0,1,1.814,2.159l6.557-1.188-6.267,2.05a4.843,4.843,0,0,1,.063,2.93l6,2.975-6.349-2.059a6.893,6.893,0,0,1-2.177,2.2l3.628,4.68-4.535-4.136a19.155,19.155,0,0,1-5.2,1.814l.181,5.8-1.324-5.6a28.17,28.17,0,0,1-4.48.345H88.685c-.181.571-.381,1.125-.59,1.669-.689,1.814-1.3,3.465-1.814,5.034,3.492.19,5.877.39,5.877.408,22.121,2,36,8.226,42.011,14.167,2.585,2.558,3.954,5.279,3.954,7.872ZM83.733,51.514c.517-1.451,1.07-3.1,1.678-5.016.163-.535.327-1.07.472-1.605a20.406,20.406,0,0,1-2.521-.172c-.2.907-.426,1.814-.68,2.812-.381,1.433-.7,2.721-.97,3.9Zm9.75-8.5c-5.641.444-9.16.907-8.952.907,1,.063,2.984.163,9.9-.054,6.512-.2,11.936-2.131,13.668-5.306-3.265,2.376-8.1,3.963-14.675,4.48Zm-.49-2.2c-12.58,2.222-9.115,1.27.843.807,5.188-.236,11.727-2.086,13.6-4.834-3.446,1.823-9.623,3.193-14.5,4.054Zm13.84-5.56c-3.365-1.279-9.723.771-14.421,2.6-4.535,1.75-7.256,2.775-7.546,2.93-.091.054,3.12-.807,7.392-1.9,4.716-1.188,10.539-3.446,14.521-3.61ZM84.322,39.959c-.091.054,2.213-.907,6.857-2.893,6.349-2.721,9.442-3.283,15.074-3.2-3.628-1.814-9.977-.907-14.911,2.013C86.753,38.535,84.6,39.787,84.322,39.959ZM81.293,20.351c2.485,4.843,3.628,10.884,3.011,17.976.834-.453,1.814-.907,2.857-1.506C87.524,29.937,85.737,23.7,81.293,20.351Zm-4.372,0c2.2,6.766,2.023,19.046.58,27.744-.154.907-.326,2.059-.49,3.247H78.88c.336-1.37.7-2.775,1.079-4.181.263-.98.5-2.013.7-3.075a1.814,1.814,0,0,1-1.134-1.36c-.145-.907.345-1.651,1.705-2.6C82.018,32.423,81,24.006,76.921,20.351Zm-4.426,0c-5.2,4.825-4.181,16.715-2.884,25.749.245,1.714.58,3.51.907,5.251h1.487C71.062,41.474,70.219,27.552,72.5,20.351ZM64.187,46.526c.6,1.877,1.143,3.519,1.651,4.97l1.9-.063c-.245-1.179-.517-2.458-.834-3.873C64.187,35.234,65.022,29.7,68.722,20.351,62.283,25.239,60.941,36.277,64.187,46.526ZM47.7,44.231A31.472,31.472,0,0,1,61.82,47.387c-.091-.245-.19-.49-.29-.744s-.236-.635-.345-.961C56.324,43.56,51.145,42.735,47.7,44.231Zm-.907,2.086c4.535.354,11.337,2.567,16.434,4.834-.172-.5-.363-1.007-.553-1.533-5.079-2.594-12.045-4.662-15.908-3.3ZM46,48.131c1.088,1.76,3.846,3.265,7.092,4.381,1.116-.127,2.249-.245,3.41-.354a46.972,46.972,0,0,1-10.53-4.072Zm2.44,4.988c.671-.109,1.342-.209,2.032-.3a39.345,39.345,0,0,1-5.233-3.084A8.87,8.87,0,0,0,48.443,53.12ZM12.164,72.266l5.306,1.605.952-7.727L25.487,69l2.05-8.235,7.691,5.052,2.793-8.48,7.111,6.349,4.29-8.671,6.784,7.346,5.56-8.68,6.82,7.673,6.049-8.163,6.1,8.163,6.829-7.673,5.551,8.662L99.9,55l4.29,8.671,7.1-6.349,2.784,8.5,7.7-5.043,2.05,8.235,7.074-2.875.961,7.727,4.852-1.451a12.081,12.081,0,0,0-3.365-5.269c-4.154-4.109-11.609-7.782-21-10.339-10.612-2.893-23.581-4.363-37.648-4.254h-.6c-14.022-.109-27.037,1.37-37.648,4.254-9.387,2.549-16.842,6.222-20.951,10.33a12.371,12.371,0,0,0-3.356,5.115Zm85.3,20.08H97.4c-1.025-.317-2.258.327-3.537,1.705a16.444,16.444,0,0,0-1.877,2.939.562.562,0,0,1-.463.236.671.671,0,0,1-.227,0,.58.58,0,0,1-.336-.635c0-.1,1.587-9.179-2.984-15.038L75.6,87a.572.572,0,0,1-.236,0,.562.562,0,0,1-.472-.236.571.571,0,0,1,0-.735l5.016-5.306a50.953,50.953,0,0,0-14.511,6.757H65.14a.562.562,0,0,1-.417-.172c-.245-.254-.408-.417.97-3.628.317-.726.816-1.814,1.4-2.875a17.278,17.278,0,0,0-6.095,7.2.58.58,0,0,1-.626.317.571.571,0,0,1-.472-.517l-.417-4.825c-2.63,4.4-1.424,13.3-1.406,13.4a.58.58,0,0,1-1.043.426c-.054-.073-2.63-5.442-5.124-4.644h-.063c-.97.354-1.478,1.868-.989,4.09a13.151,13.151,0,0,0,1.56,3.628c1.07,1.868,1.923,2.857,2.721,3.256a2.032,2.032,0,0,0,1.669.091h.045a.58.58,0,0,1,.97.363h0v.372c.091.807.209,1.687.354,2.422A20.516,20.516,0,0,0,59,109.225,14.109,14.109,0,0,0,70.446,119.2c1.723.3.5.952,3.628.952h1.179c3.12,0,1.9-.653,3.628-.952,4.834-.853,9.26-3.546,11.455-9.977a20.062,20.062,0,0,0,1.116-4.6,3.025,3.025,0,0,1,.082-.843.58.58,0,0,1,.97-.363h0a2.032,2.032,0,0,0,1.669-.082c.789-.4,1.642-1.4,2.721-3.265a12.7,12.7,0,0,0,1.56-3.628c.5-2.249-.027-3.764-1-4.118ZM82.436,78.079a40.95,40.95,0,0,0-7.138-.726l-6.512,6.712A48.224,48.224,0,0,1,81.4,79.177Zm-4.7,6.693,10.757-4.807-.689-.39a29.523,29.523,0,0,0-4.054-1.224Zm-4.063-7.41a30.948,30.948,0,0,0-3.428.236l-3.1,6.494Zm-4.789.408c-7.764,1.106-14.511,4.335-14.793,8.825a45.277,45.277,0,0,0,2.54,7.256c-.19-3.628,0-9.8,2.848-12.7a.562.562,0,0,1,.98.354l.381,4.353A16.235,16.235,0,0,1,68.278,79Zm23.49,16.035A46.835,46.835,0,0,0,95.1,85.834c-.481-2.1-2.358-3.891-5.061-5.279h0l-.907.426C92.176,85.117,92.521,90.523,92.376,93.806ZM136.817,74.5l-6.675,2-.907-7.482-6.784,2.721-1.923-7.727-7.519,4.916-2.657-8.045-6.784,6.049-4.19-8.371L92.82,65.672,87.3,57.056l-6.7,7.537-5.959-7.963-5.922,7.963L62.02,57.056l-5.532,8.616-6.512-7.111-4.163,8.417-6.829-6.059-2.612,8.045-7.519-4.916L26.92,71.776l-6.784-2.721-.907,7.482-7.256-2.186,3.147,8.38C17.642,73.109,43.237,65.5,74.463,65.5s56.658,7.573,59.3,17.114ZM97.138,94.4c-1.605-.4-3.165,1.379-3.963,3.41-.063.154-.762,1.814.327,1.814.49,0,1.052-.535,1.252-1.224a1.215,1.215,0,0,0-.109-1.07c.744-1.37,1.7-1.977,2.213-1.814a.575.575,0,1,0,.281-1.116ZM82.164,104.472l1.025.444.236-1.215,1.261.408-.771,1.75-9.151-.254.961,1.932,9.287-.236,1.424-3.954L82.5,102.341Zm.907-12.126a5.442,5.442,0,0,0-4.462,2.494.59.59,0,0,0,.227.789.58.58,0,0,0,.78-.218,4.145,4.145,0,0,1,2.131-1.633,1.723,1.723,0,0,0-.181.771,1.669,1.669,0,1,0,3.329,0,1.687,1.687,0,0,0-.254-.907,3.846,3.846,0,0,1,2.485,1.814.553.553,0,0,0,.517.327.644.644,0,0,0,.254-.054.59.59,0,0,0,.272-.771,5.179,5.179,0,0,0-5.088-2.612Z" transform="translate(-5.217 -4.724)"/>
  </g>
</svg>
