<svg id="pays-salvador" xmlns="http://www.w3.org/2000/svg" viewBox="0 0 141.215 141.215">
  <defs>
    <style>
      .cls-1 {
        fill: #fff;
      }

      .cls-2 {
        fill: #f4c55c;
      }

      .cls-3 {
        fill: none;
        stroke: #f4c55c;
        stroke-miterlimit: 10;
        stroke-width: 2.37px;
      }

      .cls-4 {
        fill: #f1e4b2;
      }

      .cls-5 {
        fill: #252525;
      }
    </style>
  </defs>
  <ellipse id="Ellipse_17" data-name="Ellipse 17" class="cls-1" cx="67.116" cy="67.116" rx="67.116" ry="67.116" transform="translate(3.492 3.501)"/>
  <path id="Tracé_523" data-name="Tracé 523" class="cls-2" d="M145.865,75.256a70.607,70.607,0,1,0-70.6,70.6,70.609,70.609,0,0,0,70.6-70.6Zm-70.6,65.438A65.438,65.438,0,1,1,140.695,75.26,65.44,65.44,0,0,1,75.266,140.694Z" transform="translate(-4.65 -4.64)"/>
  <path id="Tracé_524" data-name="Tracé 524" class="cls-3" d="M81.836,27.958a49.248,49.248,0,0,0-6.476.444l6.476-9.723L88.321,28.4a49.384,49.384,0,0,0-6.485-.444Z" transform="translate(-11.228 -5.946)"/>
  <path id="Tracé_525" data-name="Tracé 525" class="cls-3" d="M115,39.595,126.482,37.3l-2.295,11.518A48.913,48.913,0,0,0,115,39.595Z" transform="translate(-14.916 -7.678)"/>
  <path id="Tracé_526" data-name="Tracé 526" class="cls-3" d="M135.64,75.31l9.723,6.476-9.723,6.485a47.768,47.768,0,0,0,.444-6.485,46.318,46.318,0,0,0-.444-6.476Z" transform="translate(-16.836 -11.215)"/>
  <path id="Tracé_527" data-name="Tracé 527" class="cls-3" d="M124.188,115l2.295,11.482L115,124.142A48.976,48.976,0,0,0,124.188,115Z" transform="translate(-14.916 -14.907)"/>
  <path id="Tracé_528" data-name="Tracé 528" class="cls-3" d="M81.836,136.044a49.139,49.139,0,0,0,6.476-.444l-6.476,9.723L75.36,135.6a49.247,49.247,0,0,0,6.476.444Z" transform="translate(-11.228 -16.824)"/>
  <path id="Tracé_529" data-name="Tracé 529" class="cls-3" d="M48.822,124.142,37.34,126.437,39.644,115a48.65,48.65,0,0,0,9.179,9.142Z" transform="translate(-7.691 -14.907)"/>
  <path id="Tracé_530" data-name="Tracé 530" class="cls-3" d="M28.354,88.261,18.64,81.786l9.714-6.476a49.249,49.249,0,0,0-.444,6.476,50.626,50.626,0,0,0,.444,6.476Z" transform="translate(-5.952 -11.215)"/>
  <path id="Tracé_531" data-name="Tracé 531" class="cls-3" d="M39.644,48.818,37.34,37.3l11.482,2.295a48.6,48.6,0,0,0-9.178,9.224Z" transform="translate(-7.691 -7.678)"/>
  <path id="Tracé_532" data-name="Tracé 532" class="cls-4" d="M42.56,28.162l2.4-1.723,14.285,2.875,8.126-12.153,2.884-.481L60.237,31.69Z" transform="translate(-8.177 -5.76)"/>
  <path id="Tracé_533" data-name="Tracé 533" class="cls-4" d="M91.82,16.69l2.911.481,8.1,12.117,14.339-2.875,2.376,1.7L101.86,31.673Z" transform="translate(-12.76 -5.761)"/>
  <path id="Tracé_534" data-name="Tracé 534" class="cls-4" d="M135.3,42.58l1.714,2.4-2.866,14.285L146.3,67.395l.481,2.884L131.77,60.266Z" transform="translate(-16.476 -8.17)"/>
  <path id="Tracé_535" data-name="Tracé 535" class="cls-4" d="M146.762,91.85l-.481,2.911-12.126,8.081,2.857,14.339-1.7,2.385-3.546-17.695Z" transform="translate(-16.476 -12.753)"/>
  <path id="Tracé_536" data-name="Tracé 536" class="cls-4" d="M119.537,135.326l-2.4,1.714-14.285-2.884L94.7,146.3l-2.884.481,10.04-15Z" transform="translate(-12.76 -16.468)"/>
  <path id="Tracé_537" data-name="Tracé 537" class="cls-4" d="M70.306,146.754l-2.911-.481L59.3,134.156l-14.339,2.875-2.385-1.7,17.695-3.555Z" transform="translate(-8.179 -16.468)"/>
  <path id="Tracé_538" data-name="Tracé 538" class="cls-4" d="M28.071,119.555l-1.705-2.4,2.911-14.276L17.152,94.7,16.68,91.82l14.983,10.067Z" transform="translate(-5.769 -12.751)"/>
  <path id="Tracé_539" data-name="Tracé 539" class="cls-4" d="M16.68,70.316l.481-2.911,12.117-8.09L26.412,44.975l1.7-2.385,3.555,17.695Z" transform="translate(-5.769 -8.171)"/>
  <path id="Tracé_540" data-name="Tracé 540" class="cls-5" d="M66.3,129.828l-8.634-.653-.97-6.2,4.535-.726.644,1.469-2.721.834.907,2.6,4.39.281-3.265-18.729,2-2.013,12.462,1.279V109.4l-10.621.082Zm24.252-6.113,2.721.834-.907,2.6-4.39.281,3.265-18.729-2.013-2.013L76.777,107.97V109.4l10.6.082-1.252,20.343,8.643-.662.961-6.195-4.535-.735ZM88.74,97.332a.59.59,0,0,0,.526.336.617.617,0,0,0,.254-.063.58.58,0,0,0,.272-.78,5.251,5.251,0,0,0-5.152-2.63,5.442,5.442,0,0,0-4.535,2.512.59.59,0,0,0,.227.789.6.6,0,0,0,.8-.218,4.172,4.172,0,0,1,2.159-1.651,1.741,1.741,0,0,0-.19.78,1.7,1.7,0,1,0,3.12-.907,3.882,3.882,0,0,1,2.549,1.832Zm-3.982,13.55a10.884,10.884,0,0,1-1.3.435.208.208,0,0,1-.063.063c-2.576,2.385-2.993,3.728-7.21,3.737s-4.626-1.351-7.2-3.737l-.054-.063a10.264,10.264,0,0,1-1.288-.435.59.59,0,0,1,.435-1.088,13.314,13.314,0,0,0,5.106.843s1.224.063,3.011.073,3.02-.073,3.02-.073a13.142,13.142,0,0,0,5.106-.843.591.591,0,0,1,.463,1.088Zm-3.338.807c-.635.063-1.333.091-2.159.127-.1,0-1.324.054-3.056.063s-3.075-.063-3.075-.063a20.826,20.826,0,0,1-2.159-.127,14.183,14.183,0,0,0,1.161,1.107,10.765,10.765,0,0,0,4.054.6,10.639,10.639,0,0,0,4.081-.608,14.039,14.039,0,0,0,1.179-1.1ZM73.639,118.8h.091a18.339,18.339,0,0,1,4.934,0,.582.582,0,1,0,.163-1.152,18.992,18.992,0,0,0-5.215,0,.582.582,0,0,0,.082,1.161ZM71.018,97.277a.59.59,0,0,0,1.025-.58,5.514,5.514,0,0,0-4.535-2.5,5.242,5.242,0,0,0-5.152,2.63.58.58,0,0,0,.272.78.607.607,0,0,0,.254.054.58.58,0,0,0,.526-.326,3.882,3.882,0,0,1,2.521-1.814,1.687,1.687,0,1,0,3.111.907,1.605,1.605,0,0,0-.19-.78,4.118,4.118,0,0,1,2.195,1.633Zm-4.662,22.057.082,1.4a17.133,17.133,0,0,0,5.224,1.814,1.188,1.188,0,0,1,.5.172,4.988,4.988,0,0,0,3.365.816H76.7a4.952,4.952,0,0,0,3.356-.816,1.306,1.306,0,0,1,.508-.172,17.1,17.1,0,0,0,5.442-1.9l.082-1.415a15.609,15.609,0,0,1-5.741,2.168c-1.75.3-.508.961-3.628.961H75.5c-3.156,0-1.914-.662-3.628-.961A15.418,15.418,0,0,1,66.356,119.335ZM98.681,97.4a.59.59,0,0,0,.281-1.143c-1.623-.4-3.211,1.406-4.018,3.465-.073.154-.771,1.814.327,1.877a1.6,1.6,0,0,0,1.27-1.243,1.206,1.206,0,0,0-.109-1.088c.762-1.388,1.669-2,2.231-1.868Zm-42.99,2.957c.2.7.771,1.279,1.27,1.243,1.1-.091.4-1.723.336-1.877-.816-2.059-2.4-3.864-4.018-3.465A.59.59,0,0,0,53.55,97.4c.526-.127,1.5.481,2.249,1.868a1.206,1.206,0,0,0-.127,1.088Zm84.738-24.37L136.193,87.31l.281-.136a2.195,2.195,0,0,1,1.705,0,2.068,2.068,0,0,1,.7.508,2.022,2.022,0,0,1,.444.753,2.367,2.367,0,0,1,.136.907,2.558,2.558,0,0,1-.209.862,2.2,2.2,0,0,1-.517.726,2.149,2.149,0,0,1-.744.481,2.2,2.2,0,0,1-.907.163,2.24,2.24,0,0,1-1.533-.7,2.176,2.176,0,0,1-.444-.753,1.256,1.256,0,0,0-.091-.3,13.523,13.523,0,0,1-3.066,3.229,1.3,1.3,0,0,1,.263,0,2.2,2.2,0,0,1,.825.3,1.914,1.914,0,0,1,.617.59,2.118,2.118,0,0,1,.354,1.7,2.249,2.249,0,0,1-.326.825,2.422,2.422,0,0,1-1.424,1.007,2.294,2.294,0,0,1-.907,0,2.159,2.159,0,0,1-.816-.3,2.032,2.032,0,0,1-.626-.59,1.986,1.986,0,0,1-.345-.789,2.158,2.158,0,0,1,0-.907,2.413,2.413,0,0,1,.073-.3,37.567,37.567,0,0,1-4.2,2.195,2.5,2.5,0,0,1,1.1.562,2.122,2.122,0,0,1,.5.717,2.249,2.249,0,0,1,.172.834,2.186,2.186,0,0,1-.172.907,2.267,2.267,0,0,1-.49.735,2.3,2.3,0,0,1-.735.5,2.258,2.258,0,0,1-.907.2,2.231,2.231,0,0,1-.907-.145,2.15,2.15,0,0,1-.744-.463,2.213,2.213,0,0,1-.49-.7,2.186,2.186,0,0,1-.181-.853,2.249,2.249,0,0,1,.172-.907,2.724,2.724,0,0,1,.19-.363,45.806,45.806,0,0,1-4.7,1.642,2.649,2.649,0,0,1,.444.172,2.213,2.213,0,0,1,1.1,1.306,2.276,2.276,0,0,1,.082.853,2.149,2.149,0,0,1-.272.834,2.24,2.24,0,0,1-.562.671,2.313,2.313,0,0,1-.8.417,2.413,2.413,0,0,1-.907.1,2.376,2.376,0,0,1-.853-.254,2.131,2.131,0,0,1-.689-.544,2.1,2.1,0,0,1-.408-.753,2.3,2.3,0,0,1-.082-.907,2.267,2.267,0,0,1,.272-.825,1.95,1.95,0,0,1,.3-.417q-2.4.671-5.016,1.261a2.213,2.213,0,0,1,.517.236,2.113,2.113,0,0,1,.644.59,2.059,2.059,0,0,1,.345.789,2.123,2.123,0,0,1,0,.907,2.3,2.3,0,0,1-.326.807,2.168,2.168,0,0,1-.626.626,2.195,2.195,0,0,1-.816.354,2.448,2.448,0,0,1-.907,0,2.385,2.385,0,0,1-.834-.308,2.222,2.222,0,0,1-.771-1.315,2.122,2.122,0,0,1,0-.907,2.186,2.186,0,0,1,.717-1.252c-1.687.345-3.419.662-5.215.907a2.2,2.2,0,0,1,.562.29,2.131,2.131,0,0,1,.608.635,2.068,2.068,0,0,1,.3.807,2.041,2.041,0,0,1-.417,1.642,2.34,2.34,0,0,1-1.487.907,2.422,2.422,0,0,1-.907,0,2.53,2.53,0,0,1-.816-.363,2.485,2.485,0,0,1-.608-.626,2.177,2.177,0,0,1-.3-.807,2.15,2.15,0,0,1,.417-1.651,2.231,2.231,0,0,1,.463-.463l-2.249.317a10.593,10.593,0,0,1-1.7,2.131s0,0,0,.063a2.122,2.122,0,0,1-.082.907,2.322,2.322,0,0,1-.417.762,2.412,2.412,0,0,1-.689.562,2.458,2.458,0,0,1-.853.263,2.667,2.667,0,0,1-.907-.073,2.559,2.559,0,0,1-.408-.163,21.767,21.767,0,0,1-1.007,3.719,18.5,18.5,0,0,1-2.458,4.825L91.2,113.2c.281-.608.544-1.252.78-1.932a20.263,20.263,0,0,0,1.134-4.662,4.1,4.1,0,0,1,.073-.907.59.59,0,0,1,.989-.363h0a2.068,2.068,0,0,0,1.7-.082c.8-.408,1.669-1.415,2.721-3.31a13.115,13.115,0,0,0,1.587-3.7c.5-2.258,0-3.791-1.007-4.145h-.054c-2.032-.843-3.492,1.107-3.991,1.95a16.263,16.263,0,0,1-1.506,2.721.6.6,0,0,1-.472.236.672.672,0,0,1-.227,0,.6.6,0,0,1-.345-.644c0-.109,1.614-9.305-3.02-15.237l-12.48,5.65a.59.59,0,0,1-.671-.907l5.061-5.442a51.615,51.615,0,0,0-14.684,6.848.608.608,0,0,1-.771-.073c-.254-.254-.417-.426.98-3.628.327-.735.834-1.814,1.415-2.911a17.423,17.423,0,0,0-6.167,7.256.59.59,0,0,1-.635.327.58.58,0,0,1-.481-.526L60.7,84.834c-2.666,4.462-1.442,13.478-1.433,13.6a.58.58,0,0,1-.354.617.471.471,0,0,1-.218,0,.58.58,0,0,1-.472-.236,15.945,15.945,0,0,1-1.605-2.939h0a2.957,2.957,0,0,0-3.628-1.723h-.063c-.989.363-1.506,1.886-1.007,4.145A13.387,13.387,0,0,0,53.5,102c1.088,1.9,1.95,2.9,2.721,3.31a2.1,2.1,0,0,0,1.7.091h0a.59.59,0,0,1,.989.363v.091h0v.118c.1.816.218,1.714.363,2.449a20.8,20.8,0,0,0,.834,2.884,18.14,18.14,0,0,0,1.134,2.639l.517,2.975a18.085,18.085,0,0,1-2.721-5.224,22.61,22.61,0,0,1-1.007-3.7,2.82,2.82,0,0,1-.481.2,2.249,2.249,0,0,1-.907.073,2.322,2.322,0,0,1-.853-.254,2.376,2.376,0,0,1-.689-.553,2.231,2.231,0,0,1-.426-.771,2.258,2.258,0,0,1-.082-.853v-.181a10.648,10.648,0,0,1-1.605-2.032l-2.431-.336a2.195,2.195,0,0,1,.535.508,2.159,2.159,0,0,1,.127,2.458,2.186,2.186,0,0,1-.6.626,2.159,2.159,0,0,1-.807.363,2.259,2.259,0,0,1-.907,0,2.285,2.285,0,0,1-.843-.3,2.258,2.258,0,0,1-1.043-1.379,2.077,2.077,0,0,1-.045-.853,2.159,2.159,0,0,1,.3-.816,2.1,2.1,0,0,1,.608-.626,2.159,2.159,0,0,1,.644-.327q-2.775-.435-5.387-.97a2.222,2.222,0,0,1,.807,1.315,2.3,2.3,0,0,1,0,.907,2.077,2.077,0,0,1-.354.789,2.231,2.231,0,0,1-.635.6,2.4,2.4,0,0,1-.825.317,2.267,2.267,0,0,1-.907,0,2.322,2.322,0,0,1-.816-.336,2.449,2.449,0,0,1-.626-.635,2.113,2.113,0,0,1-.336-.8,2.013,2.013,0,0,1,0-.907,2.186,2.186,0,0,1,.345-.789,2.358,2.358,0,0,1,.635-.6,2.3,2.3,0,0,1,.617-.263c-1.814-.4-3.546-.834-5.2-1.288a2.34,2.34,0,0,1,.381.5,2.013,2.013,0,0,1,.272.834,2.086,2.086,0,0,1-.073.853,2.213,2.213,0,0,1-.408.762,2,2,0,0,1-.68.544,2.122,2.122,0,0,1-.843.254,2.286,2.286,0,0,1-.907-.082,2.512,2.512,0,0,1-.789-.408,2.3,2.3,0,0,1-.58-.671,2.2,2.2,0,0,1-.272-.834,2.141,2.141,0,0,1,.073-.907,2.213,2.213,0,0,1,.408-.762,2.249,2.249,0,0,1,.68-.544,2.222,2.222,0,0,1,.58-.209q-2.639-.807-4.943-1.705a2.476,2.476,0,0,1,.29.5,2.358,2.358,0,0,1,.181.853,2.168,2.168,0,0,1-.172.853,2,2,0,0,1-.481.707,2.04,2.04,0,0,1-.744.472,2.34,2.34,0,0,1-.862.154,2.376,2.376,0,0,1-.907-.181,2.231,2.231,0,0,1-.744-.5,2.3,2.3,0,0,1-.5-.735,2,2,0,0,1-.181-.853,1.941,1.941,0,0,1,.163-.843,2.149,2.149,0,0,1,.753-.644,2.177,2.177,0,0,1,.735-.472,2.722,2.722,0,0,1,.535-.136,37.72,37.72,0,0,1-4.535-2.313,2,2,0,0,1,.163.5,2.177,2.177,0,0,1,0,.907,2.141,2.141,0,0,1-.336.8,2.186,2.186,0,0,1-.617.608,2.24,2.24,0,0,1-1.7.3,2.331,2.331,0,0,1-.816-.354,2.285,2.285,0,0,1-.626-.626,2.177,2.177,0,0,1-.345-.816,2.014,2.014,0,0,1,0-.907,2.186,2.186,0,0,1,.327-.8,2.149,2.149,0,0,1,1.433-.907,2.386,2.386,0,0,1,.508,0,14.366,14.366,0,0,1-3.419-3.428,2.576,2.576,0,0,1-.091.59,2.267,2.267,0,0,1-.4.78,2.068,2.068,0,0,1-.671.544,2.222,2.222,0,0,1-.825.245,2.059,2.059,0,0,1-.907-.109,2.385,2.385,0,0,1-.771-.426,2.576,2.576,0,0,1-.553-.689,2.449,2.449,0,0,1-.263-.853,2.286,2.286,0,0,1,.082-.907,2.207,2.207,0,0,1,2.8-1.46,2.639,2.639,0,0,1,.58.281L11.349,76.072a.535.535,0,0,1,0-.209c0-2.63,1.388-5.387,4-7.981,6.131-6.068,20.307-12.4,42.972-14.448a.571.571,0,0,1,0-.245c3.147-8.961,7.473-17.232,17.74-16.96h.517c9.9,0,14.121,8.163,17.232,16.96a.7.7,0,0,1,0,.272c22.484,2.086,36.542,8.38,42.627,14.421,2.612,2.594,4,5.36,4,7.99a.49.49,0,0,1-.027.118ZM12.737,73.932a.97.97,0,0,1,.7,0l4.716,1.524.8-6.476a1.024,1.024,0,0,1,1.406-.825l5.922,2.4L28.01,63.62a1.025,1.025,0,0,1,.626-.707,1.007,1.007,0,0,1,.907.1l6.585,4.308,2.34-7.1a1.043,1.043,0,0,1,.717-.671,1.016,1.016,0,0,1,.952.227l6.031,5.378,3.682-7.446a1.007,1.007,0,0,1,.78-.562,1.025,1.025,0,0,1,.907.317l5.85,6.349,4.9-7.628a1.034,1.034,0,0,1,.789-.481,1.088,1.088,0,0,1,.853.345l6.059,6.721,5.342-7.419a1.016,1.016,0,0,1,.834-.435,1.043,1.043,0,0,1,.843.435l5.333,7.419,6-6.748a1.088,1.088,0,0,1,.907-.345,1.07,1.07,0,0,1,.789.481l4.889,7.628,5.85-6.349a1.043,1.043,0,0,1,1.687.245l3.682,7.446,6.031-5.378a1.034,1.034,0,0,1,1.669.444l2.34,7.1,6.585-4.308a1.025,1.025,0,0,1,.907-.1,1.043,1.043,0,0,1,.626.707l1.723,6.938,5.922-2.4a1.024,1.024,0,0,1,1.406.825l.8,6.476,4.716-1.524h.172a12.435,12.435,0,0,0-3.392-5.233c-4.217-4.163-11.791-7.891-21.287-10.475-10.757-2.93-23.944-4.426-38.165-4.317h-.6c-14.221-.145-27.372,1.351-38.165,4.281-9.514,2.585-17.069,6.349-21.277,10.475a12.289,12.289,0,0,0-3.41,5.3Zm9.977,10.385a2.3,2.3,0,0,0-.345-.8,2.222,2.222,0,0,0-1.433-.907,2.44,2.44,0,0,0-.907,0,2.1,2.1,0,0,0-.807.363,2.313,2.313,0,0,0-.635.626,2.467,2.467,0,0,0-.336.816,2.394,2.394,0,0,0,0,.907,2.17,2.17,0,0,0,.952,1.388,2.122,2.122,0,0,0,.816.308,2.249,2.249,0,0,0,.907,0,2.195,2.195,0,0,0,.816-.363,2.285,2.285,0,0,0,.626-.626,2.467,2.467,0,0,0,.336-.816,2.213,2.213,0,0,0,.018-.9Zm6.938-3.211a2.349,2.349,0,0,0-.172-.853,2.249,2.249,0,0,0-.49-.707,2.15,2.15,0,0,0-.744-.463,2.2,2.2,0,0,0-.907-.154,2.422,2.422,0,0,0-.907.19,2.267,2.267,0,0,0-.735.49,2.349,2.349,0,0,0-.5.735,2.186,2.186,0,0,0-.181.853,2.068,2.068,0,0,0,.172.843,2.1,2.1,0,0,0,.49.717,2.277,2.277,0,0,0,1.605.617,2.168,2.168,0,0,0,.98-.19,2.267,2.267,0,0,0,.735-.49,2.159,2.159,0,0,0,.5-.735,2.358,2.358,0,0,0,.163-.853ZM36.807,78a2.231,2.231,0,0,0-1.932-1.56,2.3,2.3,0,0,0-.907.091,2.34,2.34,0,0,0-.789.408,2.276,2.276,0,0,0-.571.671,2.013,2.013,0,0,0-.272.834,2.1,2.1,0,0,0,.073.853,1.941,1.941,0,0,0,.408.762,2.15,2.15,0,0,0,.68.553,2.313,2.313,0,0,0,.843.245,2.449,2.449,0,0,0,.907-.082,2.4,2.4,0,0,0,.8-.417,2.15,2.15,0,0,0,.571-.671,2.331,2.331,0,0,0,.272-.825A1.986,1.986,0,0,0,36.817,78ZM44.3,76.272a2.222,2.222,0,0,0-.989-1.388,2.358,2.358,0,0,0-1.714-.29,2.131,2.131,0,0,0-.816.354,2.195,2.195,0,0,0-.635.626,2.231,2.231,0,0,0-.327.807,2.122,2.122,0,0,0,0,.907,2.2,2.2,0,0,0,.345.789,2.394,2.394,0,0,0,.644.6,2.222,2.222,0,0,0,.825.308,2.258,2.258,0,0,0,.907,0,2.476,2.476,0,0,0,.825-.354A2.249,2.249,0,0,0,43.982,78a2.158,2.158,0,0,0,.336-.807,2.3,2.3,0,0,0-.009-.925Zm7.546-1.252a2.141,2.141,0,0,0-.907-1.442,2.4,2.4,0,0,0-.807-.363,2.431,2.431,0,0,0-.907,0,2.249,2.249,0,0,0-.834.3,2.558,2.558,0,0,0-.662.59,2.467,2.467,0,0,0-.39.789,2.24,2.24,0,0,0,.272,1.669,2.34,2.34,0,0,0,.6.635,2.485,2.485,0,0,0,.807.363,2.44,2.44,0,0,0,.907,0,2.249,2.249,0,0,0,.843-.308,1.941,1.941,0,0,0,.653-.59,2.041,2.041,0,0,0,.39-.78,2.122,2.122,0,0,0,.036-.862Zm3.319.426a2.141,2.141,0,0,0,.562.653,2.34,2.34,0,0,0,.789.408,2.431,2.431,0,0,0,.907.073,2.4,2.4,0,0,0,.853-.263,2.186,2.186,0,0,0,.689-.562,2.249,2.249,0,0,0,.417-.762,1.977,1.977,0,0,0,.082-.907,2.177,2.177,0,0,0-.834-1.478,2.032,2.032,0,0,0-.789-.4,2.086,2.086,0,0,0-.907-.073,2.277,2.277,0,0,0-.843.254,2.168,2.168,0,0,0-.689.562,2.195,2.195,0,0,0-.426.762,2.285,2.285,0,0,0-.082.907,2.213,2.213,0,0,0,.29.807Zm14.511,5.279.617-1.288c-7.863,1.116-14.684,4.4-14.992,8.943a45.349,45.349,0,0,0,2.576,7.392c-.19-3.628,0-9.977,2.884-12.87a.59.59,0,0,1,1,.363l.381,4.417a16.48,16.48,0,0,1,7.519-6.975Zm-7.129-6.848a2.086,2.086,0,0,0,.227.834,2.331,2.331,0,0,0,1.306,1.116,2.449,2.449,0,0,0,.907.109,2.276,2.276,0,0,0,.907-.218,2.249,2.249,0,0,0,.707-.526,2.14,2.14,0,0,0,.453-.753,2.068,2.068,0,0,0,.118-.853,2.186,2.186,0,0,0-.218-.834,2.431,2.431,0,0,0-.544-.68,2.177,2.177,0,0,0-.771-.435,2.449,2.449,0,0,0-.907-.109,2.367,2.367,0,0,0-.907.218,2.322,2.322,0,0,0-.707.526,2.195,2.195,0,0,0-.453.744,2.132,2.132,0,0,0-.136.843Zm7.845.39a2.159,2.159,0,0,0,.517.707,2.331,2.331,0,0,0,.744.463,2.449,2.449,0,0,0,.907.154,2.34,2.34,0,0,0,.907-.19,2.131,2.131,0,0,0,.735-.49,2.285,2.285,0,0,0,.481-.735,2.186,2.186,0,0,0,.163-.843,2.1,2.1,0,0,0-.2-.843,2.231,2.231,0,0,0-.5-.707,2.3,2.3,0,0,0-.762-.463,2.367,2.367,0,0,0-.907-.154,2.521,2.521,0,0,0-.907.181,2.3,2.3,0,0,0-.735.5,2.385,2.385,0,0,0-.49.726,2.259,2.259,0,0,0-.154.853,2.286,2.286,0,0,0,.181.825ZM68.515,85.822l6.621-6.811a31.611,31.611,0,0,0-3.474.236Zm14.421-4.97,1.052-1.125a41.782,41.782,0,0,0-7.256-.735l-6.6,6.8a49.085,49.085,0,0,1,12.806-4.943Zm-5.7-6.693a2.385,2.385,0,0,0,.49.726,2.249,2.249,0,0,0,.735.5,2.621,2.621,0,0,0,.907.181,2.548,2.548,0,0,0,.907-.154,2.276,2.276,0,0,0,1.261-1.179,2.235,2.235,0,0,0-.481-2.422,2.458,2.458,0,0,0-.744-.49,2.34,2.34,0,0,0-1.741,0,2.113,2.113,0,0,0-.753.472,2.077,2.077,0,0,0-.508.707,2.195,2.195,0,0,0-.19.834A2.258,2.258,0,0,0,77.24,74.159Zm13.251,7.355L85.539,79.7,79.19,86.484Zm-5.641-7.165a2.3,2.3,0,0,0,2.041,1.487,2.2,2.2,0,0,0,.907-.118,2.249,2.249,0,0,0,.771-.435,2.159,2.159,0,0,0,.753-1.524,2.077,2.077,0,0,0-.127-.853,1.986,1.986,0,0,0-.453-.744,2.318,2.318,0,0,0-1.578-.744,2.376,2.376,0,0,0-.907.118,2.494,2.494,0,0,0-.771.435,2.286,2.286,0,0,0-.535.689,2.186,2.186,0,0,0-.218.834,2.068,2.068,0,0,0,.136.853ZM96.8,87.591c-.481-2.122-2.394-3.945-5.133-5.351h0l-.961.435c3.156,4.19,3.51,9.677,3.365,13a47.742,47.742,0,0,0,2.748-8.081Zm0-13.985a2.276,2.276,0,0,0-.426-.762,2.5,2.5,0,0,0-.689-.553,2.431,2.431,0,0,0-1.741-.181,2.512,2.512,0,0,0-.789.408,2.331,2.331,0,0,0-.5.689,2.3,2.3,0,0,0-.254.825,2.077,2.077,0,0,0,.091.853,2.2,2.2,0,0,0,.417.771,2.376,2.376,0,0,0,.689.553,2.313,2.313,0,0,0,.862.254,2.385,2.385,0,0,0,.907-.073,2.322,2.322,0,0,0,1.36-1.07,2.213,2.213,0,0,0,.172-1.687Zm7.619,1.07a2.267,2.267,0,0,0-.381-.789,2.458,2.458,0,0,0-.671-.59,2.4,2.4,0,0,0-.834-.29,2.494,2.494,0,0,0-.907,0,2.286,2.286,0,0,0-.8.372,2.156,2.156,0,0,0-.472,3.084,2.276,2.276,0,0,0,.662.59,2.349,2.349,0,0,0,.843.3,2.294,2.294,0,0,0,.907,0,2.44,2.44,0,0,0,.8-.363,2.34,2.34,0,0,0,.6-.635,2.1,2.1,0,0,0,.3-.816,2.077,2.077,0,0,0-.018-.862Zm7.564,1.487a2.159,2.159,0,0,0-.336-.807,2.3,2.3,0,0,0-1.451-.97,2.258,2.258,0,0,0-.907,0,2.184,2.184,0,0,0-1.8,2.612,2.286,2.286,0,0,0,1.814,1.769,2.258,2.258,0,0,0,.907,0,2.195,2.195,0,0,0,.825-.317,2.349,2.349,0,0,0,.635-.6,2.2,2.2,0,0,0,.345-.789,2.122,2.122,0,0,0,.018-.9Zm7.482,2.032a2.168,2.168,0,0,0-.281-.834,2.44,2.44,0,0,0-.58-.671,2.476,2.476,0,0,0-1.687-.49,2.4,2.4,0,0,0-.843.263,2.1,2.1,0,0,0-1.034,1.279,2.245,2.245,0,0,0,.78,2.4,2.377,2.377,0,0,0,.8.408,2.322,2.322,0,0,0,1.732-.172,2.15,2.15,0,0,0,.68-.553,1.814,1.814,0,0,0,.4-.762,2.1,2.1,0,0,0,.082-.871Zm7.256,2.721a2.367,2.367,0,0,0-.19-.853,2.43,2.43,0,0,0-.508-.726,2.3,2.3,0,0,0-.744-.49,2.413,2.413,0,0,0-.907-.181,2.313,2.313,0,0,0-.862.163,2.277,2.277,0,0,0-.735.472,2.122,2.122,0,0,0-.481.717,2.014,2.014,0,0,0-.163.853,2.186,2.186,0,0,0,.181.853,2.385,2.385,0,0,0,.508.726,2.3,2.3,0,0,0,2.485.49,2.24,2.24,0,0,0,.735-.481,1.959,1.959,0,0,0,.481-.717,2.214,2.214,0,0,0,.281-.789Zm6.938,3.174a2.195,2.195,0,0,0-.354-.816,2.277,2.277,0,0,0-2.367-1,2.168,2.168,0,0,0-1.415.907,2.077,2.077,0,0,0-.317.8,2.213,2.213,0,0,0,0,.907,2.385,2.385,0,0,0,.354.807,2.485,2.485,0,0,0,.644.626,2.4,2.4,0,0,0,.825.336,2.213,2.213,0,0,0,.907,0,2.485,2.485,0,0,0,.816-.327,2.312,2.312,0,0,0,.608-.617,2.267,2.267,0,0,0,.317-.8,2.177,2.177,0,0,0-.018-.825Zm5.514-8.163-5.623,1.814a.907.907,0,0,1-.317.054,1.034,1.034,0,0,1-.553-.163,1.007,1.007,0,0,1-.472-.744l-.789-6.349-5.768,2.349a1.034,1.034,0,0,1-1.4-.707l-1.669-6.675-6.494,4.245a1.034,1.034,0,0,1-1.551-.535l-2.258-6.893-5.868,5.233a1.007,1.007,0,0,1-.907.245,1.043,1.043,0,0,1-.735-.553l-3.628-7.319-5.732,6.231a1.038,1.038,0,0,1-1.633-.145L88.895,58.4l-5.941,6.684a1.07,1.07,0,0,1-.825.354,1.043,1.043,0,0,1-.789-.435l-5.251-7.256-5.2,7.292a1.043,1.043,0,0,1-.789.435,1.07,1.07,0,0,1-.825-.354l-5.941-6.684L58.457,66.05a1.07,1.07,0,0,1-.789.472,1.052,1.052,0,0,1-.853-.326l-5.732-6.231-3.628,7.319a1.034,1.034,0,0,1-1.614.308l-5.877-5.269L37.7,69.216a1.016,1.016,0,0,1-1.542.535l-6.494-4.245-1.669,6.675a1.025,1.025,0,0,1-.535.671,1.007,1.007,0,0,1-.853,0L20.827,70.54l-.789,6.349a1.025,1.025,0,0,1-.463.744,1.07,1.07,0,0,1-.907.118l-5.823-1.877a1.433,1.433,0,0,1-.327-.181l3.265,8.716c2.5-9.759,28.47-17.423,60.114-17.423s57.465,7.628,60.141,17.35ZM91.534,92.851a13.151,13.151,0,0,0-4.78-2.213,12.507,12.507,0,0,0-7.628.553,1.079,1.079,0,0,0,.834,1.968,10.276,10.276,0,0,1,6.349-.453A10.884,10.884,0,0,1,90.3,94.52a1.079,1.079,0,0,0,1.233-1.669ZM76.206,105.186a2.394,2.394,0,0,1-1.687-.39,1.814,1.814,0,0,0-2.213-.1,1.169,1.169,0,0,0-.209.172.6.6,0,0,0,.907.8.644.644,0,0,1,.907.073l.2.145a3.456,3.456,0,0,0,2.213,1.061,3.41,3.41,0,0,0,2.113-1.088l.091-.082.091-.063a.662.662,0,0,1,.853-.073.6.6,0,0,0,.907-.8,1.814,1.814,0,0,0-2.422-.073A2.485,2.485,0,0,1,76.206,105.186ZM73.059,91.192a12.507,12.507,0,0,0-7.609-.553,12.97,12.97,0,0,0-4.771,2.213,1.073,1.073,0,1,0,1.279,1.723,10.884,10.884,0,0,1,3.991-1.814,10.276,10.276,0,0,1,6.349.453,1.081,1.081,0,0,0,.762-2.023Z" transform="translate(-5.272 -7.578)"/>
</svg>
