<svg xmlns="http://www.w3.org/2000/svg" viewBox="0 0 39.052 30.957">
  <defs>
    <style>
      .cls-1 {
        fill: #6b702e;
      }
    </style>
  </defs>
  <g id="perso" transform="translate(-2.284 -13.668)">
    <path id="Tracé_543" data-name="Tracé 543" class="cls-1" d="M20.05,36.8a11.331,11.331,0,0,0,3.994-5.652,1.97,1.97,0,0,0,1.144-1.229,1.725,1.725,0,0,0-.462-2.046c.069-.51.132-1.044.192-1.608.538-5.133-1.6-8.133-6.518-8.133-.363,0-.74.015-1.131.048a4.77,4.77,0,0,0-2.488.964,5.015,5.015,0,0,0-1.074-.123c-3.2,0-4.531,3.554-4.091,7.245.067.56.135,1.091.209,1.6a1.715,1.715,0,0,0-.479,2.054,1.951,1.951,0,0,0,1.178,1.24,11.221,11.221,0,0,0,3.96,5.641C8.922,38.186,4.168,40.273,4.168,42.359v.232c0,1.123,5.866,2.033,13.1,2.033s13.1-.911,13.1-2.033v-.232h0C30.366,40.272,25.613,38.186,20.05,36.8Zm15.845-9.132a10.09,10.09,0,0,0,5-2.5,14.945,14.945,0,0,1-1.5-5.5c0-4-2.5-6-5.5-6v0c-3,0-5.5,2-5.5,6a14.949,14.949,0,0,1-1.5,5.5,10.1,10.1,0,0,0,5,2.5,30.672,30.672,0,0,0-5.24,2.195,3.768,3.768,0,0,1-.144.533A3.532,3.532,0,0,1,25.2,32.124c-.028.076-.058.147-.086.224,1.042.613,4.624,1.064,8.9,1.064,5.086,0,9.21-.64,9.21-1.429v-.32C43.22,30.664,40.393,29.164,35.895,27.663Z" transform="translate(-1.884)"/>
  </g>
</svg>
