<svg id="youtube" xmlns="http://www.w3.org/2000/svg" viewBox="0 0 46.961 46.961">
  <defs>
    <style>
      .cls-1 {
        fill: #d22215;
      }

      .cls-2 {
        fill: #a81411;
      }

      .cls-3 {
        fill: #fff;
      }

      .cls-4 {
        fill: #d1d1d1;
      }
    </style>
  </defs>
  <ellipse id="Ellipse_31" data-name="Ellipse 31" class="cls-1" cx="23.481" cy="23.481" rx="23.481" ry="23.481"/>
  <path id="Tracé_556" data-name="Tracé 556" class="cls-2" d="M152.146,170.339c-.7.215-1.438.4-2.174.583-5.218,1.107-12.175-1.9-15.179,3-2.506,3.9-3.3,8.775-6.147,12.26l15.224,15.224a23.5,23.5,0,0,0,19.672-19.675Z" transform="translate(-116.846 -154.715)"/>
  <path id="Tracé_557" data-name="Tracé 557" class="cls-3" d="M130.792,152.333H115.08a5.581,5.581,0,0,0-5.581,5.581v7.854a5.581,5.581,0,0,0,5.581,5.581h15.712a5.581,5.581,0,0,0,5.581-5.581v-7.854a5.582,5.582,0,0,0-5.581-5.581Zm-3.775,9.891-7.349,3.5a.3.3,0,0,1-.422-.266v-7.229a.3.3,0,0,1,.428-.263l7.349,3.724a.3.3,0,0,1-.006.529Z" transform="translate(-99.456 -138.361)"/>
  <path id="Tracé_558" data-name="Tracé 558" class="cls-4" d="M262.29,152.333h-8.014v7.21l4.246,2.151a.3.3,0,0,1-.006.53l-4.239,2.022v7.1h8.014a5.581,5.581,0,0,0,5.581-5.581v-7.854A5.582,5.582,0,0,0,262.29,152.333Z" transform="translate(-230.953 -138.361)"/>
</svg>
